{
.appVersion = "983";
copyright = "Copyright 2013, 2017 Peter Hull. Licensed under SIL Open Font License 1.1";
customParameters = (
{
name = note;
value = "2013-7-31: Created.";
},
{
name = openTypeNameVersion;
value = "Version 1.000";
}
);
date = "2017-08-06 04:49:54 +0000";
designer = "Peter Hull";
disablesNiceNames = 1;
familyName = EffectsEighty;
featurePrefixes = (
{
code = "@GDEF_Simple = [\\space \\less \\dollar \\four \\comma \\yen \\D \\H \\L \\P \\five \\T \\underscore \012	\\X \\bar \\d \\h \\l \\p \\t \\x \\exclamdown \\parenright \\sterling \\zero \\quotesingle \012	\\braceleft \\ampersand \\slash \\C \\G \\asterisk \\K \\O \\S \\W \\exclam \\c \\g \\k \\equal \\o \\s \012	\\plus \\w \\eight \\hyphen \\period \\one \\asciitilde \\colon \\parenleft \\question \012	\\three \\B \\F \\J \\N \\dieresis \\R \\bracketleft \\V \\asciicircum \\Z \\b \\f \\j \\n \\r \\nine \\v \\z \012	\\braceright \\seven \\semicolon \\backslash \\currency \\at \\greater \\six \\percent \012	\\bracketright \\A \\quotedbl \\E \\I \\numbersign \\M \\Q \\U \\two \\Y \\grave \\a \\e \\i \\m \\q \\u \\y ];\012\012table GDEF {\012  GlyphClassDef @GDEF_Simple, , , ;\012\012} GDEF;";
name = Prefix;
}
);
fontMaster = (
{
ascender = 800;
capHeight = 0;
customParameters = (
{
name = hheaAscender;
value = 609;
},
{
name = hheaDescender;
value = -200;
},
{
name = hheaLineGap;
value = 0;
},
{
name = underlineThickness;
value = 50;
},
{
name = underlinePosition;
value = -100;
}
);
descender = -200;
id = "9B45E214-161D-4B81-AEB6-0B387D0DDEE2";
weight = Bold;
weightValue = 700;
xHeight = 0;
}
);
glyphs = (
{
glyphname = A;
lastChange = "2017-08-06 04:48:21 +0000";
layers = (
{
layerId = "9B45E214-161D-4B81-AEB6-0B387D0DDEE2";
paths = (
{
closed = 1;
nodes = (
"310 560 CURVE SMOOTH",
"310 543 OFFCURVE",
"301 528 OFFCURVE",
"287 519 CURVE",
"291 520 OFFCURVE",
"294 520 OFFCURVE",
"298 520 CURVE SMOOTH",
"325 520 OFFCURVE",
"347 498 OFFCURVE",
"347 471 CURVE SMOOTH",
"347 454 OFFCURVE",
"338 439 OFFCURVE",
"324 430 CURVE",
"328 431 OFFCURVE",
"332 431 OFFCURVE",
"336 431 CURVE SMOOTH",
"363 431 OFFCURVE",
"385 409 OFFCURVE",
"385 382 CURVE SMOOTH",
"385 365 OFFCURVE",
"376 350 OFFCURVE",
"362 341 CURVE",
"366 342 OFFCURVE",
"369 342 OFFCURVE",
"373 342 CURVE SMOOTH",
"400 342 OFFCURVE",
"422 320 OFFCURVE",
"422 293 CURVE SMOOTH",
"422 273 OFFCURVE",
"411 257 OFFCURVE",
"394 249 CURVE",
"411 241 OFFCURVE",
"422 224 OFFCURVE",
"422 204 CURVE SMOOTH",
"422 184 OFFCURVE",
"411 168 OFFCURVE",
"394 160 CURVE",
"411 152 OFFCURVE",
"422 136 OFFCURVE",
"422 116 CURVE SMOOTH",
"422 96 OFFCURVE",
"411 79 OFFCURVE",
"394 71 CURVE",
"411 63 OFFCURVE",
"422 47 OFFCURVE",
"422 27 CURVE SMOOTH",
"422 0 OFFCURVE",
"400 -22 OFFCURVE",
"373 -22 CURVE SMOOTH",
"369 -22 OFFCURVE",
"365 -22 OFFCURVE",
"361 -21 CURVE",
"357 -22 OFFCURVE",
"353 -22 OFFCURVE",
"349 -22 CURVE SMOOTH",
"322 -22 OFFCURVE",
"300 0 OFFCURVE",
"300 27 CURVE SMOOTH",
"300 47 OFFCURVE",
"312 63 OFFCURVE",
"329 71 CURVE",
"312 79 OFFCURVE",
"300 96 OFFCURVE",
"300 116 CURVE SMOOTH",
"300 136 OFFCURVE",
"312 152 OFFCURVE",
"329 160 CURVE",
"327 161 OFFCURVE",
"326 162 OFFCURVE",
"324 163 CURVE",
"317 159 OFFCURVE",
"307 156 OFFCURVE",
"298 156 CURVE SMOOTH",
"294 156 OFFCURVE",
"290 156 OFFCURVE",
"286 157 CURVE",
"282 156 OFFCURVE",
"278 156 OFFCURVE",
"274 156 CURVE SMOOTH",
"265 156 OFFCURVE",
"256 159 OFFCURVE",
"249 163 CURVE",
"242 159 OFFCURVE",
"232 156 OFFCURVE",
"223 156 CURVE SMOOTH",
"219 156 OFFCURVE",
"215 156 OFFCURVE",
"211 157 CURVE",
"207 156 OFFCURVE",
"203 156 OFFCURVE",
"199 156 CURVE SMOOTH",
"190 156 OFFCURVE",
"181 159 OFFCURVE",
"174 163 CURVE",
"167 159 OFFCURVE",
"157 156 OFFCURVE",
"148 156 CURVE SMOOTH",
"144 156 OFFCURVE",
"140 156 OFFCURVE",
"136 157 CURVE",
"132 156 OFFCURVE",
"128 156 OFFCURVE",
"124 156 CURVE SMOOTH",
"115 156 OFFCURVE",
"106 159 OFFCURVE",
"99 163 CURVE",
"97 162 OFFCURVE",
"96 161 OFFCURVE",
"94 160 CURVE",
"111 152 OFFCURVE",
"122 136 OFFCURVE",
"122 116 CURVE SMOOTH",
"122 96 OFFCURVE",
"111 79 OFFCURVE",
"94 71 CURVE",
"111 63 OFFCURVE",
"122 47 OFFCURVE",
"122 27 CURVE SMOOTH",
"122 0 OFFCURVE",
"100 -22 OFFCURVE",
"73 -22 CURVE SMOOTH",
"69 -22 OFFCURVE",
"65 -22 OFFCURVE",
"61 -21 CURVE",
"57 -22 OFFCURVE",
"53 -22 OFFCURVE",
"49 -22 CURVE SMOOTH",
"22 -22 OFFCURVE",
"0 0 OFFCURVE",
"0 27 CURVE SMOOTH",
"0 47 OFFCURVE",
"12 63 OFFCURVE",
"29 71 CURVE",
"12 79 OFFCURVE",
"0 96 OFFCURVE",
"0 116 CURVE SMOOTH",
"0 136 OFFCURVE",
"12 152 OFFCURVE",
"29 160 CURVE",
"12 168 OFFCURVE",
"0 184 OFFCURVE",
"0 204 CURVE SMOOTH",
"0 224 OFFCURVE",
"12 241 OFFCURVE",
"29 249 CURVE",
"12 257 OFFCURVE",
"0 273 OFFCURVE",
"0 293 CURVE SMOOTH",
"0 320 OFFCURVE",
"22 342 OFFCURVE",
"49 342 CURVE SMOOTH",
"53 342 OFFCURVE",
"56 342 OFFCURVE",
"60 341 CURVE",
"46 350 OFFCURVE",
"37 365 OFFCURVE",
"37 382 CURVE SMOOTH",
"37 409 OFFCURVE",
"59 431 OFFCURVE",
"86 431 CURVE SMOOTH",
"90 431 OFFCURVE",
"94 431 OFFCURVE",
"98 430 CURVE",
"84 439 OFFCURVE",
"75 454 OFFCURVE",
"75 471 CURVE SMOOTH",
"75 498 OFFCURVE",
"97 520 OFFCURVE",
"124 520 CURVE SMOOTH",
"128 520 OFFCURVE",
"131 520 OFFCURVE",
"135 519 CURVE",
"121 528 OFFCURVE",
"112 543 OFFCURVE",
"112 560 CURVE SMOOTH",
"112 587 OFFCURVE",
"134 609 OFFCURVE",
"161 609 CURVE SMOOTH",
"165 609 OFFCURVE",
"170 608 OFFCURVE",
"174 607 CURVE",
"178 608 OFFCURVE",
"182 609 OFFCURVE",
"186 609 CURVE SMOOTH",
"195 609 OFFCURVE",
"204 606 OFFCURVE",
"211 602 CURVE",
"218 606 OFFCURVE",
"227 609 OFFCURVE",
"236 609 CURVE SMOOTH",
"240 609 OFFCURVE",
"245 608 OFFCURVE",
"249 607 CURVE",
"253 608 OFFCURVE",
"257 609 OFFCURVE",
"261 609 CURVE SMOOTH",
"288 609 OFFCURVE",
"310 587 OFFCURVE"
);
},
{
closed = 1;
nodes = (
"211 518 CURVE",
"204 514 OFFCURVE",
"195 511 OFFCURVE",
"186 511 CURVE SMOOTH",
"182 511 OFFCURVE",
"178 511 OFFCURVE",
"174 512 CURVE",
"188 503 OFFCURVE",
"197 488 OFFCURVE",
"197 471 CURVE SMOOTH",
"197 444 OFFCURVE",
"175 422 OFFCURVE",
"148 422 CURVE SMOOTH",
"144 422 OFFCURVE",
"141 423 OFFCURVE",
"137 424 CURVE",
"151 415 OFFCURVE",
"160 399 OFFCURVE",
"160 382 CURVE SMOOTH",
"160 355 OFFCURVE",
"138 333 OFFCURVE",
"111 333 CURVE SMOOTH",
"107 333 OFFCURVE",
"103 334 OFFCURVE",
"99 335 CURVE",
"113 326 OFFCURVE",
"122 310 OFFCURVE",
"122 293 CURVE SMOOTH",
"122 273 OFFCURVE",
"111 257 OFFCURVE",
"94 249 CURVE",
"96 248 OFFCURVE",
"97 247 OFFCURVE",
"99 246 CURVE",
"106 250 OFFCURVE",
"115 253 OFFCURVE",
"124 253 CURVE SMOOTH",
"128 253 OFFCURVE",
"132 253 OFFCURVE",
"136 252 CURVE",
"140 253 OFFCURVE",
"144 253 OFFCURVE",
"148 253 CURVE SMOOTH",
"157 253 OFFCURVE",
"167 250 OFFCURVE",
"174 246 CURVE",
"181 250 OFFCURVE",
"190 253 OFFCURVE",
"199 253 CURVE SMOOTH",
"203 253 OFFCURVE",
"207 253 OFFCURVE",
"211 252 CURVE",
"215 253 OFFCURVE",
"219 253 OFFCURVE",
"223 253 CURVE SMOOTH",
"232 253 OFFCURVE",
"242 250 OFFCURVE",
"249 246 CURVE",
"256 250 OFFCURVE",
"265 253 OFFCURVE",
"274 253 CURVE SMOOTH",
"278 253 OFFCURVE",
"282 253 OFFCURVE",
"286 252 CURVE",
"290 253 OFFCURVE",
"294 253 OFFCURVE",
"298 253 CURVE SMOOTH",
"307 253 OFFCURVE",
"317 250 OFFCURVE",
"324 246 CURVE",
"326 247 OFFCURVE",
"327 248 OFFCURVE",
"329 249 CURVE",
"312 257 OFFCURVE",
"300 273 OFFCURVE",
"300 293 CURVE SMOOTH",
"300 310 OFFCURVE",
"309 326 OFFCURVE",
"323 335 CURVE",
"319 334 OFFCURVE",
"315 333 OFFCURVE",
"311 333 CURVE SMOOTH",
"284 333 OFFCURVE",
"262 355 OFFCURVE",
"262 382 CURVE SMOOTH",
"262 399 OFFCURVE",
"271 415 OFFCURVE",
"285 424 CURVE",
"281 423 OFFCURVE",
"278 422 OFFCURVE",
"274 422 CURVE SMOOTH",
"247 422 OFFCURVE",
"225 444 OFFCURVE",
"225 471 CURVE SMOOTH",
"225 488 OFFCURVE",
"234 503 OFFCURVE",
"248 512 CURVE",
"244 511 OFFCURVE",
"240 511 OFFCURVE",
"236 511 CURVE SMOOTH",
"227 511 OFFCURVE",
"218 514 OFFCURVE"
);
}
);
width = 450;
}
);
unicode = 0041;
userData = {
com.fontlab.hintData = {
hhints = (
{
position = -22;
width = 21;
},
{
position = -22;
width = 21;
},
{
position = 156;
width = 97;
},
{
position = 411;
width = 20;
},
{
position = 511;
width = 98;
}
);
vhints = (
{
position = 0;
width = 122;
},
{
position = 37;
width = 123;
},
{
position = 75;
width = 122;
},
{
position = 112;
width = 198;
},
{
position = 225;
width = 122;
},
{
position = 262;
width = 123;
},
{
position = 300;
width = 122;
}
);
};
};
},
{
glyphname = B;
lastChange = "2017-08-06 04:48:21 +0000";
layers = (
{
layerId = "9B45E214-161D-4B81-AEB6-0B387D0DDEE2";
paths = (
{
closed = 1;
nodes = (
"347 560 CURVE SMOOTH",
"347 533 OFFCURVE",
"325 511 OFFCURVE",
"298 511 CURVE SMOOTH",
"294 511 OFFCURVE",
"290 512 OFFCURVE",
"286 513 CURVE",
"282 512 OFFCURVE",
"278 511 OFFCURVE",
"274 511 CURVE SMOOTH",
"265 511 OFFCURVE",
"256 514 OFFCURVE",
"249 518 CURVE",
"242 514 OFFCURVE",
"232 511 OFFCURVE",
"223 511 CURVE SMOOTH",
"219 511 OFFCURVE",
"215 512 OFFCURVE",
"211 513 CURVE",
"207 512 OFFCURVE",
"203 511 OFFCURVE",
"199 511 CURVE SMOOTH",
"190 511 OFFCURVE",
"181 514 OFFCURVE",
"174 518 CURVE",
"167 514 OFFCURVE",
"157 511 OFFCURVE",
"148 511 CURVE SMOOTH",
"144 511 OFFCURVE",
"141 511 OFFCURVE",
"137 512 CURVE",
"151 503 OFFCURVE",
"160 488 OFFCURVE",
"160 471 CURVE SMOOTH",
"160 451 OFFCURVE",
"148 435 OFFCURVE",
"131 427 CURVE",
"148 419 OFFCURVE",
"160 402 OFFCURVE",
"160 382 CURVE SMOOTH",
"160 362 OFFCURVE",
"148 346 OFFCURVE",
"131 338 CURVE",
"133 337 OFFCURVE",
"134 336 OFFCURVE",
"136 335 CURVE",
"143 339 OFFCURVE",
"152 342 OFFCURVE",
"161 342 CURVE SMOOTH",
"165 342 OFFCURVE",
"170 342 OFFCURVE",
"174 341 CURVE",
"178 342 OFFCURVE",
"182 342 OFFCURVE",
"186 342 CURVE SMOOTH",
"195 342 OFFCURVE",
"204 339 OFFCURVE",
"211 335 CURVE",
"218 339 OFFCURVE",
"227 342 OFFCURVE",
"236 342 CURVE SMOOTH",
"240 342 OFFCURVE",
"245 342 OFFCURVE",
"249 341 CURVE",
"253 342 OFFCURVE",
"257 342 OFFCURVE",
"261 342 CURVE SMOOTH",
"270 342 OFFCURVE",
"279 339 OFFCURVE",
"286 335 CURVE",
"293 339 OFFCURVE",
"302 342 OFFCURVE",
"311 342 CURVE SMOOTH",
"315 342 OFFCURVE",
"319 342 OFFCURVE",
"323 341 CURVE",
"309 350 OFFCURVE",
"300 365 OFFCURVE",
"300 382 CURVE SMOOTH",
"300 402 OFFCURVE",
"312 419 OFFCURVE",
"329 427 CURVE",
"312 435 OFFCURVE",
"300 451 OFFCURVE",
"300 471 CURVE SMOOTH",
"300 498 OFFCURVE",
"322 520 OFFCURVE",
"349 520 CURVE SMOOTH",
"353 520 OFFCURVE",
"357 519 OFFCURVE",
"361 518 CURVE",
"365 519 OFFCURVE",
"369 520 OFFCURVE",
"373 520 CURVE SMOOTH",
"400 520 OFFCURVE",
"422 498 OFFCURVE",
"422 471 CURVE SMOOTH",
"422 451 OFFCURVE",
"411 435 OFFCURVE",
"394 427 CURVE",
"411 419 OFFCURVE",
"422 402 OFFCURVE",
"422 382 CURVE SMOOTH",
"422 355 OFFCURVE",
"400 333 OFFCURVE",
"373 333 CURVE SMOOTH",
"369 333 OFFCURVE",
"366 334 OFFCURVE",
"362 335 CURVE",
"376 326 OFFCURVE",
"385 310 OFFCURVE",
"385 293 CURVE SMOOTH",
"385 276 OFFCURVE",
"376 261 OFFCURVE",
"362 252 CURVE",
"366 253 OFFCURVE",
"369 253 OFFCURVE",
"373 253 CURVE SMOOTH",
"400 253 OFFCURVE",
"422 231 OFFCURVE",
"422 204 CURVE SMOOTH",
"422 184 OFFCURVE",
"411 168 OFFCURVE",
"394 160 CURVE",
"411 152 OFFCURVE",
"422 136 OFFCURVE",
"422 116 CURVE SMOOTH",
"422 89 OFFCURVE",
"400 67 OFFCURVE",
"373 67 CURVE SMOOTH",
"369 67 OFFCURVE",
"365 67 OFFCURVE",
"361 68 CURVE",
"357 67 OFFCURVE",
"353 67 OFFCURVE",
"349 67 CURVE SMOOTH",
"322 67 OFFCURVE",
"300 89 OFFCURVE",
"300 116 CURVE SMOOTH",
"300 136 OFFCURVE",
"312 152 OFFCURVE",
"329 160 CURVE",
"312 168 OFFCURVE",
"300 184 OFFCURVE",
"300 204 CURVE SMOOTH",
"300 221 OFFCURVE",
"309 237 OFFCURVE",
"323 246 CURVE",
"319 245 OFFCURVE",
"315 244 OFFCURVE",
"311 244 CURVE SMOOTH",
"302 244 OFFCURVE",
"293 247 OFFCURVE",
"286 251 CURVE",
"279 247 OFFCURVE",
"270 244 OFFCURVE",
"261 244 CURVE SMOOTH",
"257 244 OFFCURVE",
"253 245 OFFCURVE",
"249 246 CURVE",
"245 245 OFFCURVE",
"240 244 OFFCURVE",
"236 244 CURVE SMOOTH",
"227 244 OFFCURVE",
"218 247 OFFCURVE",
"211 251 CURVE",
"204 247 OFFCURVE",
"195 244 OFFCURVE",
"186 244 CURVE SMOOTH",
"182 244 OFFCURVE",
"178 245 OFFCURVE",
"174 246 CURVE",
"170 245 OFFCURVE",
"165 244 OFFCURVE",
"161 244 CURVE SMOOTH",
"152 244 OFFCURVE",
"143 247 OFFCURVE",
"136 251 CURVE",
"134 250 OFFCURVE",
"133 250 OFFCURVE",
"131 249 CURVE",
"148 241 OFFCURVE",
"160 224 OFFCURVE",
"160 204 CURVE SMOOTH",
"160 184 OFFCURVE",
"148 168 OFFCURVE",
"131 160 CURVE",
"148 152 OFFCURVE",
"160 136 OFFCURVE",
"160 116 CURVE SMOOTH",
"160 99 OFFCURVE",
"151 83 OFFCURVE",
"137 74 CURVE",
"141 75 OFFCURVE",
"144 76 OFFCURVE",
"148 76 CURVE SMOOTH",
"157 76 OFFCURVE",
"167 73 OFFCURVE",
"174 69 CURVE",
"181 73 OFFCURVE",
"190 76 OFFCURVE",
"199 76 CURVE SMOOTH",
"203 76 OFFCURVE",
"207 75 OFFCURVE",
"211 74 CURVE",
"215 75 OFFCURVE",
"219 76 OFFCURVE",
"223 76 CURVE SMOOTH",
"232 76 OFFCURVE",
"242 73 OFFCURVE",
"249 69 CURVE",
"256 73 OFFCURVE",
"265 76 OFFCURVE",
"274 76 CURVE SMOOTH",
"278 76 OFFCURVE",
"282 75 OFFCURVE",
"286 74 CURVE",
"290 75 OFFCURVE",
"294 76 OFFCURVE",
"298 76 CURVE SMOOTH",
"325 76 OFFCURVE",
"347 54 OFFCURVE",
"347 27 CURVE SMOOTH",
"347 0 OFFCURVE",
"325 -22 OFFCURVE",
"298 -22 CURVE SMOOTH",
"294 -22 OFFCURVE",
"290 -22 OFFCURVE",
"286 -21 CURVE",
"282 -22 OFFCURVE",
"278 -22 OFFCURVE",
"274 -22 CURVE SMOOTH",
"265 -22 OFFCURVE",
"256 -19 OFFCURVE",
"249 -15 CURVE",
"242 -19 OFFCURVE",
"232 -22 OFFCURVE",
"223 -22 CURVE SMOOTH",
"219 -22 OFFCURVE",
"215 -22 OFFCURVE",
"211 -21 CURVE",
"207 -22 OFFCURVE",
"203 -22 OFFCURVE",
"199 -22 CURVE SMOOTH",
"190 -22 OFFCURVE",
"181 -19 OFFCURVE",
"174 -15 CURVE",
"167 -19 OFFCURVE",
"157 -22 OFFCURVE",
"148 -22 CURVE SMOOTH",
"144 -22 OFFCURVE",
"140 -22 OFFCURVE",
"136 -21 CURVE",
"132 -22 OFFCURVE",
"128 -22 OFFCURVE",
"124 -22 CURVE SMOOTH",
"115 -22 OFFCURVE",
"106 -19 OFFCURVE",
"99 -15 CURVE",
"92 -19 OFFCURVE",
"82 -22 OFFCURVE",
"73 -22 CURVE SMOOTH",
"69 -22 OFFCURVE",
"65 -22 OFFCURVE",
"61 -21 CURVE",
"57 -22 OFFCURVE",
"53 -22 OFFCURVE",
"49 -22 CURVE SMOOTH",
"22 -22 OFFCURVE",
"0 0 OFFCURVE",
"0 27 CURVE SMOOTH",
"0 54 OFFCURVE",
"22 76 OFFCURVE",
"49 76 CURVE SMOOTH",
"53 76 OFFCURVE",
"56 75 OFFCURVE",
"60 74 CURVE",
"46 83 OFFCURVE",
"37 99 OFFCURVE",
"37 116 CURVE SMOOTH",
"37 136 OFFCURVE",
"49 152 OFFCURVE",
"66 160 CURVE",
"49 168 OFFCURVE",
"37 184 OFFCURVE",
"37 204 CURVE SMOOTH",
"37 224 OFFCURVE",
"49 241 OFFCURVE",
"66 249 CURVE",
"49 257 OFFCURVE",
"37 273 OFFCURVE",
"37 293 CURVE SMOOTH",
"37 313 OFFCURVE",
"49 330 OFFCURVE",
"66 338 CURVE",
"49 346 OFFCURVE",
"37 362 OFFCURVE",
"37 382 CURVE SMOOTH",
"37 402 OFFCURVE",
"49 419 OFFCURVE",
"66 427 CURVE",
"49 435 OFFCURVE",
"37 451 OFFCURVE",
"37 471 CURVE SMOOTH",
"37 488 OFFCURVE",
"46 503 OFFCURVE",
"60 512 CURVE",
"56 511 OFFCURVE",
"53 511 OFFCURVE",
"49 511 CURVE SMOOTH",
"22 511 OFFCURVE",
"0 533 OFFCURVE",
"0 560 CURVE SMOOTH",
"0 587 OFFCURVE",
"22 609 OFFCURVE",
"49 609 CURVE SMOOTH",
"53 609 OFFCURVE",
"57 608 OFFCURVE",
"61 607 CURVE",
"65 608 OFFCURVE",
"69 609 OFFCURVE",
"73 609 CURVE SMOOTH",
"82 609 OFFCURVE",
"92 606 OFFCURVE",
"99 602 CURVE",
"106 606 OFFCURVE",
"115 609 OFFCURVE",
"124 609 CURVE SMOOTH",
"128 609 OFFCURVE",
"132 608 OFFCURVE",
"136 607 CURVE",
"140 608 OFFCURVE",
"144 609 OFFCURVE",
"148 609 CURVE SMOOTH",
"157 609 OFFCURVE",
"167 606 OFFCURVE",
"174 602 CURVE",
"181 606 OFFCURVE",
"190 609 OFFCURVE",
"199 609 CURVE SMOOTH",
"203 609 OFFCURVE",
"207 608 OFFCURVE",
"211 607 CURVE",
"215 608 OFFCURVE",
"219 609 OFFCURVE",
"223 609 CURVE SMOOTH",
"232 609 OFFCURVE",
"242 606 OFFCURVE",
"249 602 CURVE",
"256 606 OFFCURVE",
"265 609 OFFCURVE",
"274 609 CURVE SMOOTH",
"278 609 OFFCURVE",
"282 608 OFFCURVE",
"286 607 CURVE",
"290 608 OFFCURVE",
"294 609 OFFCURVE",
"298 609 CURVE SMOOTH",
"325 609 OFFCURVE",
"347 587 OFFCURVE"
);
}
);
width = 450;
}
);
unicode = 0042;
userData = {
com.fontlab.hintData = {
hhints = (
{
position = -22;
width = 98;
},
{
position = 244;
width = 98;
},
{
position = 511;
width = 98;
}
);
vhints = (
{
position = 37;
width = 123;
},
{
position = 300;
width = 122;
}
);
};
};
},
{
glyphname = C;
lastChange = "2017-08-06 04:48:21 +0000";
layers = (
{
layerId = "9B45E214-161D-4B81-AEB6-0B387D0DDEE2";
paths = (
{
closed = 1;
nodes = (
"385 560 CURVE SMOOTH",
"385 543 OFFCURVE",
"376 528 OFFCURVE",
"362 519 CURVE",
"366 520 OFFCURVE",
"369 520 OFFCURVE",
"373 520 CURVE SMOOTH",
"400 520 OFFCURVE",
"422 498 OFFCURVE",
"422 471 CURVE SMOOTH",
"422 444 OFFCURVE",
"400 422 OFFCURVE",
"373 422 CURVE SMOOTH",
"369 422 OFFCURVE",
"365 423 OFFCURVE",
"361 424 CURVE",
"357 423 OFFCURVE",
"353 422 OFFCURVE",
"349 422 CURVE SMOOTH",
"322 422 OFFCURVE",
"300 444 OFFCURVE",
"300 471 CURVE SMOOTH",
"300 488 OFFCURVE",
"309 503 OFFCURVE",
"323 512 CURVE",
"319 511 OFFCURVE",
"315 511 OFFCURVE",
"311 511 CURVE SMOOTH",
"302 511 OFFCURVE",
"293 514 OFFCURVE",
"286 518 CURVE",
"279 514 OFFCURVE",
"270 511 OFFCURVE",
"261 511 CURVE SMOOTH",
"257 511 OFFCURVE",
"253 512 OFFCURVE",
"249 513 CURVE",
"245 512 OFFCURVE",
"240 511 OFFCURVE",
"236 511 CURVE SMOOTH",
"227 511 OFFCURVE",
"218 514 OFFCURVE",
"211 518 CURVE",
"204 514 OFFCURVE",
"195 511 OFFCURVE",
"186 511 CURVE SMOOTH",
"182 511 OFFCURVE",
"178 512 OFFCURVE",
"174 513 CURVE",
"170 512 OFFCURVE",
"165 511 OFFCURVE",
"161 511 CURVE SMOOTH",
"152 511 OFFCURVE",
"143 514 OFFCURVE",
"136 518 CURVE",
"129 514 OFFCURVE",
"120 511 OFFCURVE",
"111 511 CURVE SMOOTH",
"107 511 OFFCURVE",
"103 511 OFFCURVE",
"99 512 CURVE",
"113 503 OFFCURVE",
"122 488 OFFCURVE",
"122 471 CURVE SMOOTH",
"122 451 OFFCURVE",
"111 435 OFFCURVE",
"94 427 CURVE",
"111 419 OFFCURVE",
"122 402 OFFCURVE",
"122 382 CURVE SMOOTH",
"122 362 OFFCURVE",
"111 346 OFFCURVE",
"94 338 CURVE",
"111 330 OFFCURVE",
"122 313 OFFCURVE",
"122 293 CURVE SMOOTH",
"122 273 OFFCURVE",
"111 257 OFFCURVE",
"94 249 CURVE",
"111 241 OFFCURVE",
"122 224 OFFCURVE",
"122 204 CURVE SMOOTH",
"122 184 OFFCURVE",
"111 168 OFFCURVE",
"94 160 CURVE",
"111 152 OFFCURVE",
"122 136 OFFCURVE",
"122 116 CURVE SMOOTH",
"122 99 OFFCURVE",
"113 83 OFFCURVE",
"99 74 CURVE",
"103 75 OFFCURVE",
"107 76 OFFCURVE",
"111 76 CURVE SMOOTH",
"120 76 OFFCURVE",
"129 73 OFFCURVE",
"136 69 CURVE",
"143 73 OFFCURVE",
"152 76 OFFCURVE",
"161 76 CURVE SMOOTH",
"165 76 OFFCURVE",
"170 75 OFFCURVE",
"174 74 CURVE",
"178 75 OFFCURVE",
"182 76 OFFCURVE",
"186 76 CURVE SMOOTH",
"195 76 OFFCURVE",
"204 73 OFFCURVE",
"211 69 CURVE",
"218 73 OFFCURVE",
"227 76 OFFCURVE",
"236 76 CURVE SMOOTH",
"240 76 OFFCURVE",
"245 75 OFFCURVE",
"249 74 CURVE",
"253 75 OFFCURVE",
"257 76 OFFCURVE",
"261 76 CURVE SMOOTH",
"270 76 OFFCURVE",
"279 73 OFFCURVE",
"286 69 CURVE",
"293 73 OFFCURVE",
"302 76 OFFCURVE",
"311 76 CURVE SMOOTH",
"315 76 OFFCURVE",
"319 75 OFFCURVE",
"323 74 CURVE",
"309 83 OFFCURVE",
"300 99 OFFCURVE",
"300 116 CURVE SMOOTH",
"300 143 OFFCURVE",
"322 164 OFFCURVE",
"349 164 CURVE SMOOTH",
"353 164 OFFCURVE",
"357 164 OFFCURVE",
"361 163 CURVE",
"365 164 OFFCURVE",
"369 164 OFFCURVE",
"373 164 CURVE SMOOTH",
"400 164 OFFCURVE",
"422 143 OFFCURVE",
"422 116 CURVE SMOOTH",
"422 89 OFFCURVE",
"400 67 OFFCURVE",
"373 67 CURVE SMOOTH",
"369 67 OFFCURVE",
"366 67 OFFCURVE",
"362 68 CURVE",
"376 59 OFFCURVE",
"385 44 OFFCURVE",
"385 27 CURVE SMOOTH",
"385 0 OFFCURVE",
"363 -22 OFFCURVE",
"336 -22 CURVE SMOOTH",
"332 -22 OFFCURVE",
"328 -22 OFFCURVE",
"324 -21 CURVE",
"320 -22 OFFCURVE",
"315 -22 OFFCURVE",
"311 -22 CURVE SMOOTH",
"302 -22 OFFCURVE",
"293 -19 OFFCURVE",
"286 -15 CURVE",
"279 -19 OFFCURVE",
"270 -22 OFFCURVE",
"261 -22 CURVE SMOOTH",
"257 -22 OFFCURVE",
"253 -22 OFFCURVE",
"249 -21 CURVE",
"245 -22 OFFCURVE",
"240 -22 OFFCURVE",
"236 -22 CURVE SMOOTH",
"227 -22 OFFCURVE",
"218 -19 OFFCURVE",
"211 -15 CURVE",
"204 -19 OFFCURVE",
"195 -22 OFFCURVE",
"186 -22 CURVE SMOOTH",
"182 -22 OFFCURVE",
"178 -22 OFFCURVE",
"174 -21 CURVE",
"170 -22 OFFCURVE",
"165 -22 OFFCURVE",
"161 -22 CURVE SMOOTH",
"152 -22 OFFCURVE",
"143 -19 OFFCURVE",
"136 -15 CURVE",
"129 -19 OFFCURVE",
"120 -22 OFFCURVE",
"111 -22 CURVE SMOOTH",
"107 -22 OFFCURVE",
"103 -22 OFFCURVE",
"99 -21 CURVE",
"95 -22 OFFCURVE",
"90 -22 OFFCURVE",
"86 -22 CURVE SMOOTH",
"59 -22 OFFCURVE",
"37 0 OFFCURVE",
"37 27 CURVE SMOOTH",
"37 44 OFFCURVE",
"46 59 OFFCURVE",
"60 68 CURVE",
"56 67 OFFCURVE",
"53 67 OFFCURVE",
"49 67 CURVE SMOOTH",
"22 67 OFFCURVE",
"0 89 OFFCURVE",
"0 116 CURVE SMOOTH",
"0 136 OFFCURVE",
"12 152 OFFCURVE",
"29 160 CURVE",
"12 168 OFFCURVE",
"0 184 OFFCURVE",
"0 204 CURVE SMOOTH",
"0 224 OFFCURVE",
"12 241 OFFCURVE",
"29 249 CURVE",
"12 257 OFFCURVE",
"0 273 OFFCURVE",
"0 293 CURVE SMOOTH",
"0 313 OFFCURVE",
"12 330 OFFCURVE",
"29 338 CURVE",
"12 346 OFFCURVE",
"0 362 OFFCURVE",
"0 382 CURVE SMOOTH",
"0 402 OFFCURVE",
"12 419 OFFCURVE",
"29 427 CURVE",
"12 435 OFFCURVE",
"0 451 OFFCURVE",
"0 471 CURVE SMOOTH",
"0 498 OFFCURVE",
"22 520 OFFCURVE",
"49 520 CURVE SMOOTH",
"53 520 OFFCURVE",
"56 520 OFFCURVE",
"60 519 CURVE",
"46 528 OFFCURVE",
"37 543 OFFCURVE",
"37 560 CURVE SMOOTH",
"37 587 OFFCURVE",
"59 609 OFFCURVE",
"86 609 CURVE SMOOTH",
"90 609 OFFCURVE",
"95 608 OFFCURVE",
"99 607 CURVE",
"103 608 OFFCURVE",
"107 609 OFFCURVE",
"111 609 CURVE SMOOTH",
"120 609 OFFCURVE",
"129 606 OFFCURVE",
"136 602 CURVE",
"143 606 OFFCURVE",
"152 609 OFFCURVE",
"161 609 CURVE SMOOTH",
"165 609 OFFCURVE",
"170 608 OFFCURVE",
"174 607 CURVE",
"178 608 OFFCURVE",
"182 609 OFFCURVE",
"186 609 CURVE SMOOTH",
"195 609 OFFCURVE",
"204 606 OFFCURVE",
"211 602 CURVE",
"218 606 OFFCURVE",
"227 609 OFFCURVE",
"236 609 CURVE SMOOTH",
"240 609 OFFCURVE",
"245 608 OFFCURVE",
"249 607 CURVE",
"253 608 OFFCURVE",
"257 609 OFFCURVE",
"261 609 CURVE SMOOTH",
"270 609 OFFCURVE",
"279 606 OFFCURVE",
"286 602 CURVE",
"293 606 OFFCURVE",
"302 609 OFFCURVE",
"311 609 CURVE SMOOTH",
"315 609 OFFCURVE",
"320 608 OFFCURVE",
"324 607 CURVE",
"328 608 OFFCURVE",
"332 609 OFFCURVE",
"336 609 CURVE SMOOTH",
"363 609 OFFCURVE",
"385 587 OFFCURVE"
);
}
);
width = 450;
}
);
unicode = 0043;
userData = {
com.fontlab.hintData = {
hhints = (
{
position = -22;
width = 98;
},
{
position = 67;
width = 97;
},
{
position = 422;
width = 98;
},
{
position = 511;
width = 98;
}
);
vhints = (
{
position = 0;
width = 122;
},
{
position = 300;
width = 122;
}
);
};
};
},
{
glyphname = D;
lastChange = "2017-08-06 04:48:21 +0000";
layers = (
{
layerId = "9B45E214-161D-4B81-AEB6-0B387D0DDEE2";
paths = (
{
closed = 1;
nodes = (
"347 560 CURVE SMOOTH",
"347 543 OFFCURVE",
"338 528 OFFCURVE",
"324 519 CURVE",
"328 520 OFFCURVE",
"332 520 OFFCURVE",
"336 520 CURVE SMOOTH",
"363 520 OFFCURVE",
"385 498 OFFCURVE",
"385 471 CURVE SMOOTH",
"385 454 OFFCURVE",
"376 439 OFFCURVE",
"362 430 CURVE",
"366 431 OFFCURVE",
"369 431 OFFCURVE",
"373 431 CURVE SMOOTH",
"400 431 OFFCURVE",
"422 409 OFFCURVE",
"422 382 CURVE SMOOTH",
"422 362 OFFCURVE",
"411 346 OFFCURVE",
"394 338 CURVE",
"411 330 OFFCURVE",
"422 313 OFFCURVE",
"422 293 CURVE SMOOTH",
"422 273 OFFCURVE",
"411 257 OFFCURVE",
"394 249 CURVE",
"411 241 OFFCURVE",
"422 224 OFFCURVE",
"422 204 CURVE SMOOTH",
"422 177 OFFCURVE",
"400 156 OFFCURVE",
"373 156 CURVE SMOOTH",
"369 156 OFFCURVE",
"366 156 OFFCURVE",
"362 157 CURVE",
"376 148 OFFCURVE",
"385 133 OFFCURVE",
"385 116 CURVE SMOOTH",
"385 89 OFFCURVE",
"363 67 OFFCURVE",
"336 67 CURVE SMOOTH",
"332 67 OFFCURVE",
"328 67 OFFCURVE",
"324 68 CURVE",
"338 59 OFFCURVE",
"347 44 OFFCURVE",
"347 27 CURVE SMOOTH",
"347 0 OFFCURVE",
"325 -22 OFFCURVE",
"298 -22 CURVE SMOOTH",
"294 -22 OFFCURVE",
"290 -22 OFFCURVE",
"286 -21 CURVE",
"282 -22 OFFCURVE",
"278 -22 OFFCURVE",
"274 -22 CURVE SMOOTH",
"265 -22 OFFCURVE",
"256 -19 OFFCURVE",
"249 -15 CURVE",
"242 -19 OFFCURVE",
"232 -22 OFFCURVE",
"223 -22 CURVE SMOOTH",
"219 -22 OFFCURVE",
"215 -22 OFFCURVE",
"211 -21 CURVE",
"207 -22 OFFCURVE",
"203 -22 OFFCURVE",
"199 -22 CURVE SMOOTH",
"190 -22 OFFCURVE",
"181 -19 OFFCURVE",
"174 -15 CURVE",
"167 -19 OFFCURVE",
"157 -22 OFFCURVE",
"148 -22 CURVE SMOOTH",
"144 -22 OFFCURVE",
"140 -22 OFFCURVE",
"136 -21 CURVE",
"132 -22 OFFCURVE",
"128 -22 OFFCURVE",
"124 -22 CURVE SMOOTH",
"115 -22 OFFCURVE",
"106 -19 OFFCURVE",
"99 -15 CURVE",
"92 -19 OFFCURVE",
"82 -22 OFFCURVE",
"73 -22 CURVE SMOOTH",
"69 -22 OFFCURVE",
"65 -22 OFFCURVE",
"61 -21 CURVE",
"57 -22 OFFCURVE",
"53 -22 OFFCURVE",
"49 -22 CURVE SMOOTH",
"22 -22 OFFCURVE",
"0 0 OFFCURVE",
"0 27 CURVE SMOOTH",
"0 54 OFFCURVE",
"22 76 OFFCURVE",
"49 76 CURVE SMOOTH",
"53 76 OFFCURVE",
"56 75 OFFCURVE",
"60 74 CURVE",
"46 83 OFFCURVE",
"37 99 OFFCURVE",
"37 116 CURVE SMOOTH",
"37 136 OFFCURVE",
"49 152 OFFCURVE",
"66 160 CURVE",
"49 168 OFFCURVE",
"37 184 OFFCURVE",
"37 204 CURVE SMOOTH",
"37 224 OFFCURVE",
"49 241 OFFCURVE",
"66 249 CURVE",
"49 257 OFFCURVE",
"37 273 OFFCURVE",
"37 293 CURVE SMOOTH",
"37 313 OFFCURVE",
"49 330 OFFCURVE",
"66 338 CURVE",
"49 346 OFFCURVE",
"37 362 OFFCURVE",
"37 382 CURVE SMOOTH",
"37 402 OFFCURVE",
"49 419 OFFCURVE",
"66 427 CURVE",
"49 435 OFFCURVE",
"37 451 OFFCURVE",
"37 471 CURVE SMOOTH",
"37 488 OFFCURVE",
"46 503 OFFCURVE",
"60 512 CURVE",
"56 511 OFFCURVE",
"53 511 OFFCURVE",
"49 511 CURVE SMOOTH",
"22 511 OFFCURVE",
"0 533 OFFCURVE",
"0 560 CURVE SMOOTH",
"0 587 OFFCURVE",
"22 609 OFFCURVE",
"49 609 CURVE SMOOTH",
"53 609 OFFCURVE",
"57 608 OFFCURVE",
"61 607 CURVE",
"65 608 OFFCURVE",
"69 609 OFFCURVE",
"73 609 CURVE SMOOTH",
"82 609 OFFCURVE",
"92 606 OFFCURVE",
"99 602 CURVE",
"106 606 OFFCURVE",
"115 609 OFFCURVE",
"124 609 CURVE SMOOTH",
"128 609 OFFCURVE",
"132 608 OFFCURVE",
"136 607 CURVE",
"140 608 OFFCURVE",
"144 609 OFFCURVE",
"148 609 CURVE SMOOTH",
"157 609 OFFCURVE",
"167 606 OFFCURVE",
"174 602 CURVE",
"181 606 OFFCURVE",
"190 609 OFFCURVE",
"199 609 CURVE SMOOTH",
"203 609 OFFCURVE",
"207 608 OFFCURVE",
"211 607 CURVE",
"215 608 OFFCURVE",
"219 609 OFFCURVE",
"223 609 CURVE SMOOTH",
"232 609 OFFCURVE",
"242 606 OFFCURVE",
"249 602 CURVE",
"256 606 OFFCURVE",
"265 609 OFFCURVE",
"274 609 CURVE SMOOTH",
"278 609 OFFCURVE",
"282 608 OFFCURVE",
"286 607 CURVE",
"290 608 OFFCURVE",
"294 609 OFFCURVE",
"298 609 CURVE SMOOTH",
"325 609 OFFCURVE",
"347 587 OFFCURVE"
);
},
{
closed = 1;
nodes = (
"174 518 CURVE",
"167 514 OFFCURVE",
"157 511 OFFCURVE",
"148 511 CURVE SMOOTH",
"144 511 OFFCURVE",
"141 511 OFFCURVE",
"137 512 CURVE",
"151 503 OFFCURVE",
"160 488 OFFCURVE",
"160 471 CURVE SMOOTH",
"160 451 OFFCURVE",
"148 435 OFFCURVE",
"131 427 CURVE",
"148 419 OFFCURVE",
"160 402 OFFCURVE",
"160 382 CURVE SMOOTH",
"160 362 OFFCURVE",
"148 346 OFFCURVE",
"131 338 CURVE",
"148 330 OFFCURVE",
"160 313 OFFCURVE",
"160 293 CURVE SMOOTH",
"160 273 OFFCURVE",
"148 257 OFFCURVE",
"131 249 CURVE",
"148 241 OFFCURVE",
"160 224 OFFCURVE",
"160 204 CURVE SMOOTH",
"160 184 OFFCURVE",
"148 168 OFFCURVE",
"131 160 CURVE",
"148 152 OFFCURVE",
"160 136 OFFCURVE",
"160 116 CURVE SMOOTH",
"160 99 OFFCURVE",
"151 83 OFFCURVE",
"137 74 CURVE",
"141 75 OFFCURVE",
"144 76 OFFCURVE",
"148 76 CURVE SMOOTH",
"157 76 OFFCURVE",
"167 73 OFFCURVE",
"174 69 CURVE",
"181 73 OFFCURVE",
"190 76 OFFCURVE",
"199 76 CURVE SMOOTH",
"203 76 OFFCURVE",
"207 75 OFFCURVE",
"211 74 CURVE",
"215 75 OFFCURVE",
"219 76 OFFCURVE",
"223 76 CURVE SMOOTH",
"232 76 OFFCURVE",
"242 73 OFFCURVE",
"249 69 CURVE",
"256 73 OFFCURVE",
"265 76 OFFCURVE",
"274 76 CURVE SMOOTH",
"278 76 OFFCURVE",
"281 75 OFFCURVE",
"285 74 CURVE",
"271 83 OFFCURVE",
"262 99 OFFCURVE",
"262 116 CURVE SMOOTH",
"262 143 OFFCURVE",
"284 164 OFFCURVE",
"311 164 CURVE SMOOTH",
"315 164 OFFCURVE",
"319 164 OFFCURVE",
"323 163 CURVE",
"309 172 OFFCURVE",
"300 187 OFFCURVE",
"300 204 CURVE SMOOTH",
"300 224 OFFCURVE",
"312 241 OFFCURVE",
"329 249 CURVE",
"312 257 OFFCURVE",
"300 273 OFFCURVE",
"300 293 CURVE SMOOTH",
"300 313 OFFCURVE",
"312 330 OFFCURVE",
"329 338 CURVE",
"312 346 OFFCURVE",
"300 362 OFFCURVE",
"300 382 CURVE SMOOTH",
"300 399 OFFCURVE",
"309 415 OFFCURVE",
"323 424 CURVE",
"319 423 OFFCURVE",
"315 422 OFFCURVE",
"311 422 CURVE SMOOTH",
"284 422 OFFCURVE",
"262 444 OFFCURVE",
"262 471 CURVE SMOOTH",
"262 488 OFFCURVE",
"271 503 OFFCURVE",
"285 512 CURVE",
"281 511 OFFCURVE",
"278 511 OFFCURVE",
"274 511 CURVE SMOOTH",
"265 511 OFFCURVE",
"256 514 OFFCURVE",
"249 518 CURVE",
"242 514 OFFCURVE",
"232 511 OFFCURVE",
"223 511 CURVE SMOOTH",
"219 511 OFFCURVE",
"215 512 OFFCURVE",
"211 513 CURVE",
"207 512 OFFCURVE",
"203 511 OFFCURVE",
"199 511 CURVE SMOOTH",
"190 511 OFFCURVE",
"181 514 OFFCURVE"
);
}
);
width = 450;
}
);
unicode = 0044;
userData = {
com.fontlab.hintData = {
hhints = (
{
position = -22;
width = 98;
},
{
position = 411;
width = 20;
},
{
position = 511;
width = 98;
}
);
vhints = (
{
position = 37;
width = 123;
},
{
position = 262;
width = 123;
},
{
position = 300;
width = 122;
}
);
};
};
},
{
glyphname = E;
lastChange = "2017-08-06 04:48:21 +0000";
layers = (
{
layerId = "9B45E214-161D-4B81-AEB6-0B387D0DDEE2";
paths = (
{
closed = 1;
nodes = (
"422 560 CURVE SMOOTH",
"422 533 OFFCURVE",
"400 511 OFFCURVE",
"373 511 CURVE SMOOTH",
"369 511 OFFCURVE",
"365 512 OFFCURVE",
"361 513 CURVE",
"357 512 OFFCURVE",
"353 511 OFFCURVE",
"349 511 CURVE SMOOTH",
"340 511 OFFCURVE",
"331 514 OFFCURVE",
"324 518 CURVE",
"317 514 OFFCURVE",
"307 511 OFFCURVE",
"298 511 CURVE SMOOTH",
"294 511 OFFCURVE",
"290 512 OFFCURVE",
"286 513 CURVE",
"282 512 OFFCURVE",
"278 511 OFFCURVE",
"274 511 CURVE SMOOTH",
"265 511 OFFCURVE",
"256 514 OFFCURVE",
"249 518 CURVE",
"242 514 OFFCURVE",
"232 511 OFFCURVE",
"223 511 CURVE SMOOTH",
"219 511 OFFCURVE",
"215 512 OFFCURVE",
"211 513 CURVE",
"207 512 OFFCURVE",
"203 511 OFFCURVE",
"199 511 CURVE SMOOTH",
"190 511 OFFCURVE",
"181 514 OFFCURVE",
"174 518 CURVE",
"167 514 OFFCURVE",
"157 511 OFFCURVE",
"148 511 CURVE SMOOTH",
"144 511 OFFCURVE",
"140 512 OFFCURVE",
"136 513 CURVE",
"132 512 OFFCURVE",
"128 511 OFFCURVE",
"124 511 CURVE SMOOTH",
"115 511 OFFCURVE",
"106 514 OFFCURVE",
"99 518 CURVE",
"97 517 OFFCURVE",
"96 517 OFFCURVE",
"94 516 CURVE",
"111 508 OFFCURVE",
"122 491 OFFCURVE",
"122 471 CURVE SMOOTH",
"122 451 OFFCURVE",
"111 435 OFFCURVE",
"94 427 CURVE",
"111 419 OFFCURVE",
"122 402 OFFCURVE",
"122 382 CURVE SMOOTH",
"122 362 OFFCURVE",
"111 346 OFFCURVE",
"94 338 CURVE",
"96 337 OFFCURVE",
"97 336 OFFCURVE",
"99 335 CURVE",
"106 339 OFFCURVE",
"115 342 OFFCURVE",
"124 342 CURVE SMOOTH",
"128 342 OFFCURVE",
"132 342 OFFCURVE",
"136 341 CURVE",
"140 342 OFFCURVE",
"144 342 OFFCURVE",
"148 342 CURVE SMOOTH",
"157 342 OFFCURVE",
"167 339 OFFCURVE",
"174 335 CURVE",
"181 339 OFFCURVE",
"190 342 OFFCURVE",
"199 342 CURVE SMOOTH",
"203 342 OFFCURVE",
"207 342 OFFCURVE",
"211 341 CURVE",
"215 342 OFFCURVE",
"219 342 OFFCURVE",
"223 342 CURVE SMOOTH",
"232 342 OFFCURVE",
"242 339 OFFCURVE",
"249 335 CURVE",
"256 339 OFFCURVE",
"265 342 OFFCURVE",
"274 342 CURVE SMOOTH",
"278 342 OFFCURVE",
"282 342 OFFCURVE",
"286 341 CURVE",
"290 342 OFFCURVE",
"294 342 OFFCURVE",
"298 342 CURVE SMOOTH",
"325 342 OFFCURVE",
"347 320 OFFCURVE",
"347 293 CURVE SMOOTH",
"347 266 OFFCURVE",
"325 244 OFFCURVE",
"298 244 CURVE SMOOTH",
"294 244 OFFCURVE",
"290 245 OFFCURVE",
"286 246 CURVE",
"282 245 OFFCURVE",
"278 244 OFFCURVE",
"274 244 CURVE SMOOTH",
"265 244 OFFCURVE",
"256 247 OFFCURVE",
"249 251 CURVE",
"242 247 OFFCURVE",
"232 244 OFFCURVE",
"223 244 CURVE SMOOTH",
"219 244 OFFCURVE",
"215 245 OFFCURVE",
"211 246 CURVE",
"207 245 OFFCURVE",
"203 244 OFFCURVE",
"199 244 CURVE SMOOTH",
"190 244 OFFCURVE",
"181 247 OFFCURVE",
"174 251 CURVE",
"167 247 OFFCURVE",
"157 244 OFFCURVE",
"148 244 CURVE SMOOTH",
"144 244 OFFCURVE",
"140 245 OFFCURVE",
"136 246 CURVE",
"132 245 OFFCURVE",
"128 244 OFFCURVE",
"124 244 CURVE SMOOTH",
"115 244 OFFCURVE",
"106 247 OFFCURVE",
"99 251 CURVE",
"97 250 OFFCURVE",
"96 250 OFFCURVE",
"94 249 CURVE",
"111 241 OFFCURVE",
"122 224 OFFCURVE",
"122 204 CURVE SMOOTH",
"122 184 OFFCURVE",
"111 168 OFFCURVE",
"94 160 CURVE",
"111 152 OFFCURVE",
"122 136 OFFCURVE",
"122 116 CURVE SMOOTH",
"122 96 OFFCURVE",
"111 79 OFFCURVE",
"94 71 CURVE",
"96 70 OFFCURVE",
"97 70 OFFCURVE",
"99 69 CURVE",
"106 73 OFFCURVE",
"115 76 OFFCURVE",
"124 76 CURVE SMOOTH",
"128 76 OFFCURVE",
"132 75 OFFCURVE",
"136 74 CURVE",
"140 75 OFFCURVE",
"144 76 OFFCURVE",
"148 76 CURVE SMOOTH",
"157 76 OFFCURVE",
"167 73 OFFCURVE",
"174 69 CURVE",
"181 73 OFFCURVE",
"190 76 OFFCURVE",
"199 76 CURVE SMOOTH",
"203 76 OFFCURVE",
"207 75 OFFCURVE",
"211 74 CURVE",
"215 75 OFFCURVE",
"219 76 OFFCURVE",
"223 76 CURVE SMOOTH",
"232 76 OFFCURVE",
"242 73 OFFCURVE",
"249 69 CURVE",
"256 73 OFFCURVE",
"265 76 OFFCURVE",
"274 76 CURVE SMOOTH",
"278 76 OFFCURVE",
"282 75 OFFCURVE",
"286 74 CURVE",
"290 75 OFFCURVE",
"294 76 OFFCURVE",
"298 76 CURVE SMOOTH",
"307 76 OFFCURVE",
"317 73 OFFCURVE",
"324 69 CURVE",
"331 73 OFFCURVE",
"340 76 OFFCURVE",
"349 76 CURVE SMOOTH",
"353 76 OFFCURVE",
"357 75 OFFCURVE",
"361 74 CURVE",
"365 75 OFFCURVE",
"369 76 OFFCURVE",
"373 76 CURVE SMOOTH",
"400 76 OFFCURVE",
"422 54 OFFCURVE",
"422 27 CURVE SMOOTH",
"422 0 OFFCURVE",
"400 -22 OFFCURVE",
"373 -22 CURVE SMOOTH",
"369 -22 OFFCURVE",
"365 -22 OFFCURVE",
"361 -21 CURVE",
"357 -22 OFFCURVE",
"353 -22 OFFCURVE",
"349 -22 CURVE SMOOTH",
"340 -22 OFFCURVE",
"331 -19 OFFCURVE",
"324 -15 CURVE",
"317 -19 OFFCURVE",
"307 -22 OFFCURVE",
"298 -22 CURVE SMOOTH",
"294 -22 OFFCURVE",
"290 -22 OFFCURVE",
"286 -21 CURVE",
"282 -22 OFFCURVE",
"278 -22 OFFCURVE",
"274 -22 CURVE SMOOTH",
"265 -22 OFFCURVE",
"256 -19 OFFCURVE",
"249 -15 CURVE",
"242 -19 OFFCURVE",
"232 -22 OFFCURVE",
"223 -22 CURVE SMOOTH",
"219 -22 OFFCURVE",
"215 -22 OFFCURVE",
"211 -21 CURVE",
"207 -22 OFFCURVE",
"203 -22 OFFCURVE",
"199 -22 CURVE SMOOTH",
"190 -22 OFFCURVE",
"181 -19 OFFCURVE",
"174 -15 CURVE",
"167 -19 OFFCURVE",
"157 -22 OFFCURVE",
"148 -22 CURVE SMOOTH",
"144 -22 OFFCURVE",
"140 -22 OFFCURVE",
"136 -21 CURVE",
"132 -22 OFFCURVE",
"128 -22 OFFCURVE",
"124 -22 CURVE SMOOTH",
"115 -22 OFFCURVE",
"106 -19 OFFCURVE",
"99 -15 CURVE",
"92 -19 OFFCURVE",
"82 -22 OFFCURVE",
"73 -22 CURVE SMOOTH",
"69 -22 OFFCURVE",
"65 -22 OFFCURVE",
"61 -21 CURVE",
"57 -22 OFFCURVE",
"53 -22 OFFCURVE",
"49 -22 CURVE SMOOTH",
"22 -22 OFFCURVE",
"0 0 OFFCURVE",
"0 27 CURVE SMOOTH",
"0 47 OFFCURVE",
"12 63 OFFCURVE",
"29 71 CURVE",
"12 79 OFFCURVE",
"0 96 OFFCURVE",
"0 116 CURVE SMOOTH",
"0 136 OFFCURVE",
"12 152 OFFCURVE",
"29 160 CURVE",
"12 168 OFFCURVE",
"0 184 OFFCURVE",
"0 204 CURVE SMOOTH",
"0 224 OFFCURVE",
"12 241 OFFCURVE",
"29 249 CURVE",
"12 257 OFFCURVE",
"0 273 OFFCURVE",
"0 293 CURVE SMOOTH",
"0 313 OFFCURVE",
"12 330 OFFCURVE",
"29 338 CURVE",
"12 346 OFFCURVE",
"0 362 OFFCURVE",
"0 382 CURVE SMOOTH",
"0 402 OFFCURVE",
"12 419 OFFCURVE",
"29 427 CURVE",
"12 435 OFFCURVE",
"0 451 OFFCURVE",
"0 471 CURVE SMOOTH",
"0 491 OFFCURVE",
"12 508 OFFCURVE",
"29 516 CURVE",
"12 524 OFFCURVE",
"0 540 OFFCURVE",
"0 560 CURVE SMOOTH",
"0 587 OFFCURVE",
"22 609 OFFCURVE",
"49 609 CURVE SMOOTH",
"53 609 OFFCURVE",
"57 608 OFFCURVE",
"61 607 CURVE",
"65 608 OFFCURVE",
"69 609 OFFCURVE",
"73 609 CURVE SMOOTH",
"82 609 OFFCURVE",
"92 606 OFFCURVE",
"99 602 CURVE",
"106 606 OFFCURVE",
"115 609 OFFCURVE",
"124 609 CURVE SMOOTH",
"128 609 OFFCURVE",
"132 608 OFFCURVE",
"136 607 CURVE",
"140 608 OFFCURVE",
"144 609 OFFCURVE",
"148 609 CURVE SMOOTH",
"157 609 OFFCURVE",
"167 606 OFFCURVE",
"174 602 CURVE",
"181 606 OFFCURVE",
"190 609 OFFCURVE",
"199 609 CURVE SMOOTH",
"203 609 OFFCURVE",
"207 608 OFFCURVE",
"211 607 CURVE",
"215 608 OFFCURVE",
"219 609 OFFCURVE",
"223 609 CURVE SMOOTH",
"232 609 OFFCURVE",
"242 606 OFFCURVE",
"249 602 CURVE",
"256 606 OFFCURVE",
"265 609 OFFCURVE",
"274 609 CURVE SMOOTH",
"278 609 OFFCURVE",
"282 608 OFFCURVE",
"286 607 CURVE",
"290 608 OFFCURVE",
"294 609 OFFCURVE",
"298 609 CURVE SMOOTH",
"307 609 OFFCURVE",
"317 606 OFFCURVE",
"324 602 CURVE",
"331 606 OFFCURVE",
"340 609 OFFCURVE",
"349 609 CURVE SMOOTH",
"353 609 OFFCURVE",
"357 608 OFFCURVE",
"361 607 CURVE",
"365 608 OFFCURVE",
"369 609 OFFCURVE",
"373 609 CURVE SMOOTH",
"400 609 OFFCURVE",
"422 587 OFFCURVE"
);
}
);
width = 450;
}
);
unicode = 0045;
userData = {
com.fontlab.hintData = {
hhints = (
{
position = -22;
width = 98;
},
{
position = 244;
width = 98;
},
{
position = 511;
width = 98;
}
);
vhints = (
{
position = 0;
width = 122;
}
);
};
};
},
{
glyphname = F;
lastChange = "2017-08-06 04:48:21 +0000";
layers = (
{
layerId = "9B45E214-161D-4B81-AEB6-0B387D0DDEE2";
paths = (
{
closed = 1;
nodes = (
"422 560 CURVE SMOOTH",
"422 533 OFFCURVE",
"400 511 OFFCURVE",
"373 511 CURVE SMOOTH",
"369 511 OFFCURVE",
"365 512 OFFCURVE",
"361 513 CURVE",
"357 512 OFFCURVE",
"353 511 OFFCURVE",
"349 511 CURVE SMOOTH",
"340 511 OFFCURVE",
"331 514 OFFCURVE",
"324 518 CURVE",
"317 514 OFFCURVE",
"307 511 OFFCURVE",
"298 511 CURVE SMOOTH",
"294 511 OFFCURVE",
"290 512 OFFCURVE",
"286 513 CURVE",
"282 512 OFFCURVE",
"278 511 OFFCURVE",
"274 511 CURVE SMOOTH",
"265 511 OFFCURVE",
"256 514 OFFCURVE",
"249 518 CURVE",
"242 514 OFFCURVE",
"232 511 OFFCURVE",
"223 511 CURVE SMOOTH",
"219 511 OFFCURVE",
"215 512 OFFCURVE",
"211 513 CURVE",
"207 512 OFFCURVE",
"203 511 OFFCURVE",
"199 511 CURVE SMOOTH",
"190 511 OFFCURVE",
"181 514 OFFCURVE",
"174 518 CURVE",
"167 514 OFFCURVE",
"157 511 OFFCURVE",
"148 511 CURVE SMOOTH",
"144 511 OFFCURVE",
"140 512 OFFCURVE",
"136 513 CURVE",
"132 512 OFFCURVE",
"128 511 OFFCURVE",
"124 511 CURVE SMOOTH",
"115 511 OFFCURVE",
"106 514 OFFCURVE",
"99 518 CURVE",
"97 517 OFFCURVE",
"96 517 OFFCURVE",
"94 516 CURVE",
"111 508 OFFCURVE",
"122 491 OFFCURVE",
"122 471 CURVE SMOOTH",
"122 451 OFFCURVE",
"111 435 OFFCURVE",
"94 427 CURVE",
"111 419 OFFCURVE",
"122 402 OFFCURVE",
"122 382 CURVE SMOOTH",
"122 362 OFFCURVE",
"111 346 OFFCURVE",
"94 338 CURVE",
"96 337 OFFCURVE",
"97 336 OFFCURVE",
"99 335 CURVE",
"106 339 OFFCURVE",
"115 342 OFFCURVE",
"124 342 CURVE SMOOTH",
"128 342 OFFCURVE",
"132 342 OFFCURVE",
"136 341 CURVE",
"140 342 OFFCURVE",
"144 342 OFFCURVE",
"148 342 CURVE SMOOTH",
"157 342 OFFCURVE",
"167 339 OFFCURVE",
"174 335 CURVE",
"181 339 OFFCURVE",
"190 342 OFFCURVE",
"199 342 CURVE SMOOTH",
"203 342 OFFCURVE",
"207 342 OFFCURVE",
"211 341 CURVE",
"215 342 OFFCURVE",
"219 342 OFFCURVE",
"223 342 CURVE SMOOTH",
"232 342 OFFCURVE",
"242 339 OFFCURVE",
"249 335 CURVE",
"256 339 OFFCURVE",
"265 342 OFFCURVE",
"274 342 CURVE SMOOTH",
"278 342 OFFCURVE",
"282 342 OFFCURVE",
"286 341 CURVE",
"290 342 OFFCURVE",
"294 342 OFFCURVE",
"298 342 CURVE SMOOTH",
"325 342 OFFCURVE",
"347 320 OFFCURVE",
"347 293 CURVE SMOOTH",
"347 266 OFFCURVE",
"325 244 OFFCURVE",
"298 244 CURVE SMOOTH",
"294 244 OFFCURVE",
"290 245 OFFCURVE",
"286 246 CURVE",
"282 245 OFFCURVE",
"278 244 OFFCURVE",
"274 244 CURVE SMOOTH",
"265 244 OFFCURVE",
"256 247 OFFCURVE",
"249 251 CURVE",
"242 247 OFFCURVE",
"232 244 OFFCURVE",
"223 244 CURVE SMOOTH",
"219 244 OFFCURVE",
"215 245 OFFCURVE",
"211 246 CURVE",
"207 245 OFFCURVE",
"203 244 OFFCURVE",
"199 244 CURVE SMOOTH",
"190 244 OFFCURVE",
"181 247 OFFCURVE",
"174 251 CURVE",
"167 247 OFFCURVE",
"157 244 OFFCURVE",
"148 244 CURVE SMOOTH",
"144 244 OFFCURVE",
"140 245 OFFCURVE",
"136 246 CURVE",
"132 245 OFFCURVE",
"128 244 OFFCURVE",
"124 244 CURVE SMOOTH",
"115 244 OFFCURVE",
"106 247 OFFCURVE",
"99 251 CURVE",
"97 250 OFFCURVE",
"96 250 OFFCURVE",
"94 249 CURVE",
"111 241 OFFCURVE",
"122 224 OFFCURVE",
"122 204 CURVE SMOOTH",
"122 184 OFFCURVE",
"111 168 OFFCURVE",
"94 160 CURVE",
"111 152 OFFCURVE",
"122 136 OFFCURVE",
"122 116 CURVE SMOOTH",
"122 96 OFFCURVE",
"111 79 OFFCURVE",
"94 71 CURVE",
"111 63 OFFCURVE",
"122 47 OFFCURVE",
"122 27 CURVE SMOOTH",
"122 0 OFFCURVE",
"100 -22 OFFCURVE",
"73 -22 CURVE SMOOTH",
"69 -22 OFFCURVE",
"65 -22 OFFCURVE",
"61 -21 CURVE",
"57 -22 OFFCURVE",
"53 -22 OFFCURVE",
"49 -22 CURVE SMOOTH",
"22 -22 OFFCURVE",
"0 0 OFFCURVE",
"0 27 CURVE SMOOTH",
"0 47 OFFCURVE",
"12 63 OFFCURVE",
"29 71 CURVE",
"12 79 OFFCURVE",
"0 96 OFFCURVE",
"0 116 CURVE SMOOTH",
"0 136 OFFCURVE",
"12 152 OFFCURVE",
"29 160 CURVE",
"12 168 OFFCURVE",
"0 184 OFFCURVE",
"0 204 CURVE SMOOTH",
"0 224 OFFCURVE",
"12 241 OFFCURVE",
"29 249 CURVE",
"12 257 OFFCURVE",
"0 273 OFFCURVE",
"0 293 CURVE SMOOTH",
"0 313 OFFCURVE",
"12 330 OFFCURVE",
"29 338 CURVE",
"12 346 OFFCURVE",
"0 362 OFFCURVE",
"0 382 CURVE SMOOTH",
"0 402 OFFCURVE",
"12 419 OFFCURVE",
"29 427 CURVE",
"12 435 OFFCURVE",
"0 451 OFFCURVE",
"0 471 CURVE SMOOTH",
"0 491 OFFCURVE",
"12 508 OFFCURVE",
"29 516 CURVE",
"12 524 OFFCURVE",
"0 540 OFFCURVE",
"0 560 CURVE SMOOTH",
"0 587 OFFCURVE",
"22 609 OFFCURVE",
"49 609 CURVE SMOOTH",
"53 609 OFFCURVE",
"57 608 OFFCURVE",
"61 607 CURVE",
"65 608 OFFCURVE",
"69 609 OFFCURVE",
"73 609 CURVE SMOOTH",
"82 609 OFFCURVE",
"92 606 OFFCURVE",
"99 602 CURVE",
"106 606 OFFCURVE",
"115 609 OFFCURVE",
"124 609 CURVE SMOOTH",
"128 609 OFFCURVE",
"132 608 OFFCURVE",
"136 607 CURVE",
"140 608 OFFCURVE",
"144 609 OFFCURVE",
"148 609 CURVE SMOOTH",
"157 609 OFFCURVE",
"167 606 OFFCURVE",
"174 602 CURVE",
"181 606 OFFCURVE",
"190 609 OFFCURVE",
"199 609 CURVE SMOOTH",
"203 609 OFFCURVE",
"207 608 OFFCURVE",
"211 607 CURVE",
"215 608 OFFCURVE",
"219 609 OFFCURVE",
"223 609 CURVE SMOOTH",
"232 609 OFFCURVE",
"242 606 OFFCURVE",
"249 602 CURVE",
"256 606 OFFCURVE",
"265 609 OFFCURVE",
"274 609 CURVE SMOOTH",
"278 609 OFFCURVE",
"282 608 OFFCURVE",
"286 607 CURVE",
"290 608 OFFCURVE",
"294 609 OFFCURVE",
"298 609 CURVE SMOOTH",
"307 609 OFFCURVE",
"317 606 OFFCURVE",
"324 602 CURVE",
"331 606 OFFCURVE",
"340 609 OFFCURVE",
"349 609 CURVE SMOOTH",
"353 609 OFFCURVE",
"357 608 OFFCURVE",
"361 607 CURVE",
"365 608 OFFCURVE",
"369 609 OFFCURVE",
"373 609 CURVE SMOOTH",
"400 609 OFFCURVE",
"422 587 OFFCURVE"
);
}
);
width = 450;
}
);
unicode = 0046;
userData = {
com.fontlab.hintData = {
hhints = (
{
position = -22;
width = 21;
},
{
position = -22;
width = 21;
},
{
position = 244;
width = 98;
},
{
position = 511;
width = 98;
}
);
vhints = (
{
position = 0;
width = 122;
}
);
};
};
},
{
glyphname = G;
lastChange = "2017-08-06 04:48:21 +0000";
layers = (
{
layerId = "9B45E214-161D-4B81-AEB6-0B387D0DDEE2";
paths = (
{
closed = 1;
nodes = (
"385 560 CURVE SMOOTH",
"385 543 OFFCURVE",
"376 528 OFFCURVE",
"362 519 CURVE",
"366 520 OFFCURVE",
"369 520 OFFCURVE",
"373 520 CURVE SMOOTH",
"400 520 OFFCURVE",
"422 498 OFFCURVE",
"422 471 CURVE SMOOTH",
"422 444 OFFCURVE",
"400 422 OFFCURVE",
"373 422 CURVE SMOOTH",
"369 422 OFFCURVE",
"365 423 OFFCURVE",
"361 424 CURVE",
"357 423 OFFCURVE",
"353 422 OFFCURVE",
"349 422 CURVE SMOOTH",
"322 422 OFFCURVE",
"300 444 OFFCURVE",
"300 471 CURVE SMOOTH",
"300 488 OFFCURVE",
"309 503 OFFCURVE",
"323 512 CURVE",
"319 511 OFFCURVE",
"315 511 OFFCURVE",
"311 511 CURVE SMOOTH",
"302 511 OFFCURVE",
"293 514 OFFCURVE",
"286 518 CURVE",
"279 514 OFFCURVE",
"270 511 OFFCURVE",
"261 511 CURVE SMOOTH",
"257 511 OFFCURVE",
"253 512 OFFCURVE",
"249 513 CURVE",
"245 512 OFFCURVE",
"240 511 OFFCURVE",
"236 511 CURVE SMOOTH",
"227 511 OFFCURVE",
"218 514 OFFCURVE",
"211 518 CURVE",
"204 514 OFFCURVE",
"195 511 OFFCURVE",
"186 511 CURVE SMOOTH",
"182 511 OFFCURVE",
"178 512 OFFCURVE",
"174 513 CURVE",
"170 512 OFFCURVE",
"165 511 OFFCURVE",
"161 511 CURVE SMOOTH",
"152 511 OFFCURVE",
"143 514 OFFCURVE",
"136 518 CURVE",
"129 514 OFFCURVE",
"120 511 OFFCURVE",
"111 511 CURVE SMOOTH",
"107 511 OFFCURVE",
"103 511 OFFCURVE",
"99 512 CURVE",
"113 503 OFFCURVE",
"122 488 OFFCURVE",
"122 471 CURVE SMOOTH",
"122 451 OFFCURVE",
"111 435 OFFCURVE",
"94 427 CURVE",
"111 419 OFFCURVE",
"122 402 OFFCURVE",
"122 382 CURVE SMOOTH",
"122 362 OFFCURVE",
"111 346 OFFCURVE",
"94 338 CURVE",
"111 330 OFFCURVE",
"122 313 OFFCURVE",
"122 293 CURVE SMOOTH",
"122 273 OFFCURVE",
"111 257 OFFCURVE",
"94 249 CURVE",
"111 241 OFFCURVE",
"122 224 OFFCURVE",
"122 204 CURVE SMOOTH",
"122 184 OFFCURVE",
"111 168 OFFCURVE",
"94 160 CURVE",
"111 152 OFFCURVE",
"122 136 OFFCURVE",
"122 116 CURVE SMOOTH",
"122 99 OFFCURVE",
"113 83 OFFCURVE",
"99 74 CURVE",
"103 75 OFFCURVE",
"107 76 OFFCURVE",
"111 76 CURVE SMOOTH",
"120 76 OFFCURVE",
"129 73 OFFCURVE",
"136 69 CURVE",
"143 73 OFFCURVE",
"152 76 OFFCURVE",
"161 76 CURVE SMOOTH",
"165 76 OFFCURVE",
"170 75 OFFCURVE",
"174 74 CURVE",
"178 75 OFFCURVE",
"182 76 OFFCURVE",
"186 76 CURVE SMOOTH",
"195 76 OFFCURVE",
"204 73 OFFCURVE",
"211 69 CURVE",
"218 73 OFFCURVE",
"227 76 OFFCURVE",
"236 76 CURVE SMOOTH",
"240 76 OFFCURVE",
"245 75 OFFCURVE",
"249 74 CURVE",
"253 75 OFFCURVE",
"257 76 OFFCURVE",
"261 76 CURVE SMOOTH",
"270 76 OFFCURVE",
"279 73 OFFCURVE",
"286 69 CURVE",
"293 73 OFFCURVE",
"302 76 OFFCURVE",
"311 76 CURVE SMOOTH",
"315 76 OFFCURVE",
"319 75 OFFCURVE",
"323 74 CURVE",
"309 83 OFFCURVE",
"300 99 OFFCURVE",
"300 116 CURVE SMOOTH",
"300 136 OFFCURVE",
"312 152 OFFCURVE",
"329 160 CURVE",
"312 168 OFFCURVE",
"300 184 OFFCURVE",
"300 204 CURVE SMOOTH",
"300 224 OFFCURVE",
"312 241 OFFCURVE",
"329 249 CURVE",
"327 250 OFFCURVE",
"326 250 OFFCURVE",
"324 251 CURVE",
"317 247 OFFCURVE",
"307 244 OFFCURVE",
"298 244 CURVE SMOOTH",
"294 244 OFFCURVE",
"290 245 OFFCURVE",
"286 246 CURVE",
"282 245 OFFCURVE",
"278 244 OFFCURVE",
"274 244 CURVE SMOOTH",
"265 244 OFFCURVE",
"256 247 OFFCURVE",
"249 251 CURVE",
"242 247 OFFCURVE",
"232 244 OFFCURVE",
"223 244 CURVE SMOOTH",
"219 244 OFFCURVE",
"215 245 OFFCURVE",
"211 246 CURVE",
"207 245 OFFCURVE",
"203 244 OFFCURVE",
"199 244 CURVE SMOOTH",
"172 244 OFFCURVE",
"150 266 OFFCURVE",
"150 293 CURVE SMOOTH",
"150 320 OFFCURVE",
"172 342 OFFCURVE",
"199 342 CURVE SMOOTH",
"203 342 OFFCURVE",
"207 342 OFFCURVE",
"211 341 CURVE",
"215 342 OFFCURVE",
"219 342 OFFCURVE",
"223 342 CURVE SMOOTH",
"232 342 OFFCURVE",
"242 339 OFFCURVE",
"249 335 CURVE",
"256 339 OFFCURVE",
"265 342 OFFCURVE",
"274 342 CURVE SMOOTH",
"278 342 OFFCURVE",
"282 342 OFFCURVE",
"286 341 CURVE",
"290 342 OFFCURVE",
"294 342 OFFCURVE",
"298 342 CURVE SMOOTH",
"307 342 OFFCURVE",
"317 339 OFFCURVE",
"324 335 CURVE",
"331 339 OFFCURVE",
"340 342 OFFCURVE",
"349 342 CURVE SMOOTH",
"353 342 OFFCURVE",
"357 342 OFFCURVE",
"361 341 CURVE",
"365 342 OFFCURVE",
"369 342 OFFCURVE",
"373 342 CURVE SMOOTH",
"400 342 OFFCURVE",
"422 320 OFFCURVE",
"422 293 CURVE SMOOTH",
"422 273 OFFCURVE",
"411 257 OFFCURVE",
"394 249 CURVE",
"411 241 OFFCURVE",
"422 224 OFFCURVE",
"422 204 CURVE SMOOTH",
"422 184 OFFCURVE",
"411 168 OFFCURVE",
"394 160 CURVE",
"411 152 OFFCURVE",
"422 136 OFFCURVE",
"422 116 CURVE SMOOTH",
"422 89 OFFCURVE",
"400 67 OFFCURVE",
"373 67 CURVE SMOOTH",
"369 67 OFFCURVE",
"366 67 OFFCURVE",
"362 68 CURVE",
"376 59 OFFCURVE",
"385 44 OFFCURVE",
"385 27 CURVE SMOOTH",
"385 0 OFFCURVE",
"363 -22 OFFCURVE",
"336 -22 CURVE SMOOTH",
"332 -22 OFFCURVE",
"328 -22 OFFCURVE",
"324 -21 CURVE",
"320 -22 OFFCURVE",
"315 -22 OFFCURVE",
"311 -22 CURVE SMOOTH",
"302 -22 OFFCURVE",
"293 -19 OFFCURVE",
"286 -15 CURVE",
"279 -19 OFFCURVE",
"270 -22 OFFCURVE",
"261 -22 CURVE SMOOTH",
"257 -22 OFFCURVE",
"253 -22 OFFCURVE",
"249 -21 CURVE",
"245 -22 OFFCURVE",
"240 -22 OFFCURVE",
"236 -22 CURVE SMOOTH",
"227 -22 OFFCURVE",
"218 -19 OFFCURVE",
"211 -15 CURVE",
"204 -19 OFFCURVE",
"195 -22 OFFCURVE",
"186 -22 CURVE SMOOTH",
"182 -22 OFFCURVE",
"178 -22 OFFCURVE",
"174 -21 CURVE",
"170 -22 OFFCURVE",
"165 -22 OFFCURVE",
"161 -22 CURVE SMOOTH",
"152 -22 OFFCURVE",
"143 -19 OFFCURVE",
"136 -15 CURVE",
"129 -19 OFFCURVE",
"120 -22 OFFCURVE",
"111 -22 CURVE SMOOTH",
"107 -22 OFFCURVE",
"103 -22 OFFCURVE",
"99 -21 CURVE",
"95 -22 OFFCURVE",
"90 -22 OFFCURVE",
"86 -22 CURVE SMOOTH",
"59 -22 OFFCURVE",
"37 0 OFFCURVE",
"37 27 CURVE SMOOTH",
"37 44 OFFCURVE",
"46 59 OFFCURVE",
"60 68 CURVE",
"56 67 OFFCURVE",
"53 67 OFFCURVE",
"49 67 CURVE SMOOTH",
"22 67 OFFCURVE",
"0 89 OFFCURVE",
"0 116 CURVE SMOOTH",
"0 136 OFFCURVE",
"12 152 OFFCURVE",
"29 160 CURVE",
"12 168 OFFCURVE",
"0 184 OFFCURVE",
"0 204 CURVE SMOOTH",
"0 224 OFFCURVE",
"12 241 OFFCURVE",
"29 249 CURVE",
"12 257 OFFCURVE",
"0 273 OFFCURVE",
"0 293 CURVE SMOOTH",
"0 313 OFFCURVE",
"12 330 OFFCURVE",
"29 338 CURVE",
"12 346 OFFCURVE",
"0 362 OFFCURVE",
"0 382 CURVE SMOOTH",
"0 402 OFFCURVE",
"12 419 OFFCURVE",
"29 427 CURVE",
"12 435 OFFCURVE",
"0 451 OFFCURVE",
"0 471 CURVE SMOOTH",
"0 498 OFFCURVE",
"22 520 OFFCURVE",
"49 520 CURVE SMOOTH",
"53 520 OFFCURVE",
"56 520 OFFCURVE",
"60 519 CURVE",
"46 528 OFFCURVE",
"37 543 OFFCURVE",
"37 560 CURVE SMOOTH",
"37 587 OFFCURVE",
"59 609 OFFCURVE",
"86 609 CURVE SMOOTH",
"90 609 OFFCURVE",
"95 608 OFFCURVE",
"99 607 CURVE",
"103 608 OFFCURVE",
"107 609 OFFCURVE",
"111 609 CURVE SMOOTH",
"120 609 OFFCURVE",
"129 606 OFFCURVE",
"136 602 CURVE",
"143 606 OFFCURVE",
"152 609 OFFCURVE",
"161 609 CURVE SMOOTH",
"165 609 OFFCURVE",
"170 608 OFFCURVE",
"174 607 CURVE",
"178 608 OFFCURVE",
"182 609 OFFCURVE",
"186 609 CURVE SMOOTH",
"195 609 OFFCURVE",
"204 606 OFFCURVE",
"211 602 CURVE",
"218 606 OFFCURVE",
"227 609 OFFCURVE",
"236 609 CURVE SMOOTH",
"240 609 OFFCURVE",
"245 608 OFFCURVE",
"249 607 CURVE",
"253 608 OFFCURVE",
"257 609 OFFCURVE",
"261 609 CURVE SMOOTH",
"270 609 OFFCURVE",
"279 606 OFFCURVE",
"286 602 CURVE",
"293 606 OFFCURVE",
"302 609 OFFCURVE",
"311 609 CURVE SMOOTH",
"315 609 OFFCURVE",
"320 608 OFFCURVE",
"324 607 CURVE",
"328 608 OFFCURVE",
"332 609 OFFCURVE",
"336 609 CURVE SMOOTH",
"363 609 OFFCURVE",
"385 587 OFFCURVE"
);
}
);
width = 450;
}
);
unicode = 0047;
userData = {
com.fontlab.hintData = {
hhints = (
{
position = -22;
width = 98;
},
{
position = 244;
width = 98;
},
{
position = 422;
width = 98;
},
{
position = 511;
width = 98;
}
);
vhints = (
{
position = 0;
width = 122;
},
{
position = 300;
width = 122;
}
);
};
};
},
{
glyphname = H;
lastChange = "2017-08-06 04:48:21 +0000";
layers = (
{
layerId = "9B45E214-161D-4B81-AEB6-0B387D0DDEE2";
paths = (
{
closed = 1;
nodes = (
"122 560 CURVE SMOOTH",
"122 540 OFFCURVE",
"111 524 OFFCURVE",
"94 516 CURVE",
"111 508 OFFCURVE",
"122 491 OFFCURVE",
"122 471 CURVE SMOOTH",
"122 451 OFFCURVE",
"111 435 OFFCURVE",
"94 427 CURVE",
"111 419 OFFCURVE",
"122 402 OFFCURVE",
"122 382 CURVE SMOOTH",
"122 362 OFFCURVE",
"111 346 OFFCURVE",
"94 338 CURVE",
"96 337 OFFCURVE",
"97 336 OFFCURVE",
"99 335 CURVE",
"106 339 OFFCURVE",
"115 342 OFFCURVE",
"124 342 CURVE SMOOTH",
"128 342 OFFCURVE",
"132 342 OFFCURVE",
"136 341 CURVE",
"140 342 OFFCURVE",
"144 342 OFFCURVE",
"148 342 CURVE SMOOTH",
"157 342 OFFCURVE",
"167 339 OFFCURVE",
"174 335 CURVE",
"181 339 OFFCURVE",
"190 342 OFFCURVE",
"199 342 CURVE SMOOTH",
"203 342 OFFCURVE",
"207 342 OFFCURVE",
"211 341 CURVE",
"215 342 OFFCURVE",
"219 342 OFFCURVE",
"223 342 CURVE SMOOTH",
"232 342 OFFCURVE",
"242 339 OFFCURVE",
"249 335 CURVE",
"256 339 OFFCURVE",
"265 342 OFFCURVE",
"274 342 CURVE SMOOTH",
"278 342 OFFCURVE",
"282 342 OFFCURVE",
"286 341 CURVE",
"290 342 OFFCURVE",
"294 342 OFFCURVE",
"298 342 CURVE SMOOTH",
"307 342 OFFCURVE",
"317 339 OFFCURVE",
"324 335 CURVE",
"326 336 OFFCURVE",
"327 337 OFFCURVE",
"329 338 CURVE",
"312 346 OFFCURVE",
"300 362 OFFCURVE",
"300 382 CURVE SMOOTH",
"300 402 OFFCURVE",
"312 419 OFFCURVE",
"329 427 CURVE",
"312 435 OFFCURVE",
"300 451 OFFCURVE",
"300 471 CURVE SMOOTH",
"300 491 OFFCURVE",
"312 508 OFFCURVE",
"329 516 CURVE",
"312 524 OFFCURVE",
"300 540 OFFCURVE",
"300 560 CURVE SMOOTH",
"300 587 OFFCURVE",
"322 609 OFFCURVE",
"349 609 CURVE SMOOTH",
"353 609 OFFCURVE",
"357 608 OFFCURVE",
"361 607 CURVE",
"365 608 OFFCURVE",
"369 609 OFFCURVE",
"373 609 CURVE SMOOTH",
"400 609 OFFCURVE",
"422 587 OFFCURVE",
"422 560 CURVE SMOOTH",
"422 540 OFFCURVE",
"411 524 OFFCURVE",
"394 516 CURVE",
"411 508 OFFCURVE",
"422 491 OFFCURVE",
"422 471 CURVE SMOOTH",
"422 451 OFFCURVE",
"411 435 OFFCURVE",
"394 427 CURVE",
"411 419 OFFCURVE",
"422 402 OFFCURVE",
"422 382 CURVE SMOOTH",
"422 362 OFFCURVE",
"411 346 OFFCURVE",
"394 338 CURVE",
"411 330 OFFCURVE",
"422 313 OFFCURVE",
"422 293 CURVE SMOOTH",
"422 273 OFFCURVE",
"411 257 OFFCURVE",
"394 249 CURVE",
"411 241 OFFCURVE",
"422 224 OFFCURVE",
"422 204 CURVE SMOOTH",
"422 184 OFFCURVE",
"411 168 OFFCURVE",
"394 160 CURVE",
"411 152 OFFCURVE",
"422 136 OFFCURVE",
"422 116 CURVE SMOOTH",
"422 96 OFFCURVE",
"411 79 OFFCURVE",
"394 71 CURVE",
"411 63 OFFCURVE",
"422 47 OFFCURVE",
"422 27 CURVE SMOOTH",
"422 0 OFFCURVE",
"400 -22 OFFCURVE",
"373 -22 CURVE SMOOTH",
"369 -22 OFFCURVE",
"365 -22 OFFCURVE",
"361 -21 CURVE",
"357 -22 OFFCURVE",
"353 -22 OFFCURVE",
"349 -22 CURVE SMOOTH",
"322 -22 OFFCURVE",
"300 0 OFFCURVE",
"300 27 CURVE SMOOTH",
"300 47 OFFCURVE",
"312 63 OFFCURVE",
"329 71 CURVE",
"312 79 OFFCURVE",
"300 96 OFFCURVE",
"300 116 CURVE SMOOTH",
"300 136 OFFCURVE",
"312 152 OFFCURVE",
"329 160 CURVE",
"312 168 OFFCURVE",
"300 184 OFFCURVE",
"300 204 CURVE SMOOTH",
"300 224 OFFCURVE",
"312 241 OFFCURVE",
"329 249 CURVE",
"327 250 OFFCURVE",
"326 250 OFFCURVE",
"324 251 CURVE",
"317 247 OFFCURVE",
"307 244 OFFCURVE",
"298 244 CURVE SMOOTH",
"294 244 OFFCURVE",
"290 245 OFFCURVE",
"286 246 CURVE",
"282 245 OFFCURVE",
"278 244 OFFCURVE",
"274 244 CURVE SMOOTH",
"265 244 OFFCURVE",
"256 247 OFFCURVE",
"249 251 CURVE",
"242 247 OFFCURVE",
"232 244 OFFCURVE",
"223 244 CURVE SMOOTH",
"219 244 OFFCURVE",
"215 245 OFFCURVE",
"211 246 CURVE",
"207 245 OFFCURVE",
"203 244 OFFCURVE",
"199 244 CURVE SMOOTH",
"190 244 OFFCURVE",
"181 247 OFFCURVE",
"174 251 CURVE",
"167 247 OFFCURVE",
"157 244 OFFCURVE",
"148 244 CURVE SMOOTH",
"144 244 OFFCURVE",
"140 245 OFFCURVE",
"136 246 CURVE",
"132 245 OFFCURVE",
"128 244 OFFCURVE",
"124 244 CURVE SMOOTH",
"115 244 OFFCURVE",
"106 247 OFFCURVE",
"99 251 CURVE",
"97 250 OFFCURVE",
"96 250 OFFCURVE",
"94 249 CURVE",
"111 241 OFFCURVE",
"122 224 OFFCURVE",
"122 204 CURVE SMOOTH",
"122 184 OFFCURVE",
"111 168 OFFCURVE",
"94 160 CURVE",
"111 152 OFFCURVE",
"122 136 OFFCURVE",
"122 116 CURVE SMOOTH",
"122 96 OFFCURVE",
"111 79 OFFCURVE",
"94 71 CURVE",
"111 63 OFFCURVE",
"122 47 OFFCURVE",
"122 27 CURVE SMOOTH",
"122 0 OFFCURVE",
"100 -22 OFFCURVE",
"73 -22 CURVE SMOOTH",
"69 -22 OFFCURVE",
"65 -22 OFFCURVE",
"61 -21 CURVE",
"57 -22 OFFCURVE",
"53 -22 OFFCURVE",
"49 -22 CURVE SMOOTH",
"22 -22 OFFCURVE",
"0 0 OFFCURVE",
"0 27 CURVE SMOOTH",
"0 47 OFFCURVE",
"12 63 OFFCURVE",
"29 71 CURVE",
"12 79 OFFCURVE",
"0 96 OFFCURVE",
"0 116 CURVE SMOOTH",
"0 136 OFFCURVE",
"12 152 OFFCURVE",
"29 160 CURVE",
"12 168 OFFCURVE",
"0 184 OFFCURVE",
"0 204 CURVE SMOOTH",
"0 224 OFFCURVE",
"12 241 OFFCURVE",
"29 249 CURVE",
"12 257 OFFCURVE",
"0 273 OFFCURVE",
"0 293 CURVE SMOOTH",
"0 313 OFFCURVE",
"12 330 OFFCURVE",
"29 338 CURVE",
"12 346 OFFCURVE",
"0 362 OFFCURVE",
"0 382 CURVE SMOOTH",
"0 402 OFFCURVE",
"12 419 OFFCURVE",
"29 427 CURVE",
"12 435 OFFCURVE",
"0 451 OFFCURVE",
"0 471 CURVE SMOOTH",
"0 491 OFFCURVE",
"12 508 OFFCURVE",
"29 516 CURVE",
"12 524 OFFCURVE",
"0 540 OFFCURVE",
"0 560 CURVE SMOOTH",
"0 587 OFFCURVE",
"22 609 OFFCURVE",
"49 609 CURVE SMOOTH",
"53 609 OFFCURVE",
"57 608 OFFCURVE",
"61 607 CURVE",
"65 608 OFFCURVE",
"69 609 OFFCURVE",
"73 609 CURVE SMOOTH",
"100 609 OFFCURVE",
"122 587 OFFCURVE"
);
}
);
width = 450;
}
);
unicode = 0048;
userData = {
com.fontlab.hintData = {
hhints = (
{
position = -22;
width = 21;
},
{
position = -22;
width = 21;
},
{
position = 244;
width = 98;
},
{
position = 589;
width = 20;
}
);
vhints = (
{
position = 0;
width = 122;
},
{
position = 300;
width = 122;
}
);
};
};
},
{
glyphname = I;
lastChange = "2017-08-06 04:48:21 +0000";
layers = (
{
layerId = "9B45E214-161D-4B81-AEB6-0B387D0DDEE2";
paths = (
{
closed = 1;
nodes = (
"347 560 CURVE SMOOTH",
"347 533 OFFCURVE",
"325 511 OFFCURVE",
"298 511 CURVE SMOOTH",
"294 511 OFFCURVE",
"290 512 OFFCURVE",
"286 513 CURVE",
"282 512 OFFCURVE",
"278 511 OFFCURVE",
"274 511 CURVE SMOOTH",
"265 511 OFFCURVE",
"256 514 OFFCURVE",
"249 518 CURVE",
"247 517 OFFCURVE",
"246 517 OFFCURVE",
"244 516 CURVE",
"261 508 OFFCURVE",
"272 491 OFFCURVE",
"272 471 CURVE SMOOTH",
"272 451 OFFCURVE",
"261 435 OFFCURVE",
"244 427 CURVE",
"261 419 OFFCURVE",
"272 402 OFFCURVE",
"272 382 CURVE SMOOTH",
"272 362 OFFCURVE",
"261 346 OFFCURVE",
"244 338 CURVE",
"261 330 OFFCURVE",
"272 313 OFFCURVE",
"272 293 CURVE SMOOTH",
"272 273 OFFCURVE",
"261 257 OFFCURVE",
"244 249 CURVE",
"261 241 OFFCURVE",
"272 224 OFFCURVE",
"272 204 CURVE SMOOTH",
"272 184 OFFCURVE",
"261 168 OFFCURVE",
"244 160 CURVE",
"261 152 OFFCURVE",
"272 136 OFFCURVE",
"272 116 CURVE SMOOTH",
"272 96 OFFCURVE",
"261 79 OFFCURVE",
"244 71 CURVE",
"246 70 OFFCURVE",
"247 70 OFFCURVE",
"249 69 CURVE",
"256 73 OFFCURVE",
"265 76 OFFCURVE",
"274 76 CURVE SMOOTH",
"278 76 OFFCURVE",
"282 75 OFFCURVE",
"286 74 CURVE",
"290 75 OFFCURVE",
"294 76 OFFCURVE",
"298 76 CURVE SMOOTH",
"325 76 OFFCURVE",
"347 54 OFFCURVE",
"347 27 CURVE SMOOTH",
"347 0 OFFCURVE",
"325 -22 OFFCURVE",
"298 -22 CURVE SMOOTH",
"294 -22 OFFCURVE",
"290 -22 OFFCURVE",
"286 -21 CURVE",
"282 -22 OFFCURVE",
"278 -22 OFFCURVE",
"274 -22 CURVE SMOOTH",
"265 -22 OFFCURVE",
"256 -19 OFFCURVE",
"249 -15 CURVE",
"242 -19 OFFCURVE",
"232 -22 OFFCURVE",
"223 -22 CURVE SMOOTH",
"219 -22 OFFCURVE",
"215 -22 OFFCURVE",
"211 -21 CURVE",
"207 -22 OFFCURVE",
"203 -22 OFFCURVE",
"199 -22 CURVE SMOOTH",
"190 -22 OFFCURVE",
"181 -19 OFFCURVE",
"174 -15 CURVE",
"167 -19 OFFCURVE",
"157 -22 OFFCURVE",
"148 -22 CURVE SMOOTH",
"144 -22 OFFCURVE",
"140 -22 OFFCURVE",
"136 -21 CURVE",
"132 -22 OFFCURVE",
"128 -22 OFFCURVE",
"124 -22 CURVE SMOOTH",
"97 -22 OFFCURVE",
"75 0 OFFCURVE",
"75 27 CURVE SMOOTH",
"75 54 OFFCURVE",
"97 76 OFFCURVE",
"124 76 CURVE SMOOTH",
"128 76 OFFCURVE",
"132 75 OFFCURVE",
"136 74 CURVE",
"140 75 OFFCURVE",
"144 76 OFFCURVE",
"148 76 CURVE SMOOTH",
"157 76 OFFCURVE",
"167 73 OFFCURVE",
"174 69 CURVE",
"176 70 OFFCURVE",
"177 70 OFFCURVE",
"179 71 CURVE",
"162 79 OFFCURVE",
"150 96 OFFCURVE",
"150 116 CURVE SMOOTH",
"150 136 OFFCURVE",
"162 152 OFFCURVE",
"179 160 CURVE",
"162 168 OFFCURVE",
"150 184 OFFCURVE",
"150 204 CURVE SMOOTH",
"150 224 OFFCURVE",
"162 241 OFFCURVE",
"179 249 CURVE",
"162 257 OFFCURVE",
"150 273 OFFCURVE",
"150 293 CURVE SMOOTH",
"150 313 OFFCURVE",
"162 330 OFFCURVE",
"179 338 CURVE",
"162 346 OFFCURVE",
"150 362 OFFCURVE",
"150 382 CURVE SMOOTH",
"150 402 OFFCURVE",
"162 419 OFFCURVE",
"179 427 CURVE",
"162 435 OFFCURVE",
"150 451 OFFCURVE",
"150 471 CURVE SMOOTH",
"150 491 OFFCURVE",
"162 508 OFFCURVE",
"179 516 CURVE",
"177 517 OFFCURVE",
"176 517 OFFCURVE",
"174 518 CURVE",
"167 514 OFFCURVE",
"157 511 OFFCURVE",
"148 511 CURVE SMOOTH",
"144 511 OFFCURVE",
"140 512 OFFCURVE",
"136 513 CURVE",
"132 512 OFFCURVE",
"128 511 OFFCURVE",
"124 511 CURVE SMOOTH",
"97 511 OFFCURVE",
"75 533 OFFCURVE",
"75 560 CURVE SMOOTH",
"75 587 OFFCURVE",
"97 609 OFFCURVE",
"124 609 CURVE SMOOTH",
"128 609 OFFCURVE",
"132 608 OFFCURVE",
"136 607 CURVE",
"140 608 OFFCURVE",
"144 609 OFFCURVE",
"148 609 CURVE SMOOTH",
"157 609 OFFCURVE",
"167 606 OFFCURVE",
"174 602 CURVE",
"181 606 OFFCURVE",
"190 609 OFFCURVE",
"199 609 CURVE SMOOTH",
"203 609 OFFCURVE",
"207 608 OFFCURVE",
"211 607 CURVE",
"215 608 OFFCURVE",
"219 609 OFFCURVE",
"223 609 CURVE SMOOTH",
"232 609 OFFCURVE",
"242 606 OFFCURVE",
"249 602 CURVE",
"256 606 OFFCURVE",
"265 609 OFFCURVE",
"274 609 CURVE SMOOTH",
"278 609 OFFCURVE",
"282 608 OFFCURVE",
"286 607 CURVE",
"290 608 OFFCURVE",
"294 609 OFFCURVE",
"298 609 CURVE SMOOTH",
"325 609 OFFCURVE",
"347 587 OFFCURVE"
);
}
);
width = 450;
}
);
unicode = 0049;
userData = {
com.fontlab.hintData = {
hhints = (
{
position = -22;
width = 98;
},
{
position = 511;
width = 98;
}
);
vhints = (
{
position = 150;
width = 122;
}
);
};
};
},
{
glyphname = J;
lastChange = "2017-08-06 04:48:21 +0000";
layers = (
{
layerId = "9B45E214-161D-4B81-AEB6-0B387D0DDEE2";
paths = (
{
closed = 1;
nodes = (
"385 560 CURVE SMOOTH",
"385 533 OFFCURVE",
"363 511 OFFCURVE",
"336 511 CURVE SMOOTH",
"332 511 OFFCURVE",
"328 511 OFFCURVE",
"324 512 CURVE",
"338 503 OFFCURVE",
"347 488 OFFCURVE",
"347 471 CURVE SMOOTH",
"347 451 OFFCURVE",
"336 435 OFFCURVE",
"319 427 CURVE",
"336 419 OFFCURVE",
"347 402 OFFCURVE",
"347 382 CURVE SMOOTH",
"347 362 OFFCURVE",
"336 346 OFFCURVE",
"319 338 CURVE",
"336 330 OFFCURVE",
"347 313 OFFCURVE",
"347 293 CURVE SMOOTH",
"347 273 OFFCURVE",
"336 257 OFFCURVE",
"319 249 CURVE",
"336 241 OFFCURVE",
"347 224 OFFCURVE",
"347 204 CURVE SMOOTH",
"347 184 OFFCURVE",
"336 168 OFFCURVE",
"319 160 CURVE",
"336 152 OFFCURVE",
"347 136 OFFCURVE",
"347 116 CURVE SMOOTH",
"347 89 OFFCURVE",
"325 67 OFFCURVE",
"298 67 CURVE SMOOTH",
"294 67 OFFCURVE",
"291 67 OFFCURVE",
"287 68 CURVE",
"301 59 OFFCURVE",
"310 44 OFFCURVE",
"310 27 CURVE SMOOTH",
"310 0 OFFCURVE",
"288 -22 OFFCURVE",
"261 -22 CURVE SMOOTH",
"257 -22 OFFCURVE",
"253 -22 OFFCURVE",
"249 -21 CURVE",
"245 -22 OFFCURVE",
"240 -22 OFFCURVE",
"236 -22 CURVE SMOOTH",
"227 -22 OFFCURVE",
"218 -19 OFFCURVE",
"211 -15 CURVE",
"204 -19 OFFCURVE",
"195 -22 OFFCURVE",
"186 -22 CURVE SMOOTH",
"182 -22 OFFCURVE",
"178 -22 OFFCURVE",
"174 -21 CURVE",
"170 -22 OFFCURVE",
"165 -22 OFFCURVE",
"161 -22 CURVE SMOOTH",
"152 -22 OFFCURVE",
"143 -19 OFFCURVE",
"136 -15 CURVE",
"129 -19 OFFCURVE",
"120 -22 OFFCURVE",
"111 -22 CURVE SMOOTH",
"107 -22 OFFCURVE",
"103 -22 OFFCURVE",
"99 -21 CURVE",
"95 -22 OFFCURVE",
"90 -22 OFFCURVE",
"86 -22 CURVE SMOOTH",
"59 -22 OFFCURVE",
"37 0 OFFCURVE",
"37 27 CURVE SMOOTH",
"37 44 OFFCURVE",
"46 59 OFFCURVE",
"60 68 CURVE",
"56 67 OFFCURVE",
"53 67 OFFCURVE",
"49 67 CURVE SMOOTH",
"22 67 OFFCURVE",
"0 89 OFFCURVE",
"0 116 CURVE SMOOTH",
"0 143 OFFCURVE",
"22 164 OFFCURVE",
"49 164 CURVE SMOOTH",
"53 164 OFFCURVE",
"57 164 OFFCURVE",
"61 163 CURVE",
"65 164 OFFCURVE",
"69 164 OFFCURVE",
"73 164 CURVE SMOOTH",
"100 164 OFFCURVE",
"122 143 OFFCURVE",
"122 116 CURVE SMOOTH",
"122 99 OFFCURVE",
"113 83 OFFCURVE",
"99 74 CURVE",
"103 75 OFFCURVE",
"107 76 OFFCURVE",
"111 76 CURVE SMOOTH",
"120 76 OFFCURVE",
"129 73 OFFCURVE",
"136 69 CURVE",
"143 73 OFFCURVE",
"152 76 OFFCURVE",
"161 76 CURVE SMOOTH",
"165 76 OFFCURVE",
"170 75 OFFCURVE",
"174 74 CURVE",
"178 75 OFFCURVE",
"182 76 OFFCURVE",
"186 76 CURVE SMOOTH",
"195 76 OFFCURVE",
"204 73 OFFCURVE",
"211 69 CURVE",
"218 73 OFFCURVE",
"227 76 OFFCURVE",
"236 76 CURVE SMOOTH",
"240 76 OFFCURVE",
"244 75 OFFCURVE",
"248 74 CURVE",
"234 83 OFFCURVE",
"225 99 OFFCURVE",
"225 116 CURVE SMOOTH",
"225 136 OFFCURVE",
"237 152 OFFCURVE",
"254 160 CURVE",
"237 168 OFFCURVE",
"225 184 OFFCURVE",
"225 204 CURVE SMOOTH",
"225 224 OFFCURVE",
"237 241 OFFCURVE",
"254 249 CURVE",
"237 257 OFFCURVE",
"225 273 OFFCURVE",
"225 293 CURVE SMOOTH",
"225 313 OFFCURVE",
"237 330 OFFCURVE",
"254 338 CURVE",
"237 346 OFFCURVE",
"225 362 OFFCURVE",
"225 382 CURVE SMOOTH",
"225 402 OFFCURVE",
"237 419 OFFCURVE",
"254 427 CURVE",
"237 435 OFFCURVE",
"225 451 OFFCURVE",
"225 471 CURVE SMOOTH",
"225 488 OFFCURVE",
"234 503 OFFCURVE",
"248 512 CURVE",
"244 511 OFFCURVE",
"240 511 OFFCURVE",
"236 511 CURVE SMOOTH",
"227 511 OFFCURVE",
"218 514 OFFCURVE",
"211 518 CURVE",
"204 514 OFFCURVE",
"195 511 OFFCURVE",
"186 511 CURVE SMOOTH",
"182 511 OFFCURVE",
"178 512 OFFCURVE",
"174 513 CURVE",
"170 512 OFFCURVE",
"165 511 OFFCURVE",
"161 511 CURVE SMOOTH",
"134 511 OFFCURVE",
"112 533 OFFCURVE",
"112 560 CURVE SMOOTH",
"112 587 OFFCURVE",
"134 609 OFFCURVE",
"161 609 CURVE SMOOTH",
"165 609 OFFCURVE",
"170 608 OFFCURVE",
"174 607 CURVE",
"178 608 OFFCURVE",
"182 609 OFFCURVE",
"186 609 CURVE SMOOTH",
"195 609 OFFCURVE",
"204 606 OFFCURVE",
"211 602 CURVE",
"218 606 OFFCURVE",
"227 609 OFFCURVE",
"236 609 CURVE SMOOTH",
"240 609 OFFCURVE",
"245 608 OFFCURVE",
"249 607 CURVE",
"253 608 OFFCURVE",
"257 609 OFFCURVE",
"261 609 CURVE SMOOTH",
"270 609 OFFCURVE",
"279 606 OFFCURVE",
"286 602 CURVE",
"293 606 OFFCURVE",
"302 609 OFFCURVE",
"311 609 CURVE SMOOTH",
"315 609 OFFCURVE",
"320 608 OFFCURVE",
"324 607 CURVE",
"328 608 OFFCURVE",
"332 609 OFFCURVE",
"336 609 CURVE SMOOTH",
"363 609 OFFCURVE",
"385 587 OFFCURVE"
);
}
);
width = 450;
}
);
unicode = 004A;
userData = {
com.fontlab.hintData = {
hhints = (
{
position = -22;
width = 98;
},
{
position = 67;
width = 97;
},
{
position = 511;
width = 98;
}
);
vhints = (
{
position = 0;
width = 122;
},
{
position = 37;
width = 273;
},
{
position = 112;
width = 273;
},
{
position = 225;
width = 122;
}
);
};
};
},
{
glyphname = K;
lastChange = "2017-08-06 04:48:21 +0000";
layers = (
{
layerId = "9B45E214-161D-4B81-AEB6-0B387D0DDEE2";
paths = (
{
closed = 1;
nodes = (
"122 560 CURVE SMOOTH",
"122 540 OFFCURVE",
"111 524 OFFCURVE",
"94 516 CURVE",
"111 508 OFFCURVE",
"122 491 OFFCURVE",
"122 471 CURVE SMOOTH",
"122 451 OFFCURVE",
"111 435 OFFCURVE",
"94 427 CURVE",
"111 419 OFFCURVE",
"122 402 OFFCURVE",
"122 382 CURVE SMOOTH",
"122 362 OFFCURVE",
"111 346 OFFCURVE",
"94 338 CURVE",
"96 337 OFFCURVE",
"97 336 OFFCURVE",
"99 335 CURVE",
"106 339 OFFCURVE",
"115 342 OFFCURVE",
"124 342 CURVE SMOOTH",
"128 342 OFFCURVE",
"132 342 OFFCURVE",
"136 341 CURVE",
"140 342 OFFCURVE",
"144 342 OFFCURVE",
"148 342 CURVE SMOOTH",
"175 342 OFFCURVE",
"197 320 OFFCURVE",
"197 293 CURVE SMOOTH",
"197 266 OFFCURVE",
"175 244 OFFCURVE",
"148 244 CURVE SMOOTH",
"144 244 OFFCURVE",
"140 245 OFFCURVE",
"136 246 CURVE",
"132 245 OFFCURVE",
"128 244 OFFCURVE",
"124 244 CURVE SMOOTH",
"115 244 OFFCURVE",
"106 247 OFFCURVE",
"99 251 CURVE",
"97 250 OFFCURVE",
"96 250 OFFCURVE",
"94 249 CURVE",
"111 241 OFFCURVE",
"122 224 OFFCURVE",
"122 204 CURVE SMOOTH",
"122 184 OFFCURVE",
"111 168 OFFCURVE",
"94 160 CURVE",
"111 152 OFFCURVE",
"122 136 OFFCURVE",
"122 116 CURVE SMOOTH",
"122 96 OFFCURVE",
"111 79 OFFCURVE",
"94 71 CURVE",
"111 63 OFFCURVE",
"122 47 OFFCURVE",
"122 27 CURVE SMOOTH",
"122 0 OFFCURVE",
"100 -22 OFFCURVE",
"73 -22 CURVE SMOOTH",
"69 -22 OFFCURVE",
"65 -22 OFFCURVE",
"61 -21 CURVE",
"57 -22 OFFCURVE",
"53 -22 OFFCURVE",
"49 -22 CURVE SMOOTH",
"22 -22 OFFCURVE",
"0 0 OFFCURVE",
"0 27 CURVE SMOOTH",
"0 47 OFFCURVE",
"12 63 OFFCURVE",
"29 71 CURVE",
"12 79 OFFCURVE",
"0 96 OFFCURVE",
"0 116 CURVE SMOOTH",
"0 136 OFFCURVE",
"12 152 OFFCURVE",
"29 160 CURVE",
"12 168 OFFCURVE",
"0 184 OFFCURVE",
"0 204 CURVE SMOOTH",
"0 224 OFFCURVE",
"12 241 OFFCURVE",
"29 249 CURVE",
"12 257 OFFCURVE",
"0 273 OFFCURVE",
"0 293 CURVE SMOOTH",
"0 313 OFFCURVE",
"12 330 OFFCURVE",
"29 338 CURVE",
"12 346 OFFCURVE",
"0 362 OFFCURVE",
"0 382 CURVE SMOOTH",
"0 402 OFFCURVE",
"12 419 OFFCURVE",
"29 427 CURVE",
"12 435 OFFCURVE",
"0 451 OFFCURVE",
"0 471 CURVE SMOOTH",
"0 491 OFFCURVE",
"12 508 OFFCURVE",
"29 516 CURVE",
"12 524 OFFCURVE",
"0 540 OFFCURVE",
"0 560 CURVE SMOOTH",
"0 587 OFFCURVE",
"22 609 OFFCURVE",
"49 609 CURVE SMOOTH",
"53 609 OFFCURVE",
"57 608 OFFCURVE",
"61 607 CURVE",
"65 608 OFFCURVE",
"69 609 OFFCURVE",
"73 609 CURVE SMOOTH",
"100 609 OFFCURVE",
"122 587 OFFCURVE"
);
},
{
closed = 1;
nodes = (
"422 560 CURVE SMOOTH",
"422 533 OFFCURVE",
"400 511 OFFCURVE",
"373 511 CURVE SMOOTH",
"369 511 OFFCURVE",
"365 512 OFFCURVE",
"361 513 CURVE",
"357 512 OFFCURVE",
"353 511 OFFCURVE",
"349 511 CURVE SMOOTH",
"322 511 OFFCURVE",
"300 533 OFFCURVE",
"300 560 CURVE SMOOTH",
"300 587 OFFCURVE",
"322 609 OFFCURVE",
"349 609 CURVE SMOOTH",
"353 609 OFFCURVE",
"357 608 OFFCURVE",
"361 607 CURVE",
"365 608 OFFCURVE",
"369 609 OFFCURVE",
"373 609 CURVE SMOOTH",
"400 609 OFFCURVE",
"422 587 OFFCURVE"
);
},
{
closed = 1;
nodes = (
"347 471 CURVE SMOOTH",
"347 444 OFFCURVE",
"325 422 OFFCURVE",
"298 422 CURVE SMOOTH",
"294 422 OFFCURVE",
"290 423 OFFCURVE",
"286 424 CURVE",
"282 423 OFFCURVE",
"278 422 OFFCURVE",
"274 422 CURVE SMOOTH",
"247 422 OFFCURVE",
"225 444 OFFCURVE",
"225 471 CURVE SMOOTH",
"225 498 OFFCURVE",
"247 520 OFFCURVE",
"274 520 CURVE SMOOTH",
"278 520 OFFCURVE",
"282 519 OFFCURVE",
"286 518 CURVE",
"290 519 OFFCURVE",
"294 520 OFFCURVE",
"298 520 CURVE SMOOTH",
"325 520 OFFCURVE",
"347 498 OFFCURVE"
);
},
{
closed = 1;
nodes = (
"272 382 CURVE SMOOTH",
"272 355 OFFCURVE",
"250 333 OFFCURVE",
"223 333 CURVE SMOOTH",
"219 333 OFFCURVE",
"215 334 OFFCURVE",
"211 335 CURVE",
"207 334 OFFCURVE",
"203 333 OFFCURVE",
"199 333 CURVE SMOOTH",
"172 333 OFFCURVE",
"150 355 OFFCURVE",
"150 382 CURVE SMOOTH",
"150 409 OFFCURVE",
"172 431 OFFCURVE",
"199 431 CURVE SMOOTH",
"203 431 OFFCURVE",
"207 431 OFFCURVE",
"211 430 CURVE",
"215 431 OFFCURVE",
"219 431 OFFCURVE",
"223 431 CURVE SMOOTH",
"250 431 OFFCURVE",
"272 409 OFFCURVE"
);
},
{
closed = 1;
nodes = (
"272 204 CURVE SMOOTH",
"272 177 OFFCURVE",
"250 156 OFFCURVE",
"223 156 CURVE SMOOTH",
"219 156 OFFCURVE",
"215 156 OFFCURVE",
"211 157 CURVE",
"207 156 OFFCURVE",
"203 156 OFFCURVE",
"199 156 CURVE SMOOTH",
"172 156 OFFCURVE",
"150 177 OFFCURVE",
"150 204 CURVE SMOOTH",
"150 231 OFFCURVE",
"172 253 OFFCURVE",
"199 253 CURVE SMOOTH",
"203 253 OFFCURVE",
"207 253 OFFCURVE",
"211 252 CURVE",
"215 253 OFFCURVE",
"219 253 OFFCURVE",
"223 253 CURVE SMOOTH",
"250 253 OFFCURVE",
"272 231 OFFCURVE"
);
},
{
closed = 1;
nodes = (
"347 116 CURVE SMOOTH",
"347 89 OFFCURVE",
"325 67 OFFCURVE",
"298 67 CURVE SMOOTH",
"294 67 OFFCURVE",
"290 67 OFFCURVE",
"286 68 CURVE",
"282 67 OFFCURVE",
"278 67 OFFCURVE",
"274 67 CURVE SMOOTH",
"247 67 OFFCURVE",
"225 89 OFFCURVE",
"225 116 CURVE SMOOTH",
"225 143 OFFCURVE",
"247 164 OFFCURVE",
"274 164 CURVE SMOOTH",
"278 164 OFFCURVE",
"282 164 OFFCURVE",
"286 163 CURVE",
"290 164 OFFCURVE",
"294 164 OFFCURVE",
"298 164 CURVE SMOOTH",
"325 164 OFFCURVE",
"347 143 OFFCURVE"
);
},
{
closed = 1;
nodes = (
"422 27 CURVE SMOOTH",
"422 0 OFFCURVE",
"400 -22 OFFCURVE",
"373 -22 CURVE SMOOTH",
"369 -22 OFFCURVE",
"365 -22 OFFCURVE",
"361 -21 CURVE",
"357 -22 OFFCURVE",
"353 -22 OFFCURVE",
"349 -22 CURVE SMOOTH",
"322 -22 OFFCURVE",
"300 0 OFFCURVE",
"300 27 CURVE SMOOTH",
"300 54 OFFCURVE",
"322 76 OFFCURVE",
"349 76 CURVE SMOOTH",
"353 76 OFFCURVE",
"357 75 OFFCURVE",
"361 74 CURVE",
"365 75 OFFCURVE",
"369 76 OFFCURVE",
"373 76 CURVE SMOOTH",
"400 76 OFFCURVE",
"422 54 OFFCURVE"
);
}
);
width = 450;
}
);
unicode = 004B;
userData = {
com.fontlab.hintData = {
hhints = (
{
position = -22;
width = 98;
},
{
position = 67;
width = 97;
},
{
position = 156;
width = 97;
},
{
position = 244;
width = 98;
},
{
position = 333;
width = 98;
},
{
position = 422;
width = 98;
},
{
position = 511;
width = 98;
}
);
vhints = (
{
position = 0;
width = 122;
},
{
position = 150;
width = 122;
},
{
position = 225;
width = 122;
},
{
position = 300;
width = 122;
}
);
};
};
},
{
glyphname = L;
lastChange = "2017-08-06 04:48:21 +0000";
layers = (
{
layerId = "9B45E214-161D-4B81-AEB6-0B387D0DDEE2";
paths = (
{
closed = 1;
nodes = (
"122 560 CURVE SMOOTH",
"122 540 OFFCURVE",
"111 524 OFFCURVE",
"94 516 CURVE",
"111 508 OFFCURVE",
"122 491 OFFCURVE",
"122 471 CURVE SMOOTH",
"122 451 OFFCURVE",
"111 435 OFFCURVE",
"94 427 CURVE",
"111 419 OFFCURVE",
"122 402 OFFCURVE",
"122 382 CURVE SMOOTH",
"122 362 OFFCURVE",
"111 346 OFFCURVE",
"94 338 CURVE",
"111 330 OFFCURVE",
"122 313 OFFCURVE",
"122 293 CURVE SMOOTH",
"122 273 OFFCURVE",
"111 257 OFFCURVE",
"94 249 CURVE",
"111 241 OFFCURVE",
"122 224 OFFCURVE",
"122 204 CURVE SMOOTH",
"122 184 OFFCURVE",
"111 168 OFFCURVE",
"94 160 CURVE",
"111 152 OFFCURVE",
"122 136 OFFCURVE",
"122 116 CURVE SMOOTH",
"122 96 OFFCURVE",
"111 79 OFFCURVE",
"94 71 CURVE",
"96 70 OFFCURVE",
"97 70 OFFCURVE",
"99 69 CURVE",
"106 73 OFFCURVE",
"115 76 OFFCURVE",
"124 76 CURVE SMOOTH",
"128 76 OFFCURVE",
"132 75 OFFCURVE",
"136 74 CURVE",
"140 75 OFFCURVE",
"144 76 OFFCURVE",
"148 76 CURVE SMOOTH",
"157 76 OFFCURVE",
"167 73 OFFCURVE",
"174 69 CURVE",
"181 73 OFFCURVE",
"190 76 OFFCURVE",
"199 76 CURVE SMOOTH",
"203 76 OFFCURVE",
"207 75 OFFCURVE",
"211 74 CURVE",
"215 75 OFFCURVE",
"219 76 OFFCURVE",
"223 76 CURVE SMOOTH",
"232 76 OFFCURVE",
"242 73 OFFCURVE",
"249 69 CURVE",
"256 73 OFFCURVE",
"265 76 OFFCURVE",
"274 76 CURVE SMOOTH",
"278 76 OFFCURVE",
"282 75 OFFCURVE",
"286 74 CURVE",
"290 75 OFFCURVE",
"294 76 OFFCURVE",
"298 76 CURVE SMOOTH",
"307 76 OFFCURVE",
"317 73 OFFCURVE",
"324 69 CURVE",
"331 73 OFFCURVE",
"340 76 OFFCURVE",
"349 76 CURVE SMOOTH",
"353 76 OFFCURVE",
"357 75 OFFCURVE",
"361 74 CURVE",
"365 75 OFFCURVE",
"369 76 OFFCURVE",
"373 76 CURVE SMOOTH",
"400 76 OFFCURVE",
"422 54 OFFCURVE",
"422 27 CURVE SMOOTH",
"422 0 OFFCURVE",
"400 -22 OFFCURVE",
"373 -22 CURVE SMOOTH",
"369 -22 OFFCURVE",
"365 -22 OFFCURVE",
"361 -21 CURVE",
"357 -22 OFFCURVE",
"353 -22 OFFCURVE",
"349 -22 CURVE SMOOTH",
"340 -22 OFFCURVE",
"331 -19 OFFCURVE",
"324 -15 CURVE",
"317 -19 OFFCURVE",
"307 -22 OFFCURVE",
"298 -22 CURVE SMOOTH",
"294 -22 OFFCURVE",
"290 -22 OFFCURVE",
"286 -21 CURVE",
"282 -22 OFFCURVE",
"278 -22 OFFCURVE",
"274 -22 CURVE SMOOTH",
"265 -22 OFFCURVE",
"256 -19 OFFCURVE",
"249 -15 CURVE",
"242 -19 OFFCURVE",
"232 -22 OFFCURVE",
"223 -22 CURVE SMOOTH",
"219 -22 OFFCURVE",
"215 -22 OFFCURVE",
"211 -21 CURVE",
"207 -22 OFFCURVE",
"203 -22 OFFCURVE",
"199 -22 CURVE SMOOTH",
"190 -22 OFFCURVE",
"181 -19 OFFCURVE",
"174 -15 CURVE",
"167 -19 OFFCURVE",
"157 -22 OFFCURVE",
"148 -22 CURVE SMOOTH",
"144 -22 OFFCURVE",
"140 -22 OFFCURVE",
"136 -21 CURVE",
"132 -22 OFFCURVE",
"128 -22 OFFCURVE",
"124 -22 CURVE SMOOTH",
"115 -22 OFFCURVE",
"106 -19 OFFCURVE",
"99 -15 CURVE",
"92 -19 OFFCURVE",
"82 -22 OFFCURVE",
"73 -22 CURVE SMOOTH",
"69 -22 OFFCURVE",
"65 -22 OFFCURVE",
"61 -21 CURVE",
"57 -22 OFFCURVE",
"53 -22 OFFCURVE",
"49 -22 CURVE SMOOTH",
"22 -22 OFFCURVE",
"0 0 OFFCURVE",
"0 27 CURVE SMOOTH",
"0 47 OFFCURVE",
"12 63 OFFCURVE",
"29 71 CURVE",
"12 79 OFFCURVE",
"0 96 OFFCURVE",
"0 116 CURVE SMOOTH",
"0 136 OFFCURVE",
"12 152 OFFCURVE",
"29 160 CURVE",
"12 168 OFFCURVE",
"0 184 OFFCURVE",
"0 204 CURVE SMOOTH",
"0 224 OFFCURVE",
"12 241 OFFCURVE",
"29 249 CURVE",
"12 257 OFFCURVE",
"0 273 OFFCURVE",
"0 293 CURVE SMOOTH",
"0 313 OFFCURVE",
"12 330 OFFCURVE",
"29 338 CURVE",
"12 346 OFFCURVE",
"0 362 OFFCURVE",
"0 382 CURVE SMOOTH",
"0 402 OFFCURVE",
"12 419 OFFCURVE",
"29 427 CURVE",
"12 435 OFFCURVE",
"0 451 OFFCURVE",
"0 471 CURVE SMOOTH",
"0 491 OFFCURVE",
"12 508 OFFCURVE",
"29 516 CURVE",
"12 524 OFFCURVE",
"0 540 OFFCURVE",
"0 560 CURVE SMOOTH",
"0 587 OFFCURVE",
"22 609 OFFCURVE",
"49 609 CURVE SMOOTH",
"53 609 OFFCURVE",
"57 608 OFFCURVE",
"61 607 CURVE",
"65 608 OFFCURVE",
"69 609 OFFCURVE",
"73 609 CURVE SMOOTH",
"100 609 OFFCURVE",
"122 587 OFFCURVE"
);
}
);
width = 450;
}
);
unicode = 004C;
userData = {
com.fontlab.hintData = {
hhints = (
{
position = -22;
width = 98;
},
{
position = 589;
width = 20;
}
);
vhints = (
{
position = 0;
width = 122;
}
);
};
};
},
{
glyphname = M;
lastChange = "2017-08-06 04:48:21 +0000";
layers = (
{
layerId = "9B45E214-161D-4B81-AEB6-0B387D0DDEE2";
paths = (
{
closed = 1;
nodes = (
"122 560 CURVE SMOOTH",
"122 540 OFFCURVE",
"111 524 OFFCURVE",
"94 516 CURVE",
"96 515 OFFCURVE",
"97 514 OFFCURVE",
"99 513 CURVE",
"106 517 OFFCURVE",
"115 520 OFFCURVE",
"124 520 CURVE SMOOTH",
"128 520 OFFCURVE",
"132 519 OFFCURVE",
"136 518 CURVE",
"140 519 OFFCURVE",
"144 520 OFFCURVE",
"148 520 CURVE SMOOTH",
"175 520 OFFCURVE",
"197 498 OFFCURVE",
"197 471 CURVE SMOOTH",
"197 454 OFFCURVE",
"188 439 OFFCURVE",
"174 430 CURVE",
"178 431 OFFCURVE",
"182 431 OFFCURVE",
"186 431 CURVE SMOOTH",
"195 431 OFFCURVE",
"204 428 OFFCURVE",
"211 424 CURVE",
"218 428 OFFCURVE",
"227 431 OFFCURVE",
"236 431 CURVE SMOOTH",
"240 431 OFFCURVE",
"244 431 OFFCURVE",
"248 430 CURVE",
"234 439 OFFCURVE",
"225 454 OFFCURVE",
"225 471 CURVE SMOOTH",
"225 498 OFFCURVE",
"247 520 OFFCURVE",
"274 520 CURVE SMOOTH",
"278 520 OFFCURVE",
"282 519 OFFCURVE",
"286 518 CURVE",
"290 519 OFFCURVE",
"294 520 OFFCURVE",
"298 520 CURVE SMOOTH",
"307 520 OFFCURVE",
"317 517 OFFCURVE",
"324 513 CURVE",
"326 514 OFFCURVE",
"327 515 OFFCURVE",
"329 516 CURVE",
"312 524 OFFCURVE",
"300 540 OFFCURVE",
"300 560 CURVE SMOOTH",
"300 587 OFFCURVE",
"322 609 OFFCURVE",
"349 609 CURVE SMOOTH",
"353 609 OFFCURVE",
"357 608 OFFCURVE",
"361 607 CURVE",
"365 608 OFFCURVE",
"369 609 OFFCURVE",
"373 609 CURVE SMOOTH",
"400 609 OFFCURVE",
"422 587 OFFCURVE",
"422 560 CURVE SMOOTH",
"422 540 OFFCURVE",
"411 524 OFFCURVE",
"394 516 CURVE",
"411 508 OFFCURVE",
"422 491 OFFCURVE",
"422 471 CURVE SMOOTH",
"422 451 OFFCURVE",
"411 435 OFFCURVE",
"394 427 CURVE",
"411 419 OFFCURVE",
"422 402 OFFCURVE",
"422 382 CURVE SMOOTH",
"422 362 OFFCURVE",
"411 346 OFFCURVE",
"394 338 CURVE",
"411 330 OFFCURVE",
"422 313 OFFCURVE",
"422 293 CURVE SMOOTH",
"422 273 OFFCURVE",
"411 257 OFFCURVE",
"394 249 CURVE",
"411 241 OFFCURVE",
"422 224 OFFCURVE",
"422 204 CURVE SMOOTH",
"422 184 OFFCURVE",
"411 168 OFFCURVE",
"394 160 CURVE",
"411 152 OFFCURVE",
"422 136 OFFCURVE",
"422 116 CURVE SMOOTH",
"422 96 OFFCURVE",
"411 79 OFFCURVE",
"394 71 CURVE",
"411 63 OFFCURVE",
"422 47 OFFCURVE",
"422 27 CURVE SMOOTH",
"422 0 OFFCURVE",
"400 -22 OFFCURVE",
"373 -22 CURVE SMOOTH",
"369 -22 OFFCURVE",
"365 -22 OFFCURVE",
"361 -21 CURVE",
"357 -22 OFFCURVE",
"353 -22 OFFCURVE",
"349 -22 CURVE SMOOTH",
"322 -22 OFFCURVE",
"300 0 OFFCURVE",
"300 27 CURVE SMOOTH",
"300 47 OFFCURVE",
"312 63 OFFCURVE",
"329 71 CURVE",
"312 79 OFFCURVE",
"300 96 OFFCURVE",
"300 116 CURVE SMOOTH",
"300 136 OFFCURVE",
"312 152 OFFCURVE",
"329 160 CURVE",
"312 168 OFFCURVE",
"300 184 OFFCURVE",
"300 204 CURVE SMOOTH",
"300 224 OFFCURVE",
"312 241 OFFCURVE",
"329 249 CURVE",
"312 257 OFFCURVE",
"300 273 OFFCURVE",
"300 293 CURVE SMOOTH",
"300 313 OFFCURVE",
"312 330 OFFCURVE",
"329 338 CURVE",
"319 343 OFFCURVE",
"310 351 OFFCURVE",
"305 361 CURVE",
"297 345 OFFCURVE",
"280 333 OFFCURVE",
"261 333 CURVE SMOOTH",
"257 333 OFFCURVE",
"253 334 OFFCURVE",
"249 335 CURVE",
"263 326 OFFCURVE",
"272 310 OFFCURVE",
"272 293 CURVE SMOOTH",
"272 266 OFFCURVE",
"250 244 OFFCURVE",
"223 244 CURVE SMOOTH",
"219 244 OFFCURVE",
"215 245 OFFCURVE",
"211 246 CURVE",
"207 245 OFFCURVE",
"203 244 OFFCURVE",
"199 244 CURVE SMOOTH",
"172 244 OFFCURVE",
"150 266 OFFCURVE",
"150 293 CURVE SMOOTH",
"150 310 OFFCURVE",
"159 326 OFFCURVE",
"173 335 CURVE",
"169 334 OFFCURVE",
"165 333 OFFCURVE",
"161 333 CURVE SMOOTH",
"142 333 OFFCURVE",
"125 345 OFFCURVE",
"117 361 CURVE",
"112 351 OFFCURVE",
"104 343 OFFCURVE",
"94 338 CURVE",
"111 330 OFFCURVE",
"122 313 OFFCURVE",
"122 293 CURVE SMOOTH",
"122 273 OFFCURVE",
"111 257 OFFCURVE",
"94 249 CURVE",
"111 241 OFFCURVE",
"122 224 OFFCURVE",
"122 204 CURVE SMOOTH",
"122 184 OFFCURVE",
"111 168 OFFCURVE",
"94 160 CURVE",
"111 152 OFFCURVE",
"122 136 OFFCURVE",
"122 116 CURVE SMOOTH",
"122 96 OFFCURVE",
"111 79 OFFCURVE",
"94 71 CURVE",
"111 63 OFFCURVE",
"122 47 OFFCURVE",
"122 27 CURVE SMOOTH",
"122 0 OFFCURVE",
"100 -22 OFFCURVE",
"73 -22 CURVE SMOOTH",
"69 -22 OFFCURVE",
"65 -22 OFFCURVE",
"61 -21 CURVE",
"57 -22 OFFCURVE",
"53 -22 OFFCURVE",
"49 -22 CURVE SMOOTH",
"22 -22 OFFCURVE",
"0 0 OFFCURVE",
"0 27 CURVE SMOOTH",
"0 47 OFFCURVE",
"12 63 OFFCURVE",
"29 71 CURVE",
"12 79 OFFCURVE",
"0 96 OFFCURVE",
"0 116 CURVE SMOOTH",
"0 136 OFFCURVE",
"12 152 OFFCURVE",
"29 160 CURVE",
"12 168 OFFCURVE",
"0 184 OFFCURVE",
"0 204 CURVE SMOOTH",
"0 224 OFFCURVE",
"12 241 OFFCURVE",
"29 249 CURVE",
"12 257 OFFCURVE",
"0 273 OFFCURVE",
"0 293 CURVE SMOOTH",
"0 313 OFFCURVE",
"12 330 OFFCURVE",
"29 338 CURVE",
"12 346 OFFCURVE",
"0 362 OFFCURVE",
"0 382 CURVE SMOOTH",
"0 402 OFFCURVE",
"12 419 OFFCURVE",
"29 427 CURVE",
"12 435 OFFCURVE",
"0 451 OFFCURVE",
"0 471 CURVE SMOOTH",
"0 491 OFFCURVE",
"12 508 OFFCURVE",
"29 516 CURVE",
"12 524 OFFCURVE",
"0 540 OFFCURVE",
"0 560 CURVE SMOOTH",
"0 587 OFFCURVE",
"22 609 OFFCURVE",
"49 609 CURVE SMOOTH",
"53 609 OFFCURVE",
"57 608 OFFCURVE",
"61 607 CURVE",
"65 608 OFFCURVE",
"69 609 OFFCURVE",
"73 609 CURVE SMOOTH",
"100 609 OFFCURVE",
"122 587 OFFCURVE"
);
},
{
closed = 1;
nodes = (
"99 429 CURVE",
"97 428 OFFCURVE",
"96 428 OFFCURVE",
"94 427 CURVE",
"104 422 OFFCURVE",
"112 413 OFFCURVE",
"117 403 CURVE",
"121 411 OFFCURVE",
"127 419 OFFCURVE",
"135 424 CURVE",
"131 423 OFFCURVE",
"128 422 OFFCURVE",
"124 422 CURVE SMOOTH",
"115 422 OFFCURVE",
"106 425 OFFCURVE"
);
},
{
closed = 1;
nodes = (
"324 429 CURVE",
"317 425 OFFCURVE",
"307 422 OFFCURVE",
"298 422 CURVE SMOOTH",
"294 422 OFFCURVE",
"291 423 OFFCURVE",
"287 424 CURVE",
"295 419 OFFCURVE",
"301 411 OFFCURVE",
"305 403 CURVE",
"310 413 OFFCURVE",
"319 422 OFFCURVE",
"329 427 CURVE",
"327 428 OFFCURVE",
"326 428 OFFCURVE"
);
}
);
width = 450;
}
);
unicode = 004D;
userData = {
com.fontlab.hintData = {
hhints = (
{
position = -22;
width = 21;
},
{
position = -22;
width = 21;
},
{
position = 411;
width = 20;
},
{
position = 422;
width = 98;
},
{
position = 589;
width = 20;
}
);
vhints = (
{
position = 0;
width = 122;
},
{
position = 150;
width = 122;
},
{
position = 300;
width = 122;
}
);
};
};
},
{
glyphname = N;
lastChange = "2017-08-06 04:48:21 +0000";
layers = (
{
layerId = "9B45E214-161D-4B81-AEB6-0B387D0DDEE2";
paths = (
{
closed = 1;
nodes = (
"122 560 CURVE SMOOTH",
"122 540 OFFCURVE",
"111 524 OFFCURVE",
"94 516 CURVE",
"96 515 OFFCURVE",
"97 514 OFFCURVE",
"99 513 CURVE",
"106 517 OFFCURVE",
"115 520 OFFCURVE",
"124 520 CURVE SMOOTH",
"128 520 OFFCURVE",
"132 519 OFFCURVE",
"136 518 CURVE",
"140 519 OFFCURVE",
"144 520 OFFCURVE",
"148 520 CURVE SMOOTH",
"175 520 OFFCURVE",
"197 498 OFFCURVE",
"197 471 CURVE SMOOTH",
"197 454 OFFCURVE",
"188 439 OFFCURVE",
"174 430 CURVE",
"178 431 OFFCURVE",
"182 431 OFFCURVE",
"186 431 CURVE SMOOTH",
"213 431 OFFCURVE",
"235 409 OFFCURVE",
"235 382 CURVE SMOOTH",
"235 365 OFFCURVE",
"226 350 OFFCURVE",
"212 341 CURVE",
"216 342 OFFCURVE",
"219 342 OFFCURVE",
"223 342 CURVE SMOOTH",
"250 342 OFFCURVE",
"272 320 OFFCURVE",
"272 293 CURVE SMOOTH",
"272 276 OFFCURVE",
"263 261 OFFCURVE",
"249 252 CURVE",
"253 253 OFFCURVE",
"257 253 OFFCURVE",
"261 253 CURVE SMOOTH",
"280 253 OFFCURVE",
"297 242 OFFCURVE",
"305 226 CURVE",
"310 236 OFFCURVE",
"319 244 OFFCURVE",
"329 249 CURVE",
"312 257 OFFCURVE",
"300 273 OFFCURVE",
"300 293 CURVE SMOOTH",
"300 313 OFFCURVE",
"312 330 OFFCURVE",
"329 338 CURVE",
"312 346 OFFCURVE",
"300 362 OFFCURVE",
"300 382 CURVE SMOOTH",
"300 402 OFFCURVE",
"312 419 OFFCURVE",
"329 427 CURVE",
"312 435 OFFCURVE",
"300 451 OFFCURVE",
"300 471 CURVE SMOOTH",
"300 491 OFFCURVE",
"312 508 OFFCURVE",
"329 516 CURVE",
"312 524 OFFCURVE",
"300 540 OFFCURVE",
"300 560 CURVE SMOOTH",
"300 587 OFFCURVE",
"322 609 OFFCURVE",
"349 609 CURVE SMOOTH",
"353 609 OFFCURVE",
"357 608 OFFCURVE",
"361 607 CURVE",
"365 608 OFFCURVE",
"369 609 OFFCURVE",
"373 609 CURVE SMOOTH",
"400 609 OFFCURVE",
"422 587 OFFCURVE",
"422 560 CURVE SMOOTH",
"422 540 OFFCURVE",
"411 524 OFFCURVE",
"394 516 CURVE",
"411 508 OFFCURVE",
"422 491 OFFCURVE",
"422 471 CURVE SMOOTH",
"422 451 OFFCURVE",
"411 435 OFFCURVE",
"394 427 CURVE",
"411 419 OFFCURVE",
"422 402 OFFCURVE",
"422 382 CURVE SMOOTH",
"422 362 OFFCURVE",
"411 346 OFFCURVE",
"394 338 CURVE",
"411 330 OFFCURVE",
"422 313 OFFCURVE",
"422 293 CURVE SMOOTH",
"422 273 OFFCURVE",
"411 257 OFFCURVE",
"394 249 CURVE",
"411 241 OFFCURVE",
"422 224 OFFCURVE",
"422 204 CURVE SMOOTH",
"422 184 OFFCURVE",
"411 168 OFFCURVE",
"394 160 CURVE",
"411 152 OFFCURVE",
"422 136 OFFCURVE",
"422 116 CURVE SMOOTH",
"422 96 OFFCURVE",
"411 79 OFFCURVE",
"394 71 CURVE",
"411 63 OFFCURVE",
"422 47 OFFCURVE",
"422 27 CURVE SMOOTH",
"422 0 OFFCURVE",
"400 -22 OFFCURVE",
"373 -22 CURVE SMOOTH",
"369 -22 OFFCURVE",
"365 -22 OFFCURVE",
"361 -21 CURVE",
"357 -22 OFFCURVE",
"353 -22 OFFCURVE",
"349 -22 CURVE SMOOTH",
"322 -22 OFFCURVE",
"300 0 OFFCURVE",
"300 27 CURVE SMOOTH",
"300 47 OFFCURVE",
"312 63 OFFCURVE",
"329 71 CURVE",
"327 72 OFFCURVE",
"326 73 OFFCURVE",
"324 74 CURVE",
"317 70 OFFCURVE",
"307 67 OFFCURVE",
"298 67 CURVE SMOOTH",
"294 67 OFFCURVE",
"290 67 OFFCURVE",
"286 68 CURVE",
"282 67 OFFCURVE",
"278 67 OFFCURVE",
"274 67 CURVE SMOOTH",
"247 67 OFFCURVE",
"225 89 OFFCURVE",
"225 116 CURVE SMOOTH",
"225 133 OFFCURVE",
"234 148 OFFCURVE",
"248 157 CURVE",
"244 156 OFFCURVE",
"240 156 OFFCURVE",
"236 156 CURVE SMOOTH",
"209 156 OFFCURVE",
"188 177 OFFCURVE",
"188 204 CURVE SMOOTH",
"188 221 OFFCURVE",
"196 237 OFFCURVE",
"210 246 CURVE",
"206 245 OFFCURVE",
"203 244 OFFCURVE",
"199 244 CURVE SMOOTH",
"172 244 OFFCURVE",
"150 266 OFFCURVE",
"150 293 CURVE SMOOTH",
"150 310 OFFCURVE",
"159 326 OFFCURVE",
"173 335 CURVE",
"169 334 OFFCURVE",
"165 333 OFFCURVE",
"161 333 CURVE SMOOTH",
"142 333 OFFCURVE",
"125 345 OFFCURVE",
"117 361 CURVE",
"112 351 OFFCURVE",
"104 343 OFFCURVE",
"94 338 CURVE",
"111 330 OFFCURVE",
"122 313 OFFCURVE",
"122 293 CURVE SMOOTH",
"122 273 OFFCURVE",
"111 257 OFFCURVE",
"94 249 CURVE",
"111 241 OFFCURVE",
"122 224 OFFCURVE",
"122 204 CURVE SMOOTH",
"122 184 OFFCURVE",
"111 168 OFFCURVE",
"94 160 CURVE",
"111 152 OFFCURVE",
"122 136 OFFCURVE",
"122 116 CURVE SMOOTH",
"122 96 OFFCURVE",
"111 79 OFFCURVE",
"94 71 CURVE",
"111 63 OFFCURVE",
"122 47 OFFCURVE",
"122 27 CURVE SMOOTH",
"122 0 OFFCURVE",
"100 -22 OFFCURVE",
"73 -22 CURVE SMOOTH",
"69 -22 OFFCURVE",
"65 -22 OFFCURVE",
"61 -21 CURVE",
"57 -22 OFFCURVE",
"53 -22 OFFCURVE",
"49 -22 CURVE SMOOTH",
"22 -22 OFFCURVE",
"0 0 OFFCURVE",
"0 27 CURVE SMOOTH",
"0 47 OFFCURVE",
"12 63 OFFCURVE",
"29 71 CURVE",
"12 79 OFFCURVE",
"0 96 OFFCURVE",
"0 116 CURVE SMOOTH",
"0 136 OFFCURVE",
"12 152 OFFCURVE",
"29 160 CURVE",
"12 168 OFFCURVE",
"0 184 OFFCURVE",
"0 204 CURVE SMOOTH",
"0 224 OFFCURVE",
"12 241 OFFCURVE",
"29 249 CURVE",
"12 257 OFFCURVE",
"0 273 OFFCURVE",
"0 293 CURVE SMOOTH",
"0 313 OFFCURVE",
"12 330 OFFCURVE",
"29 338 CURVE",
"12 346 OFFCURVE",
"0 362 OFFCURVE",
"0 382 CURVE SMOOTH",
"0 402 OFFCURVE",
"12 419 OFFCURVE",
"29 427 CURVE",
"12 435 OFFCURVE",
"0 451 OFFCURVE",
"0 471 CURVE SMOOTH",
"0 491 OFFCURVE",
"12 508 OFFCURVE",
"29 516 CURVE",
"12 524 OFFCURVE",
"0 540 OFFCURVE",
"0 560 CURVE SMOOTH",
"0 587 OFFCURVE",
"22 609 OFFCURVE",
"49 609 CURVE SMOOTH",
"53 609 OFFCURVE",
"57 608 OFFCURVE",
"61 607 CURVE",
"65 608 OFFCURVE",
"69 609 OFFCURVE",
"73 609 CURVE SMOOTH",
"100 609 OFFCURVE",
"122 587 OFFCURVE"
);
},
{
closed = 1;
nodes = (
"99 429 CURVE",
"97 428 OFFCURVE",
"96 428 OFFCURVE",
"94 427 CURVE",
"104 422 OFFCURVE",
"112 413 OFFCURVE",
"117 403 CURVE",
"121 411 OFFCURVE",
"127 419 OFFCURVE",
"135 424 CURVE",
"131 423 OFFCURVE",
"128 422 OFFCURVE",
"124 422 CURVE SMOOTH",
"115 422 OFFCURVE",
"106 425 OFFCURVE"
);
},
{
closed = 1;
nodes = (
"305 183 CURVE",
"301 175 OFFCURVE",
"295 168 OFFCURVE",
"287 163 CURVE",
"291 164 OFFCURVE",
"294 164 OFFCURVE",
"298 164 CURVE SMOOTH",
"307 164 OFFCURVE",
"317 161 OFFCURVE",
"324 157 CURVE",
"326 158 OFFCURVE",
"327 159 OFFCURVE",
"329 160 CURVE",
"319 165 OFFCURVE",
"310 173 OFFCURVE"
);
}
);
width = 450;
}
);
unicode = 004E;
userData = {
com.fontlab.hintData = {
hhints = (
{
position = -22;
width = 21;
},
{
position = -22;
width = 21;
},
{
position = 67;
width = 97;
},
{
position = 411;
width = 20;
},
{
position = 589;
width = 20;
}
);
vhints = (
{
position = 0;
width = 122;
},
{
position = 150;
width = 122;
},
{
position = 300;
width = 122;
}
);
};
};
},
{
glyphname = O;
lastChange = "2017-08-06 04:48:21 +0000";
layers = (
{
layerId = "9B45E214-161D-4B81-AEB6-0B387D0DDEE2";
paths = (
{
closed = 1;
nodes = (
"385 560 CURVE SMOOTH",
"385 543 OFFCURVE",
"376 528 OFFCURVE",
"362 519 CURVE",
"366 520 OFFCURVE",
"369 520 OFFCURVE",
"373 520 CURVE SMOOTH",
"400 520 OFFCURVE",
"422 498 OFFCURVE",
"422 471 CURVE SMOOTH",
"422 451 OFFCURVE",
"411 435 OFFCURVE",
"394 427 CURVE",
"411 419 OFFCURVE",
"422 402 OFFCURVE",
"422 382 CURVE SMOOTH",
"422 362 OFFCURVE",
"411 346 OFFCURVE",
"394 338 CURVE",
"411 330 OFFCURVE",
"422 313 OFFCURVE",
"422 293 CURVE SMOOTH",
"422 273 OFFCURVE",
"411 257 OFFCURVE",
"394 249 CURVE",
"411 241 OFFCURVE",
"422 224 OFFCURVE",
"422 204 CURVE SMOOTH",
"422 184 OFFCURVE",
"411 168 OFFCURVE",
"394 160 CURVE",
"411 152 OFFCURVE",
"422 136 OFFCURVE",
"422 116 CURVE SMOOTH",
"422 89 OFFCURVE",
"400 67 OFFCURVE",
"373 67 CURVE SMOOTH",
"369 67 OFFCURVE",
"366 67 OFFCURVE",
"362 68 CURVE",
"376 59 OFFCURVE",
"385 44 OFFCURVE",
"385 27 CURVE SMOOTH",
"385 0 OFFCURVE",
"363 -22 OFFCURVE",
"336 -22 CURVE SMOOTH",
"332 -22 OFFCURVE",
"328 -22 OFFCURVE",
"324 -21 CURVE",
"320 -22 OFFCURVE",
"315 -22 OFFCURVE",
"311 -22 CURVE SMOOTH",
"302 -22 OFFCURVE",
"293 -19 OFFCURVE",
"286 -15 CURVE",
"279 -19 OFFCURVE",
"270 -22 OFFCURVE",
"261 -22 CURVE SMOOTH",
"257 -22 OFFCURVE",
"253 -22 OFFCURVE",
"249 -21 CURVE",
"245 -22 OFFCURVE",
"240 -22 OFFCURVE",
"236 -22 CURVE SMOOTH",
"227 -22 OFFCURVE",
"218 -19 OFFCURVE",
"211 -15 CURVE",
"204 -19 OFFCURVE",
"195 -22 OFFCURVE",
"186 -22 CURVE SMOOTH",
"182 -22 OFFCURVE",
"178 -22 OFFCURVE",
"174 -21 CURVE",
"170 -22 OFFCURVE",
"165 -22 OFFCURVE",
"161 -22 CURVE SMOOTH",
"152 -22 OFFCURVE",
"143 -19 OFFCURVE",
"136 -15 CURVE",
"129 -19 OFFCURVE",
"120 -22 OFFCURVE",
"111 -22 CURVE SMOOTH",
"107 -22 OFFCURVE",
"103 -22 OFFCURVE",
"99 -21 CURVE",
"95 -22 OFFCURVE",
"90 -22 OFFCURVE",
"86 -22 CURVE SMOOTH",
"59 -22 OFFCURVE",
"37 0 OFFCURVE",
"37 27 CURVE SMOOTH",
"37 44 OFFCURVE",
"46 59 OFFCURVE",
"60 68 CURVE",
"56 67 OFFCURVE",
"53 67 OFFCURVE",
"49 67 CURVE SMOOTH",
"22 67 OFFCURVE",
"0 89 OFFCURVE",
"0 116 CURVE SMOOTH",
"0 136 OFFCURVE",
"12 152 OFFCURVE",
"29 160 CURVE",
"12 168 OFFCURVE",
"0 184 OFFCURVE",
"0 204 CURVE SMOOTH",
"0 224 OFFCURVE",
"12 241 OFFCURVE",
"29 249 CURVE",
"12 257 OFFCURVE",
"0 273 OFFCURVE",
"0 293 CURVE SMOOTH",
"0 313 OFFCURVE",
"12 330 OFFCURVE",
"29 338 CURVE",
"12 346 OFFCURVE",
"0 362 OFFCURVE",
"0 382 CURVE SMOOTH",
"0 402 OFFCURVE",
"12 419 OFFCURVE",
"29 427 CURVE",
"12 435 OFFCURVE",
"0 451 OFFCURVE",
"0 471 CURVE SMOOTH",
"0 498 OFFCURVE",
"22 520 OFFCURVE",
"49 520 CURVE SMOOTH",
"53 520 OFFCURVE",
"56 520 OFFCURVE",
"60 519 CURVE",
"46 528 OFFCURVE",
"37 543 OFFCURVE",
"37 560 CURVE SMOOTH",
"37 587 OFFCURVE",
"59 609 OFFCURVE",
"86 609 CURVE SMOOTH",
"90 609 OFFCURVE",
"95 608 OFFCURVE",
"99 607 CURVE",
"103 608 OFFCURVE",
"107 609 OFFCURVE",
"111 609 CURVE SMOOTH",
"120 609 OFFCURVE",
"129 606 OFFCURVE",
"136 602 CURVE",
"143 606 OFFCURVE",
"152 609 OFFCURVE",
"161 609 CURVE SMOOTH",
"165 609 OFFCURVE",
"170 608 OFFCURVE",
"174 607 CURVE",
"178 608 OFFCURVE",
"182 609 OFFCURVE",
"186 609 CURVE SMOOTH",
"195 609 OFFCURVE",
"204 606 OFFCURVE",
"211 602 CURVE",
"218 606 OFFCURVE",
"227 609 OFFCURVE",
"236 609 CURVE SMOOTH",
"240 609 OFFCURVE",
"245 608 OFFCURVE",
"249 607 CURVE",
"253 608 OFFCURVE",
"257 609 OFFCURVE",
"261 609 CURVE SMOOTH",
"270 609 OFFCURVE",
"279 606 OFFCURVE",
"286 602 CURVE",
"293 606 OFFCURVE",
"302 609 OFFCURVE",
"311 609 CURVE SMOOTH",
"315 609 OFFCURVE",
"320 608 OFFCURVE",
"324 607 CURVE",
"328 608 OFFCURVE",
"332 609 OFFCURVE",
"336 609 CURVE SMOOTH",
"363 609 OFFCURVE",
"385 587 OFFCURVE"
);
},
{
closed = 1;
nodes = (
"136 518 CURVE",
"129 514 OFFCURVE",
"120 511 OFFCURVE",
"111 511 CURVE SMOOTH",
"107 511 OFFCURVE",
"103 511 OFFCURVE",
"99 512 CURVE",
"113 503 OFFCURVE",
"122 488 OFFCURVE",
"122 471 CURVE SMOOTH",
"122 451 OFFCURVE",
"111 435 OFFCURVE",
"94 427 CURVE",
"111 419 OFFCURVE",
"122 402 OFFCURVE",
"122 382 CURVE SMOOTH",
"122 362 OFFCURVE",
"111 346 OFFCURVE",
"94 338 CURVE",
"111 330 OFFCURVE",
"122 313 OFFCURVE",
"122 293 CURVE SMOOTH",
"122 273 OFFCURVE",
"111 257 OFFCURVE",
"94 249 CURVE",
"111 241 OFFCURVE",
"122 224 OFFCURVE",
"122 204 CURVE SMOOTH",
"122 184 OFFCURVE",
"111 168 OFFCURVE",
"94 160 CURVE",
"111 152 OFFCURVE",
"122 136 OFFCURVE",
"122 116 CURVE SMOOTH",
"122 99 OFFCURVE",
"113 83 OFFCURVE",
"99 74 CURVE",
"103 75 OFFCURVE",
"107 76 OFFCURVE",
"111 76 CURVE SMOOTH",
"120 76 OFFCURVE",
"129 73 OFFCURVE",
"136 69 CURVE",
"143 73 OFFCURVE",
"152 76 OFFCURVE",
"161 76 CURVE SMOOTH",
"165 76 OFFCURVE",
"170 75 OFFCURVE",
"174 74 CURVE",
"178 75 OFFCURVE",
"182 76 OFFCURVE",
"186 76 CURVE SMOOTH",
"195 76 OFFCURVE",
"204 73 OFFCURVE",
"211 69 CURVE",
"218 73 OFFCURVE",
"227 76 OFFCURVE",
"236 76 CURVE SMOOTH",
"240 76 OFFCURVE",
"245 75 OFFCURVE",
"249 74 CURVE",
"253 75 OFFCURVE",
"257 76 OFFCURVE",
"261 76 CURVE SMOOTH",
"270 76 OFFCURVE",
"279 73 OFFCURVE",
"286 69 CURVE",
"293 73 OFFCURVE",
"302 76 OFFCURVE",
"311 76 CURVE SMOOTH",
"315 76 OFFCURVE",
"319 75 OFFCURVE",
"323 74 CURVE",
"309 83 OFFCURVE",
"300 99 OFFCURVE",
"300 116 CURVE SMOOTH",
"300 136 OFFCURVE",
"312 152 OFFCURVE",
"329 160 CURVE",
"312 168 OFFCURVE",
"300 184 OFFCURVE",
"300 204 CURVE SMOOTH",
"300 224 OFFCURVE",
"312 241 OFFCURVE",
"329 249 CURVE",
"312 257 OFFCURVE",
"300 273 OFFCURVE",
"300 293 CURVE SMOOTH",
"300 313 OFFCURVE",
"312 330 OFFCURVE",
"329 338 CURVE",
"312 346 OFFCURVE",
"300 362 OFFCURVE",
"300 382 CURVE SMOOTH",
"300 402 OFFCURVE",
"312 419 OFFCURVE",
"329 427 CURVE",
"312 435 OFFCURVE",
"300 451 OFFCURVE",
"300 471 CURVE SMOOTH",
"300 488 OFFCURVE",
"309 503 OFFCURVE",
"323 512 CURVE",
"319 511 OFFCURVE",
"315 511 OFFCURVE",
"311 511 CURVE SMOOTH",
"302 511 OFFCURVE",
"293 514 OFFCURVE",
"286 518 CURVE",
"279 514 OFFCURVE",
"270 511 OFFCURVE",
"261 511 CURVE SMOOTH",
"257 511 OFFCURVE",
"253 512 OFFCURVE",
"249 513 CURVE",
"245 512 OFFCURVE",
"240 511 OFFCURVE",
"236 511 CURVE SMOOTH",
"227 511 OFFCURVE",
"218 514 OFFCURVE",
"211 518 CURVE",
"204 514 OFFCURVE",
"195 511 OFFCURVE",
"186 511 CURVE SMOOTH",
"182 511 OFFCURVE",
"178 512 OFFCURVE",
"174 513 CURVE",
"170 512 OFFCURVE",
"165 511 OFFCURVE",
"161 511 CURVE SMOOTH",
"152 511 OFFCURVE",
"143 514 OFFCURVE"
);
}
);
width = 450;
}
);
unicode = 004F;
userData = {
com.fontlab.hintData = {
hhints = (
{
position = -22;
width = 98;
},
{
position = 511;
width = 98;
}
);
vhints = (
{
position = 0;
width = 122;
},
{
position = 300;
width = 122;
}
);
};
};
},
{
glyphname = P;
lastChange = "2017-08-06 04:48:21 +0000";
layers = (
{
layerId = "9B45E214-161D-4B81-AEB6-0B387D0DDEE2";
paths = (
{
closed = 1;
nodes = (
"347 560 CURVE SMOOTH",
"347 533 OFFCURVE",
"325 511 OFFCURVE",
"298 511 CURVE SMOOTH",
"294 511 OFFCURVE",
"290 512 OFFCURVE",
"286 513 CURVE",
"282 512 OFFCURVE",
"278 511 OFFCURVE",
"274 511 CURVE SMOOTH",
"265 511 OFFCURVE",
"256 514 OFFCURVE",
"249 518 CURVE",
"242 514 OFFCURVE",
"232 511 OFFCURVE",
"223 511 CURVE SMOOTH",
"219 511 OFFCURVE",
"215 512 OFFCURVE",
"211 513 CURVE",
"207 512 OFFCURVE",
"203 511 OFFCURVE",
"199 511 CURVE SMOOTH",
"190 511 OFFCURVE",
"181 514 OFFCURVE",
"174 518 CURVE",
"167 514 OFFCURVE",
"157 511 OFFCURVE",
"148 511 CURVE SMOOTH",
"144 511 OFFCURVE",
"140 512 OFFCURVE",
"136 513 CURVE",
"132 512 OFFCURVE",
"128 511 OFFCURVE",
"124 511 CURVE SMOOTH",
"115 511 OFFCURVE",
"106 514 OFFCURVE",
"99 518 CURVE",
"97 517 OFFCURVE",
"96 517 OFFCURVE",
"94 516 CURVE",
"111 508 OFFCURVE",
"122 491 OFFCURVE",
"122 471 CURVE SMOOTH",
"122 451 OFFCURVE",
"111 435 OFFCURVE",
"94 427 CURVE",
"111 419 OFFCURVE",
"122 402 OFFCURVE",
"122 382 CURVE SMOOTH",
"122 362 OFFCURVE",
"111 346 OFFCURVE",
"94 338 CURVE",
"96 337 OFFCURVE",
"97 336 OFFCURVE",
"99 335 CURVE",
"106 339 OFFCURVE",
"115 342 OFFCURVE",
"124 342 CURVE SMOOTH",
"128 342 OFFCURVE",
"132 342 OFFCURVE",
"136 341 CURVE",
"140 342 OFFCURVE",
"144 342 OFFCURVE",
"148 342 CURVE SMOOTH",
"157 342 OFFCURVE",
"167 339 OFFCURVE",
"174 335 CURVE",
"181 339 OFFCURVE",
"190 342 OFFCURVE",
"199 342 CURVE SMOOTH",
"203 342 OFFCURVE",
"207 342 OFFCURVE",
"211 341 CURVE",
"215 342 OFFCURVE",
"219 342 OFFCURVE",
"223 342 CURVE SMOOTH",
"232 342 OFFCURVE",
"242 339 OFFCURVE",
"249 335 CURVE",
"256 339 OFFCURVE",
"265 342 OFFCURVE",
"274 342 CURVE SMOOTH",
"278 342 OFFCURVE",
"282 342 OFFCURVE",
"286 341 CURVE",
"290 342 OFFCURVE",
"294 342 OFFCURVE",
"298 342 CURVE SMOOTH",
"325 342 OFFCURVE",
"347 320 OFFCURVE",
"347 293 CURVE SMOOTH",
"347 266 OFFCURVE",
"325 244 OFFCURVE",
"298 244 CURVE SMOOTH",
"294 244 OFFCURVE",
"290 245 OFFCURVE",
"286 246 CURVE",
"282 245 OFFCURVE",
"278 244 OFFCURVE",
"274 244 CURVE SMOOTH",
"265 244 OFFCURVE",
"256 247 OFFCURVE",
"249 251 CURVE",
"242 247 OFFCURVE",
"232 244 OFFCURVE",
"223 244 CURVE SMOOTH",
"219 244 OFFCURVE",
"215 245 OFFCURVE",
"211 246 CURVE",
"207 245 OFFCURVE",
"203 244 OFFCURVE",
"199 244 CURVE SMOOTH",
"190 244 OFFCURVE",
"181 247 OFFCURVE",
"174 251 CURVE",
"167 247 OFFCURVE",
"157 244 OFFCURVE",
"148 244 CURVE SMOOTH",
"144 244 OFFCURVE",
"140 245 OFFCURVE",
"136 246 CURVE",
"132 245 OFFCURVE",
"128 244 OFFCURVE",
"124 244 CURVE SMOOTH",
"115 244 OFFCURVE",
"106 247 OFFCURVE",
"99 251 CURVE",
"97 250 OFFCURVE",
"96 250 OFFCURVE",
"94 249 CURVE",
"111 241 OFFCURVE",
"122 224 OFFCURVE",
"122 204 CURVE SMOOTH",
"122 184 OFFCURVE",
"111 168 OFFCURVE",
"94 160 CURVE",
"111 152 OFFCURVE",
"122 136 OFFCURVE",
"122 116 CURVE SMOOTH",
"122 96 OFFCURVE",
"111 79 OFFCURVE",
"94 71 CURVE",
"111 63 OFFCURVE",
"122 47 OFFCURVE",
"122 27 CURVE SMOOTH",
"122 0 OFFCURVE",
"100 -22 OFFCURVE",
"73 -22 CURVE SMOOTH",
"69 -22 OFFCURVE",
"65 -22 OFFCURVE",
"61 -21 CURVE",
"57 -22 OFFCURVE",
"53 -22 OFFCURVE",
"49 -22 CURVE SMOOTH",
"22 -22 OFFCURVE",
"0 0 OFFCURVE",
"0 27 CURVE SMOOTH",
"0 47 OFFCURVE",
"12 63 OFFCURVE",
"29 71 CURVE",
"12 79 OFFCURVE",
"0 96 OFFCURVE",
"0 116 CURVE SMOOTH",
"0 136 OFFCURVE",
"12 152 OFFCURVE",
"29 160 CURVE",
"12 168 OFFCURVE",
"0 184 OFFCURVE",
"0 204 CURVE SMOOTH",
"0 224 OFFCURVE",
"12 241 OFFCURVE",
"29 249 CURVE",
"12 257 OFFCURVE",
"0 273 OFFCURVE",
"0 293 CURVE SMOOTH",
"0 313 OFFCURVE",
"12 330 OFFCURVE",
"29 338 CURVE",
"12 346 OFFCURVE",
"0 362 OFFCURVE",
"0 382 CURVE SMOOTH",
"0 402 OFFCURVE",
"12 419 OFFCURVE",
"29 427 CURVE",
"12 435 OFFCURVE",
"0 451 OFFCURVE",
"0 471 CURVE SMOOTH",
"0 491 OFFCURVE",
"12 508 OFFCURVE",
"29 516 CURVE",
"12 524 OFFCURVE",
"0 540 OFFCURVE",
"0 560 CURVE SMOOTH",
"0 587 OFFCURVE",
"22 609 OFFCURVE",
"49 609 CURVE SMOOTH",
"53 609 OFFCURVE",
"57 608 OFFCURVE",
"61 607 CURVE",
"65 608 OFFCURVE",
"69 609 OFFCURVE",
"73 609 CURVE SMOOTH",
"82 609 OFFCURVE",
"92 606 OFFCURVE",
"99 602 CURVE",
"106 606 OFFCURVE",
"115 609 OFFCURVE",
"124 609 CURVE SMOOTH",
"128 609 OFFCURVE",
"132 608 OFFCURVE",
"136 607 CURVE",
"140 608 OFFCURVE",
"144 609 OFFCURVE",
"148 609 CURVE SMOOTH",
"157 609 OFFCURVE",
"167 606 OFFCURVE",
"174 602 CURVE",
"181 606 OFFCURVE",
"190 609 OFFCURVE",
"199 609 CURVE SMOOTH",
"203 609 OFFCURVE",
"207 608 OFFCURVE",
"211 607 CURVE",
"215 608 OFFCURVE",
"219 609 OFFCURVE",
"223 609 CURVE SMOOTH",
"232 609 OFFCURVE",
"242 606 OFFCURVE",
"249 602 CURVE",
"256 606 OFFCURVE",
"265 609 OFFCURVE",
"274 609 CURVE SMOOTH",
"278 609 OFFCURVE",
"282 608 OFFCURVE",
"286 607 CURVE",
"290 608 OFFCURVE",
"294 609 OFFCURVE",
"298 609 CURVE SMOOTH",
"325 609 OFFCURVE",
"347 587 OFFCURVE"
);
},
{
closed = 1;
nodes = (
"422 471 CURVE SMOOTH",
"422 451 OFFCURVE",
"411 435 OFFCURVE",
"394 427 CURVE",
"411 419 OFFCURVE",
"422 402 OFFCURVE",
"422 382 CURVE SMOOTH",
"422 355 OFFCURVE",
"400 333 OFFCURVE",
"373 333 CURVE SMOOTH",
"369 333 OFFCURVE",
"365 334 OFFCURVE",
"361 335 CURVE",
"357 334 OFFCURVE",
"353 333 OFFCURVE",
"349 333 CURVE SMOOTH",
"322 333 OFFCURVE",
"300 355 OFFCURVE",
"300 382 CURVE SMOOTH",
"300 402 OFFCURVE",
"312 419 OFFCURVE",
"329 427 CURVE",
"312 435 OFFCURVE",
"300 451 OFFCURVE",
"300 471 CURVE SMOOTH",
"300 498 OFFCURVE",
"322 520 OFFCURVE",
"349 520 CURVE SMOOTH",
"353 520 OFFCURVE",
"357 519 OFFCURVE",
"361 518 CURVE",
"365 519 OFFCURVE",
"369 520 OFFCURVE",
"373 520 CURVE SMOOTH",
"400 520 OFFCURVE",
"422 498 OFFCURVE"
);
}
);
width = 450;
}
);
unicode = 0050;
userData = {
com.fontlab.hintData = {
hhints = (
{
position = -22;
width = 21;
},
{
position = -22;
width = 21;
},
{
position = 244;
width = 98;
},
{
position = 511;
width = 98;
}
);
vhints = (
{
position = 0;
width = 122;
},
{
position = 300;
width = 122;
}
);
};
};
},
{
glyphname = Q;
lastChange = "2017-08-06 04:48:21 +0000";
layers = (
{
layerId = "9B45E214-161D-4B81-AEB6-0B387D0DDEE2";
paths = (
{
closed = 1;
nodes = (
"385 560 CURVE SMOOTH",
"385 543 OFFCURVE",
"376 528 OFFCURVE",
"362 519 CURVE",
"366 520 OFFCURVE",
"369 520 OFFCURVE",
"373 520 CURVE SMOOTH",
"400 520 OFFCURVE",
"422 498 OFFCURVE",
"422 471 CURVE SMOOTH",
"422 451 OFFCURVE",
"411 435 OFFCURVE",
"394 427 CURVE",
"411 419 OFFCURVE",
"422 402 OFFCURVE",
"422 382 CURVE SMOOTH",
"422 362 OFFCURVE",
"411 346 OFFCURVE",
"394 338 CURVE",
"411 330 OFFCURVE",
"422 313 OFFCURVE",
"422 293 CURVE SMOOTH",
"422 273 OFFCURVE",
"411 257 OFFCURVE",
"394 249 CURVE",
"411 241 OFFCURVE",
"422 224 OFFCURVE",
"422 204 CURVE SMOOTH",
"422 177 OFFCURVE",
"400 156 OFFCURVE",
"373 156 CURVE SMOOTH",
"369 156 OFFCURVE",
"365 156 OFFCURVE",
"361 157 CURVE",
"357 156 OFFCURVE",
"353 156 OFFCURVE",
"349 156 CURVE SMOOTH",
"322 156 OFFCURVE",
"300 177 OFFCURVE",
"300 204 CURVE SMOOTH",
"300 224 OFFCURVE",
"312 241 OFFCURVE",
"329 249 CURVE",
"312 257 OFFCURVE",
"300 273 OFFCURVE",
"300 293 CURVE SMOOTH",
"300 313 OFFCURVE",
"312 330 OFFCURVE",
"329 338 CURVE",
"312 346 OFFCURVE",
"300 362 OFFCURVE",
"300 382 CURVE SMOOTH",
"300 402 OFFCURVE",
"312 419 OFFCURVE",
"329 427 CURVE",
"312 435 OFFCURVE",
"300 451 OFFCURVE",
"300 471 CURVE SMOOTH",
"300 488 OFFCURVE",
"309 503 OFFCURVE",
"323 512 CURVE",
"319 511 OFFCURVE",
"315 511 OFFCURVE",
"311 511 CURVE SMOOTH",
"302 511 OFFCURVE",
"293 514 OFFCURVE",
"286 518 CURVE",
"279 514 OFFCURVE",
"270 511 OFFCURVE",
"261 511 CURVE SMOOTH",
"257 511 OFFCURVE",
"253 512 OFFCURVE",
"249 513 CURVE",
"245 512 OFFCURVE",
"240 511 OFFCURVE",
"236 511 CURVE SMOOTH",
"227 511 OFFCURVE",
"218 514 OFFCURVE",
"211 518 CURVE",
"204 514 OFFCURVE",
"195 511 OFFCURVE",
"186 511 CURVE SMOOTH",
"182 511 OFFCURVE",
"178 512 OFFCURVE",
"174 513 CURVE",
"170 512 OFFCURVE",
"165 511 OFFCURVE",
"161 511 CURVE SMOOTH",
"152 511 OFFCURVE",
"143 514 OFFCURVE",
"136 518 CURVE",
"129 514 OFFCURVE",
"120 511 OFFCURVE",
"111 511 CURVE SMOOTH",
"107 511 OFFCURVE",
"103 511 OFFCURVE",
"99 512 CURVE",
"113 503 OFFCURVE",
"122 488 OFFCURVE",
"122 471 CURVE SMOOTH",
"122 451 OFFCURVE",
"111 435 OFFCURVE",
"94 427 CURVE",
"111 419 OFFCURVE",
"122 402 OFFCURVE",
"122 382 CURVE SMOOTH",
"122 362 OFFCURVE",
"111 346 OFFCURVE",
"94 338 CURVE",
"111 330 OFFCURVE",
"122 313 OFFCURVE",
"122 293 CURVE SMOOTH",
"122 273 OFFCURVE",
"111 257 OFFCURVE",
"94 249 CURVE",
"111 241 OFFCURVE",
"122 224 OFFCURVE",
"122 204 CURVE SMOOTH",
"122 184 OFFCURVE",
"111 168 OFFCURVE",
"94 160 CURVE",
"111 152 OFFCURVE",
"122 136 OFFCURVE",
"122 116 CURVE SMOOTH",
"122 99 OFFCURVE",
"113 83 OFFCURVE",
"99 74 CURVE",
"103 75 OFFCURVE",
"107 76 OFFCURVE",
"111 76 CURVE SMOOTH",
"120 76 OFFCURVE",
"129 73 OFFCURVE",
"136 69 CURVE",
"143 73 OFFCURVE",
"152 76 OFFCURVE",
"161 76 CURVE SMOOTH",
"165 76 OFFCURVE",
"170 75 OFFCURVE",
"174 74 CURVE",
"178 75 OFFCURVE",
"182 76 OFFCURVE",
"186 76 CURVE SMOOTH",
"195 76 OFFCURVE",
"204 73 OFFCURVE",
"211 69 CURVE",
"218 73 OFFCURVE",
"227 76 OFFCURVE",
"236 76 CURVE SMOOTH",
"240 76 OFFCURVE",
"244 75 OFFCURVE",
"248 74 CURVE",
"234 83 OFFCURVE",
"225 99 OFFCURVE",
"225 116 CURVE SMOOTH",
"225 143 OFFCURVE",
"247 164 OFFCURVE",
"274 164 CURVE SMOOTH",
"278 164 OFFCURVE",
"282 164 OFFCURVE",
"286 163 CURVE",
"290 164 OFFCURVE",
"294 164 OFFCURVE",
"298 164 CURVE SMOOTH",
"325 164 OFFCURVE",
"347 143 OFFCURVE",
"347 116 CURVE SMOOTH",
"347 89 OFFCURVE",
"325 67 OFFCURVE",
"298 67 CURVE SMOOTH",
"294 67 OFFCURVE",
"291 67 OFFCURVE",
"287 68 CURVE",
"295 63 OFFCURVE",
"301 56 OFFCURVE",
"305 48 CURVE",
"313 64 OFFCURVE",
"330 76 OFFCURVE",
"349 76 CURVE SMOOTH",
"353 76 OFFCURVE",
"357 75 OFFCURVE",
"361 74 CURVE",
"365 75 OFFCURVE",
"369 76 OFFCURVE",
"373 76 CURVE SMOOTH",
"400 76 OFFCURVE",
"422 54 OFFCURVE",
"422 27 CURVE SMOOTH",
"422 0 OFFCURVE",
"400 -22 OFFCURVE",
"373 -22 CURVE SMOOTH",
"369 -22 OFFCURVE",
"365 -22 OFFCURVE",
"361 -21 CURVE",
"357 -22 OFFCURVE",
"353 -22 OFFCURVE",
"349 -22 CURVE SMOOTH",
"330 -22 OFFCURVE",
"313 -11 OFFCURVE",
"305 5 CURVE",
"297 -11 OFFCURVE",
"280 -22 OFFCURVE",
"261 -22 CURVE SMOOTH",
"257 -22 OFFCURVE",
"253 -22 OFFCURVE",
"249 -21 CURVE",
"245 -22 OFFCURVE",
"240 -22 OFFCURVE",
"236 -22 CURVE SMOOTH",
"227 -22 OFFCURVE",
"218 -19 OFFCURVE",
"211 -15 CURVE",
"204 -19 OFFCURVE",
"195 -22 OFFCURVE",
"186 -22 CURVE SMOOTH",
"182 -22 OFFCURVE",
"178 -22 OFFCURVE",
"174 -21 CURVE",
"170 -22 OFFCURVE",
"165 -22 OFFCURVE",
"161 -22 CURVE SMOOTH",
"152 -22 OFFCURVE",
"143 -19 OFFCURVE",
"136 -15 CURVE",
"129 -19 OFFCURVE",
"120 -22 OFFCURVE",
"111 -22 CURVE SMOOTH",
"107 -22 OFFCURVE",
"103 -22 OFFCURVE",
"99 -21 CURVE",
"95 -22 OFFCURVE",
"90 -22 OFFCURVE",
"86 -22 CURVE SMOOTH",
"59 -22 OFFCURVE",
"37 0 OFFCURVE",
"37 27 CURVE SMOOTH",
"37 44 OFFCURVE",
"46 59 OFFCURVE",
"60 68 CURVE",
"56 67 OFFCURVE",
"53 67 OFFCURVE",
"49 67 CURVE SMOOTH",
"22 67 OFFCURVE",
"0 89 OFFCURVE",
"0 116 CURVE SMOOTH",
"0 136 OFFCURVE",
"12 152 OFFCURVE",
"29 160 CURVE",
"12 168 OFFCURVE",
"0 184 OFFCURVE",
"0 204 CURVE SMOOTH",
"0 224 OFFCURVE",
"12 241 OFFCURVE",
"29 249 CURVE",
"12 257 OFFCURVE",
"0 273 OFFCURVE",
"0 293 CURVE SMOOTH",
"0 313 OFFCURVE",
"12 330 OFFCURVE",
"29 338 CURVE",
"12 346 OFFCURVE",
"0 362 OFFCURVE",
"0 382 CURVE SMOOTH",
"0 402 OFFCURVE",
"12 419 OFFCURVE",
"29 427 CURVE",
"12 435 OFFCURVE",
"0 451 OFFCURVE",
"0 471 CURVE SMOOTH",
"0 498 OFFCURVE",
"22 520 OFFCURVE",
"49 520 CURVE SMOOTH",
"53 520 OFFCURVE",
"56 520 OFFCURVE",
"60 519 CURVE",
"46 528 OFFCURVE",
"37 543 OFFCURVE",
"37 560 CURVE SMOOTH",
"37 587 OFFCURVE",
"59 609 OFFCURVE",
"86 609 CURVE SMOOTH",
"90 609 OFFCURVE",
"95 608 OFFCURVE",
"99 607 CURVE",
"103 608 OFFCURVE",
"107 609 OFFCURVE",
"111 609 CURVE SMOOTH",
"120 609 OFFCURVE",
"129 606 OFFCURVE",
"136 602 CURVE",
"143 606 OFFCURVE",
"152 609 OFFCURVE",
"161 609 CURVE SMOOTH",
"165 609 OFFCURVE",
"170 608 OFFCURVE",
"174 607 CURVE",
"178 608 OFFCURVE",
"182 609 OFFCURVE",
"186 609 CURVE SMOOTH",
"195 609 OFFCURVE",
"204 606 OFFCURVE",
"211 602 CURVE",
"218 606 OFFCURVE",
"227 609 OFFCURVE",
"236 609 CURVE SMOOTH",
"240 609 OFFCURVE",
"245 608 OFFCURVE",
"249 607 CURVE",
"253 608 OFFCURVE",
"257 609 OFFCURVE",
"261 609 CURVE SMOOTH",
"270 609 OFFCURVE",
"279 606 OFFCURVE",
"286 602 CURVE",
"293 606 OFFCURVE",
"302 609 OFFCURVE",
"311 609 CURVE SMOOTH",
"315 609 OFFCURVE",
"320 608 OFFCURVE",
"324 607 CURVE",
"328 608 OFFCURVE",
"332 609 OFFCURVE",
"336 609 CURVE SMOOTH",
"363 609 OFFCURVE",
"385 587 OFFCURVE"
);
},
{
closed = 1;
nodes = (
"272 204 CURVE SMOOTH",
"272 177 OFFCURVE",
"250 156 OFFCURVE",
"223 156 CURVE SMOOTH",
"219 156 OFFCURVE",
"215 156 OFFCURVE",
"211 157 CURVE",
"207 156 OFFCURVE",
"203 156 OFFCURVE",
"199 156 CURVE SMOOTH",
"172 156 OFFCURVE",
"150 177 OFFCURVE",
"150 204 CURVE SMOOTH",
"150 231 OFFCURVE",
"172 253 OFFCURVE",
"199 253 CURVE SMOOTH",
"203 253 OFFCURVE",
"207 253 OFFCURVE",
"211 252 CURVE",
"215 253 OFFCURVE",
"219 253 OFFCURVE",
"223 253 CURVE SMOOTH",
"250 253 OFFCURVE",
"272 231 OFFCURVE"
);
}
);
width = 450;
}
);
unicode = 0051;
userData = {
com.fontlab.hintData = {
hhints = (
{
position = -22;
width = 98;
},
{
position = 67;
width = 97;
},
{
position = 156;
width = 97;
},
{
position = 511;
width = 98;
}
);
vhints = (
{
position = 0;
width = 122;
},
{
position = 150;
width = 122;
},
{
position = 225;
width = 122;
},
{
position = 300;
width = 122;
}
);
};
};
},
{
glyphname = R;
lastChange = "2017-08-06 04:48:21 +0000";
layers = (
{
layerId = "9B45E214-161D-4B81-AEB6-0B387D0DDEE2";
paths = (
{
closed = 1;
nodes = (
"347 560 CURVE SMOOTH",
"347 533 OFFCURVE",
"325 511 OFFCURVE",
"298 511 CURVE SMOOTH",
"294 511 OFFCURVE",
"290 512 OFFCURVE",
"286 513 CURVE",
"282 512 OFFCURVE",
"278 511 OFFCURVE",
"274 511 CURVE SMOOTH",
"265 511 OFFCURVE",
"256 514 OFFCURVE",
"249 518 CURVE",
"242 514 OFFCURVE",
"232 511 OFFCURVE",
"223 511 CURVE SMOOTH",
"219 511 OFFCURVE",
"215 512 OFFCURVE",
"211 513 CURVE",
"207 512 OFFCURVE",
"203 511 OFFCURVE",
"199 511 CURVE SMOOTH",
"190 511 OFFCURVE",
"181 514 OFFCURVE",
"174 518 CURVE",
"167 514 OFFCURVE",
"157 511 OFFCURVE",
"148 511 CURVE SMOOTH",
"144 511 OFFCURVE",
"140 512 OFFCURVE",
"136 513 CURVE",
"132 512 OFFCURVE",
"128 511 OFFCURVE",
"124 511 CURVE SMOOTH",
"115 511 OFFCURVE",
"106 514 OFFCURVE",
"99 518 CURVE",
"97 517 OFFCURVE",
"96 517 OFFCURVE",
"94 516 CURVE",
"111 508 OFFCURVE",
"122 491 OFFCURVE",
"122 471 CURVE SMOOTH",
"122 451 OFFCURVE",
"111 435 OFFCURVE",
"94 427 CURVE",
"111 419 OFFCURVE",
"122 402 OFFCURVE",
"122 382 CURVE SMOOTH",
"122 362 OFFCURVE",
"111 346 OFFCURVE",
"94 338 CURVE",
"96 337 OFFCURVE",
"97 336 OFFCURVE",
"99 335 CURVE",
"106 339 OFFCURVE",
"115 342 OFFCURVE",
"124 342 CURVE SMOOTH",
"128 342 OFFCURVE",
"132 342 OFFCURVE",
"136 341 CURVE",
"140 342 OFFCURVE",
"144 342 OFFCURVE",
"148 342 CURVE SMOOTH",
"157 342 OFFCURVE",
"167 339 OFFCURVE",
"174 335 CURVE",
"181 339 OFFCURVE",
"190 342 OFFCURVE",
"199 342 CURVE SMOOTH",
"203 342 OFFCURVE",
"207 342 OFFCURVE",
"211 341 CURVE",
"215 342 OFFCURVE",
"219 342 OFFCURVE",
"223 342 CURVE SMOOTH",
"232 342 OFFCURVE",
"242 339 OFFCURVE",
"249 335 CURVE",
"256 339 OFFCURVE",
"265 342 OFFCURVE",
"274 342 CURVE SMOOTH",
"278 342 OFFCURVE",
"282 342 OFFCURVE",
"286 341 CURVE",
"290 342 OFFCURVE",
"294 342 OFFCURVE",
"298 342 CURVE SMOOTH",
"325 342 OFFCURVE",
"347 320 OFFCURVE",
"347 293 CURVE SMOOTH",
"347 273 OFFCURVE",
"336 257 OFFCURVE",
"319 249 CURVE",
"336 241 OFFCURVE",
"347 224 OFFCURVE",
"347 204 CURVE SMOOTH",
"347 187 OFFCURVE",
"338 172 OFFCURVE",
"324 163 CURVE",
"328 164 OFFCURVE",
"332 164 OFFCURVE",
"336 164 CURVE SMOOTH",
"363 164 OFFCURVE",
"385 143 OFFCURVE",
"385 116 CURVE SMOOTH",
"385 99 OFFCURVE",
"376 83 OFFCURVE",
"362 74 CURVE",
"366 75 OFFCURVE",
"369 76 OFFCURVE",
"373 76 CURVE SMOOTH",
"400 76 OFFCURVE",
"422 54 OFFCURVE",
"422 27 CURVE SMOOTH",
"422 0 OFFCURVE",
"400 -22 OFFCURVE",
"373 -22 CURVE SMOOTH",
"369 -22 OFFCURVE",
"365 -22 OFFCURVE",
"361 -21 CURVE",
"357 -22 OFFCURVE",
"353 -22 OFFCURVE",
"349 -22 CURVE SMOOTH",
"322 -22 OFFCURVE",
"300 0 OFFCURVE",
"300 27 CURVE SMOOTH",
"300 44 OFFCURVE",
"309 59 OFFCURVE",
"323 68 CURVE",
"319 67 OFFCURVE",
"315 67 OFFCURVE",
"311 67 CURVE SMOOTH",
"284 67 OFFCURVE",
"262 89 OFFCURVE",
"262 116 CURVE SMOOTH",
"262 133 OFFCURVE",
"271 148 OFFCURVE",
"285 157 CURVE",
"281 156 OFFCURVE",
"278 156 OFFCURVE",
"274 156 CURVE SMOOTH",
"247 156 OFFCURVE",
"225 177 OFFCURVE",
"225 204 CURVE SMOOTH",
"225 224 OFFCURVE",
"237 241 OFFCURVE",
"254 249 CURVE",
"252 250 OFFCURVE",
"251 250 OFFCURVE",
"249 251 CURVE",
"242 247 OFFCURVE",
"232 244 OFFCURVE",
"223 244 CURVE SMOOTH",
"219 244 OFFCURVE",
"215 245 OFFCURVE",
"211 246 CURVE",
"207 245 OFFCURVE",
"203 244 OFFCURVE",
"199 244 CURVE SMOOTH",
"190 244 OFFCURVE",
"181 247 OFFCURVE",
"174 251 CURVE",
"167 247 OFFCURVE",
"157 244 OFFCURVE",
"148 244 CURVE SMOOTH",
"144 244 OFFCURVE",
"140 245 OFFCURVE",
"136 246 CURVE",
"132 245 OFFCURVE",
"128 244 OFFCURVE",
"124 244 CURVE SMOOTH",
"115 244 OFFCURVE",
"106 247 OFFCURVE",
"99 251 CURVE",
"97 250 OFFCURVE",
"96 250 OFFCURVE",
"94 249 CURVE",
"111 241 OFFCURVE",
"122 224 OFFCURVE",
"122 204 CURVE SMOOTH",
"122 184 OFFCURVE",
"111 168 OFFCURVE",
"94 160 CURVE",
"111 152 OFFCURVE",
"122 136 OFFCURVE",
"122 116 CURVE SMOOTH",
"122 96 OFFCURVE",
"111 79 OFFCURVE",
"94 71 CURVE",
"111 63 OFFCURVE",
"122 47 OFFCURVE",
"122 27 CURVE SMOOTH",
"122 0 OFFCURVE",
"100 -22 OFFCURVE",
"73 -22 CURVE SMOOTH",
"69 -22 OFFCURVE",
"65 -22 OFFCURVE",
"61 -21 CURVE",
"57 -22 OFFCURVE",
"53 -22 OFFCURVE",
"49 -22 CURVE SMOOTH",
"22 -22 OFFCURVE",
"0 0 OFFCURVE",
"0 27 CURVE SMOOTH",
"0 47 OFFCURVE",
"12 63 OFFCURVE",
"29 71 CURVE",
"12 79 OFFCURVE",
"0 96 OFFCURVE",
"0 116 CURVE SMOOTH",
"0 136 OFFCURVE",
"12 152 OFFCURVE",
"29 160 CURVE",
"12 168 OFFCURVE",
"0 184 OFFCURVE",
"0 204 CURVE SMOOTH",
"0 224 OFFCURVE",
"12 241 OFFCURVE",
"29 249 CURVE",
"12 257 OFFCURVE",
"0 273 OFFCURVE",
"0 293 CURVE SMOOTH",
"0 313 OFFCURVE",
"12 330 OFFCURVE",
"29 338 CURVE",
"12 346 OFFCURVE",
"0 362 OFFCURVE",
"0 382 CURVE SMOOTH",
"0 402 OFFCURVE",
"12 419 OFFCURVE",
"29 427 CURVE",
"12 435 OFFCURVE",
"0 451 OFFCURVE",
"0 471 CURVE SMOOTH",
"0 491 OFFCURVE",
"12 508 OFFCURVE",
"29 516 CURVE",
"12 524 OFFCURVE",
"0 540 OFFCURVE",
"0 560 CURVE SMOOTH",
"0 587 OFFCURVE",
"22 609 OFFCURVE",
"49 609 CURVE SMOOTH",
"53 609 OFFCURVE",
"57 608 OFFCURVE",
"61 607 CURVE",
"65 608 OFFCURVE",
"69 609 OFFCURVE",
"73 609 CURVE SMOOTH",
"82 609 OFFCURVE",
"92 606 OFFCURVE",
"99 602 CURVE",
"106 606 OFFCURVE",
"115 609 OFFCURVE",
"124 609 CURVE SMOOTH",
"128 609 OFFCURVE",
"132 608 OFFCURVE",
"136 607 CURVE",
"140 608 OFFCURVE",
"144 609 OFFCURVE",
"148 609 CURVE SMOOTH",
"157 609 OFFCURVE",
"167 606 OFFCURVE",
"174 602 CURVE",
"181 606 OFFCURVE",
"190 609 OFFCURVE",
"199 609 CURVE SMOOTH",
"203 609 OFFCURVE",
"207 608 OFFCURVE",
"211 607 CURVE",
"215 608 OFFCURVE",
"219 609 OFFCURVE",
"223 609 CURVE SMOOTH",
"232 609 OFFCURVE",
"242 606 OFFCURVE",
"249 602 CURVE",
"256 606 OFFCURVE",
"265 609 OFFCURVE",
"274 609 CURVE SMOOTH",
"278 609 OFFCURVE",
"282 608 OFFCURVE",
"286 607 CURVE",
"290 608 OFFCURVE",
"294 609 OFFCURVE",
"298 609 CURVE SMOOTH",
"325 609 OFFCURVE",
"347 587 OFFCURVE"
);
},
{
closed = 1;
nodes = (
"422 471 CURVE SMOOTH",
"422 451 OFFCURVE",
"411 435 OFFCURVE",
"394 427 CURVE",
"411 419 OFFCURVE",
"422 402 OFFCURVE",
"422 382 CURVE SMOOTH",
"422 355 OFFCURVE",
"400 333 OFFCURVE",
"373 333 CURVE SMOOTH",
"369 333 OFFCURVE",
"365 334 OFFCURVE",
"361 335 CURVE",
"357 334 OFFCURVE",
"353 333 OFFCURVE",
"349 333 CURVE SMOOTH",
"322 333 OFFCURVE",
"300 355 OFFCURVE",
"300 382 CURVE SMOOTH",
"300 402 OFFCURVE",
"312 419 OFFCURVE",
"329 427 CURVE",
"312 435 OFFCURVE",
"300 451 OFFCURVE",
"300 471 CURVE SMOOTH",
"300 498 OFFCURVE",
"322 520 OFFCURVE",
"349 520 CURVE SMOOTH",
"353 520 OFFCURVE",
"357 519 OFFCURVE",
"361 518 CURVE",
"365 519 OFFCURVE",
"369 520 OFFCURVE",
"373 520 CURVE SMOOTH",
"400 520 OFFCURVE",
"422 498 OFFCURVE"
);
}
);
width = 450;
}
);
unicode = 0052;
userData = {
com.fontlab.hintData = {
hhints = (
{
position = -22;
width = 98;
},
{
position = 244;
width = 98;
},
{
position = 511;
width = 98;
}
);
vhints = (
{
position = 0;
width = 122;
},
{
position = 225;
width = 122;
},
{
position = 262;
width = 123;
},
{
position = 300;
width = 122;
}
);
};
};
},
{
glyphname = S;
lastChange = "2017-08-06 04:48:21 +0000";
layers = (
{
layerId = "9B45E214-161D-4B81-AEB6-0B387D0DDEE2";
paths = (
{
closed = 1;
nodes = (
"385 560 CURVE SMOOTH",
"385 543 OFFCURVE",
"376 528 OFFCURVE",
"362 519 CURVE",
"366 520 OFFCURVE",
"369 520 OFFCURVE",
"373 520 CURVE SMOOTH",
"400 520 OFFCURVE",
"422 498 OFFCURVE",
"422 471 CURVE SMOOTH",
"422 444 OFFCURVE",
"400 422 OFFCURVE",
"373 422 CURVE SMOOTH",
"369 422 OFFCURVE",
"365 423 OFFCURVE",
"361 424 CURVE",
"357 423 OFFCURVE",
"353 422 OFFCURVE",
"349 422 CURVE SMOOTH",
"322 422 OFFCURVE",
"300 444 OFFCURVE",
"300 471 CURVE SMOOTH",
"300 488 OFFCURVE",
"309 503 OFFCURVE",
"323 512 CURVE",
"319 511 OFFCURVE",
"315 511 OFFCURVE",
"311 511 CURVE SMOOTH",
"302 511 OFFCURVE",
"293 514 OFFCURVE",
"286 518 CURVE",
"279 514 OFFCURVE",
"270 511 OFFCURVE",
"261 511 CURVE SMOOTH",
"257 511 OFFCURVE",
"253 512 OFFCURVE",
"249 513 CURVE",
"245 512 OFFCURVE",
"240 511 OFFCURVE",
"236 511 CURVE SMOOTH",
"227 511 OFFCURVE",
"218 514 OFFCURVE",
"211 518 CURVE",
"204 514 OFFCURVE",
"195 511 OFFCURVE",
"186 511 CURVE SMOOTH",
"182 511 OFFCURVE",
"178 512 OFFCURVE",
"174 513 CURVE",
"170 512 OFFCURVE",
"165 511 OFFCURVE",
"161 511 CURVE SMOOTH",
"152 511 OFFCURVE",
"143 514 OFFCURVE",
"136 518 CURVE",
"129 514 OFFCURVE",
"120 511 OFFCURVE",
"111 511 CURVE SMOOTH",
"107 511 OFFCURVE",
"103 511 OFFCURVE",
"99 512 CURVE",
"113 503 OFFCURVE",
"122 488 OFFCURVE",
"122 471 CURVE SMOOTH",
"122 451 OFFCURVE",
"111 435 OFFCURVE",
"94 427 CURVE",
"111 419 OFFCURVE",
"122 402 OFFCURVE",
"122 382 CURVE SMOOTH",
"122 365 OFFCURVE",
"113 350 OFFCURVE",
"99 341 CURVE",
"103 342 OFFCURVE",
"107 342 OFFCURVE",
"111 342 CURVE SMOOTH",
"120 342 OFFCURVE",
"129 339 OFFCURVE",
"136 335 CURVE",
"143 339 OFFCURVE",
"152 342 OFFCURVE",
"161 342 CURVE SMOOTH",
"165 342 OFFCURVE",
"170 342 OFFCURVE",
"174 341 CURVE",
"178 342 OFFCURVE",
"182 342 OFFCURVE",
"186 342 CURVE SMOOTH",
"195 342 OFFCURVE",
"204 339 OFFCURVE",
"211 335 CURVE",
"218 339 OFFCURVE",
"227 342 OFFCURVE",
"236 342 CURVE SMOOTH",
"240 342 OFFCURVE",
"245 342 OFFCURVE",
"249 341 CURVE",
"253 342 OFFCURVE",
"257 342 OFFCURVE",
"261 342 CURVE SMOOTH",
"270 342 OFFCURVE",
"279 339 OFFCURVE",
"286 335 CURVE",
"293 339 OFFCURVE",
"302 342 OFFCURVE",
"311 342 CURVE SMOOTH",
"315 342 OFFCURVE",
"320 342 OFFCURVE",
"324 341 CURVE",
"328 342 OFFCURVE",
"332 342 OFFCURVE",
"336 342 CURVE SMOOTH",
"363 342 OFFCURVE",
"385 320 OFFCURVE",
"385 293 CURVE SMOOTH",
"385 276 OFFCURVE",
"376 261 OFFCURVE",
"362 252 CURVE",
"366 253 OFFCURVE",
"369 253 OFFCURVE",
"373 253 CURVE SMOOTH",
"400 253 OFFCURVE",
"422 231 OFFCURVE",
"422 204 CURVE SMOOTH",
"422 184 OFFCURVE",
"411 168 OFFCURVE",
"394 160 CURVE",
"411 152 OFFCURVE",
"422 136 OFFCURVE",
"422 116 CURVE SMOOTH",
"422 89 OFFCURVE",
"400 67 OFFCURVE",
"373 67 CURVE SMOOTH",
"369 67 OFFCURVE",
"366 67 OFFCURVE",
"362 68 CURVE",
"376 59 OFFCURVE",
"385 44 OFFCURVE",
"385 27 CURVE SMOOTH",
"385 0 OFFCURVE",
"363 -22 OFFCURVE",
"336 -22 CURVE SMOOTH",
"332 -22 OFFCURVE",
"328 -22 OFFCURVE",
"324 -21 CURVE",
"320 -22 OFFCURVE",
"315 -22 OFFCURVE",
"311 -22 CURVE SMOOTH",
"302 -22 OFFCURVE",
"293 -19 OFFCURVE",
"286 -15 CURVE",
"279 -19 OFFCURVE",
"270 -22 OFFCURVE",
"261 -22 CURVE SMOOTH",
"257 -22 OFFCURVE",
"253 -22 OFFCURVE",
"249 -21 CURVE",
"245 -22 OFFCURVE",
"240 -22 OFFCURVE",
"236 -22 CURVE SMOOTH",
"227 -22 OFFCURVE",
"218 -19 OFFCURVE",
"211 -15 CURVE",
"204 -19 OFFCURVE",
"195 -22 OFFCURVE",
"186 -22 CURVE SMOOTH",
"182 -22 OFFCURVE",
"178 -22 OFFCURVE",
"174 -21 CURVE",
"170 -22 OFFCURVE",
"165 -22 OFFCURVE",
"161 -22 CURVE SMOOTH",
"152 -22 OFFCURVE",
"143 -19 OFFCURVE",
"136 -15 CURVE",
"129 -19 OFFCURVE",
"120 -22 OFFCURVE",
"111 -22 CURVE SMOOTH",
"107 -22 OFFCURVE",
"103 -22 OFFCURVE",
"99 -21 CURVE",
"95 -22 OFFCURVE",
"90 -22 OFFCURVE",
"86 -22 CURVE SMOOTH",
"59 -22 OFFCURVE",
"37 0 OFFCURVE",
"37 27 CURVE SMOOTH",
"37 44 OFFCURVE",
"46 59 OFFCURVE",
"60 68 CURVE",
"56 67 OFFCURVE",
"53 67 OFFCURVE",
"49 67 CURVE SMOOTH",
"22 67 OFFCURVE",
"0 89 OFFCURVE",
"0 116 CURVE SMOOTH",
"0 143 OFFCURVE",
"22 164 OFFCURVE",
"49 164 CURVE SMOOTH",
"53 164 OFFCURVE",
"57 164 OFFCURVE",
"61 163 CURVE",
"65 164 OFFCURVE",
"69 164 OFFCURVE",
"73 164 CURVE SMOOTH",
"100 164 OFFCURVE",
"122 143 OFFCURVE",
"122 116 CURVE SMOOTH",
"122 99 OFFCURVE",
"113 83 OFFCURVE",
"99 74 CURVE",
"103 75 OFFCURVE",
"107 76 OFFCURVE",
"111 76 CURVE SMOOTH",
"120 76 OFFCURVE",
"129 73 OFFCURVE",
"136 69 CURVE",
"143 73 OFFCURVE",
"152 76 OFFCURVE",
"161 76 CURVE SMOOTH",
"165 76 OFFCURVE",
"170 75 OFFCURVE",
"174 74 CURVE",
"178 75 OFFCURVE",
"182 76 OFFCURVE",
"186 76 CURVE SMOOTH",
"195 76 OFFCURVE",
"204 73 OFFCURVE",
"211 69 CURVE",
"218 73 OFFCURVE",
"227 76 OFFCURVE",
"236 76 CURVE SMOOTH",
"240 76 OFFCURVE",
"245 75 OFFCURVE",
"249 74 CURVE",
"253 75 OFFCURVE",
"257 76 OFFCURVE",
"261 76 CURVE SMOOTH",
"270 76 OFFCURVE",
"279 73 OFFCURVE",
"286 69 CURVE",
"293 73 OFFCURVE",
"302 76 OFFCURVE",
"311 76 CURVE SMOOTH",
"315 76 OFFCURVE",
"319 75 OFFCURVE",
"323 74 CURVE",
"309 83 OFFCURVE",
"300 99 OFFCURVE",
"300 116 CURVE SMOOTH",
"300 136 OFFCURVE",
"312 152 OFFCURVE",
"329 160 CURVE",
"312 168 OFFCURVE",
"300 184 OFFCURVE",
"300 204 CURVE SMOOTH",
"300 221 OFFCURVE",
"309 237 OFFCURVE",
"323 246 CURVE",
"319 245 OFFCURVE",
"315 244 OFFCURVE",
"311 244 CURVE SMOOTH",
"302 244 OFFCURVE",
"293 247 OFFCURVE",
"286 251 CURVE",
"279 247 OFFCURVE",
"270 244 OFFCURVE",
"261 244 CURVE SMOOTH",
"257 244 OFFCURVE",
"253 245 OFFCURVE",
"249 246 CURVE",
"245 245 OFFCURVE",
"240 244 OFFCURVE",
"236 244 CURVE SMOOTH",
"227 244 OFFCURVE",
"218 247 OFFCURVE",
"211 251 CURVE",
"204 247 OFFCURVE",
"195 244 OFFCURVE",
"186 244 CURVE SMOOTH",
"182 244 OFFCURVE",
"178 245 OFFCURVE",
"174 246 CURVE",
"170 245 OFFCURVE",
"165 244 OFFCURVE",
"161 244 CURVE SMOOTH",
"152 244 OFFCURVE",
"143 247 OFFCURVE",
"136 251 CURVE",
"129 247 OFFCURVE",
"120 244 OFFCURVE",
"111 244 CURVE SMOOTH",
"107 244 OFFCURVE",
"103 245 OFFCURVE",
"99 246 CURVE",
"95 245 OFFCURVE",
"90 244 OFFCURVE",
"86 244 CURVE SMOOTH",
"59 244 OFFCURVE",
"37 266 OFFCURVE",
"37 293 CURVE SMOOTH",
"37 310 OFFCURVE",
"46 326 OFFCURVE",
"60 335 CURVE",
"56 334 OFFCURVE",
"53 333 OFFCURVE",
"49 333 CURVE SMOOTH",
"22 333 OFFCURVE",
"0 355 OFFCURVE",
"0 382 CURVE SMOOTH",
"0 402 OFFCURVE",
"12 419 OFFCURVE",
"29 427 CURVE",
"12 435 OFFCURVE",
"0 451 OFFCURVE",
"0 471 CURVE SMOOTH",
"0 498 OFFCURVE",
"22 520 OFFCURVE",
"49 520 CURVE SMOOTH",
"53 520 OFFCURVE",
"56 520 OFFCURVE",
"60 519 CURVE",
"46 528 OFFCURVE",
"37 543 OFFCURVE",
"37 560 CURVE SMOOTH",
"37 587 OFFCURVE",
"59 609 OFFCURVE",
"86 609 CURVE SMOOTH",
"90 609 OFFCURVE",
"95 608 OFFCURVE",
"99 607 CURVE",
"103 608 OFFCURVE",
"107 609 OFFCURVE",
"111 609 CURVE SMOOTH",
"120 609 OFFCURVE",
"129 606 OFFCURVE",
"136 602 CURVE",
"143 606 OFFCURVE",
"152 609 OFFCURVE",
"161 609 CURVE SMOOTH",
"165 609 OFFCURVE",
"170 608 OFFCURVE",
"174 607 CURVE",
"178 608 OFFCURVE",
"182 609 OFFCURVE",
"186 609 CURVE SMOOTH",
"195 609 OFFCURVE",
"204 606 OFFCURVE",
"211 602 CURVE",
"218 606 OFFCURVE",
"227 609 OFFCURVE",
"236 609 CURVE SMOOTH",
"240 609 OFFCURVE",
"245 608 OFFCURVE",
"249 607 CURVE",
"253 608 OFFCURVE",
"257 609 OFFCURVE",
"261 609 CURVE SMOOTH",
"270 609 OFFCURVE",
"279 606 OFFCURVE",
"286 602 CURVE",
"293 606 OFFCURVE",
"302 609 OFFCURVE",
"311 609 CURVE SMOOTH",
"315 609 OFFCURVE",
"320 608 OFFCURVE",
"324 607 CURVE",
"328 608 OFFCURVE",
"332 609 OFFCURVE",
"336 609 CURVE SMOOTH",
"363 609 OFFCURVE",
"385 587 OFFCURVE"
);
}
);
width = 450;
}
);
unicode = 0053;
userData = {
com.fontlab.hintData = {
hhints = (
{
position = -22;
width = 98;
},
{
position = 67;
width = 97;
},
{
position = 244;
width = 98;
},
{
position = 422;
width = 98;
},
{
position = 511;
width = 98;
}
);
vhints = (
{
position = 0;
width = 122;
},
{
position = 37;
width = 348;
},
{
position = 300;
width = 122;
}
);
};
};
},
{
glyphname = T;
lastChange = "2017-08-06 04:48:21 +0000";
layers = (
{
layerId = "9B45E214-161D-4B81-AEB6-0B387D0DDEE2";
paths = (
{
closed = 1;
nodes = (
"422 560 CURVE SMOOTH",
"422 533 OFFCURVE",
"400 511 OFFCURVE",
"373 511 CURVE SMOOTH",
"369 511 OFFCURVE",
"365 512 OFFCURVE",
"361 513 CURVE",
"357 512 OFFCURVE",
"353 511 OFFCURVE",
"349 511 CURVE SMOOTH",
"340 511 OFFCURVE",
"331 514 OFFCURVE",
"324 518 CURVE",
"317 514 OFFCURVE",
"307 511 OFFCURVE",
"298 511 CURVE SMOOTH",
"294 511 OFFCURVE",
"290 512 OFFCURVE",
"286 513 CURVE",
"282 512 OFFCURVE",
"278 511 OFFCURVE",
"274 511 CURVE SMOOTH",
"265 511 OFFCURVE",
"256 514 OFFCURVE",
"249 518 CURVE",
"247 517 OFFCURVE",
"246 517 OFFCURVE",
"244 516 CURVE",
"261 508 OFFCURVE",
"272 491 OFFCURVE",
"272 471 CURVE SMOOTH",
"272 451 OFFCURVE",
"261 435 OFFCURVE",
"244 427 CURVE",
"261 419 OFFCURVE",
"272 402 OFFCURVE",
"272 382 CURVE SMOOTH",
"272 362 OFFCURVE",
"261 346 OFFCURVE",
"244 338 CURVE",
"261 330 OFFCURVE",
"272 313 OFFCURVE",
"272 293 CURVE SMOOTH",
"272 273 OFFCURVE",
"261 257 OFFCURVE",
"244 249 CURVE",
"261 241 OFFCURVE",
"272 224 OFFCURVE",
"272 204 CURVE SMOOTH",
"272 184 OFFCURVE",
"261 168 OFFCURVE",
"244 160 CURVE",
"261 152 OFFCURVE",
"272 136 OFFCURVE",
"272 116 CURVE SMOOTH",
"272 96 OFFCURVE",
"261 79 OFFCURVE",
"244 71 CURVE",
"261 63 OFFCURVE",
"272 47 OFFCURVE",
"272 27 CURVE SMOOTH",
"272 0 OFFCURVE",
"250 -22 OFFCURVE",
"223 -22 CURVE SMOOTH",
"219 -22 OFFCURVE",
"215 -22 OFFCURVE",
"211 -21 CURVE",
"207 -22 OFFCURVE",
"203 -22 OFFCURVE",
"199 -22 CURVE SMOOTH",
"172 -22 OFFCURVE",
"150 0 OFFCURVE",
"150 27 CURVE SMOOTH",
"150 47 OFFCURVE",
"162 63 OFFCURVE",
"179 71 CURVE",
"162 79 OFFCURVE",
"150 96 OFFCURVE",
"150 116 CURVE SMOOTH",
"150 136 OFFCURVE",
"162 152 OFFCURVE",
"179 160 CURVE",
"162 168 OFFCURVE",
"150 184 OFFCURVE",
"150 204 CURVE SMOOTH",
"150 224 OFFCURVE",
"162 241 OFFCURVE",
"179 249 CURVE",
"162 257 OFFCURVE",
"150 273 OFFCURVE",
"150 293 CURVE SMOOTH",
"150 313 OFFCURVE",
"162 330 OFFCURVE",
"179 338 CURVE",
"162 346 OFFCURVE",
"150 362 OFFCURVE",
"150 382 CURVE SMOOTH",
"150 402 OFFCURVE",
"162 419 OFFCURVE",
"179 427 CURVE",
"162 435 OFFCURVE",
"150 451 OFFCURVE",
"150 471 CURVE SMOOTH",
"150 491 OFFCURVE",
"162 508 OFFCURVE",
"179 516 CURVE",
"177 517 OFFCURVE",
"176 517 OFFCURVE",
"174 518 CURVE",
"167 514 OFFCURVE",
"157 511 OFFCURVE",
"148 511 CURVE SMOOTH",
"144 511 OFFCURVE",
"140 512 OFFCURVE",
"136 513 CURVE",
"132 512 OFFCURVE",
"128 511 OFFCURVE",
"124 511 CURVE SMOOTH",
"115 511 OFFCURVE",
"106 514 OFFCURVE",
"99 518 CURVE",
"92 514 OFFCURVE",
"82 511 OFFCURVE",
"73 511 CURVE SMOOTH",
"69 511 OFFCURVE",
"65 512 OFFCURVE",
"61 513 CURVE",
"57 512 OFFCURVE",
"53 511 OFFCURVE",
"49 511 CURVE SMOOTH",
"22 511 OFFCURVE",
"0 533 OFFCURVE",
"0 560 CURVE SMOOTH",
"0 587 OFFCURVE",
"22 609 OFFCURVE",
"49 609 CURVE SMOOTH",
"53 609 OFFCURVE",
"57 608 OFFCURVE",
"61 607 CURVE",
"65 608 OFFCURVE",
"69 609 OFFCURVE",
"73 609 CURVE SMOOTH",
"82 609 OFFCURVE",
"92 606 OFFCURVE",
"99 602 CURVE",
"106 606 OFFCURVE",
"115 609 OFFCURVE",
"124 609 CURVE SMOOTH",
"128 609 OFFCURVE",
"132 608 OFFCURVE",
"136 607 CURVE",
"140 608 OFFCURVE",
"144 609 OFFCURVE",
"148 609 CURVE SMOOTH",
"157 609 OFFCURVE",
"167 606 OFFCURVE",
"174 602 CURVE",
"181 606 OFFCURVE",
"190 609 OFFCURVE",
"199 609 CURVE SMOOTH",
"203 609 OFFCURVE",
"207 608 OFFCURVE",
"211 607 CURVE",
"215 608 OFFCURVE",
"219 609 OFFCURVE",
"223 609 CURVE SMOOTH",
"232 609 OFFCURVE",
"242 606 OFFCURVE",
"249 602 CURVE",
"256 606 OFFCURVE",
"265 609 OFFCURVE",
"274 609 CURVE SMOOTH",
"278 609 OFFCURVE",
"282 608 OFFCURVE",
"286 607 CURVE",
"290 608 OFFCURVE",
"294 609 OFFCURVE",
"298 609 CURVE SMOOTH",
"307 609 OFFCURVE",
"317 606 OFFCURVE",
"324 602 CURVE",
"331 606 OFFCURVE",
"340 609 OFFCURVE",
"349 609 CURVE SMOOTH",
"353 609 OFFCURVE",
"357 608 OFFCURVE",
"361 607 CURVE",
"365 608 OFFCURVE",
"369 609 OFFCURVE",
"373 609 CURVE SMOOTH",
"400 609 OFFCURVE",
"422 587 OFFCURVE"
);
}
);
width = 450;
}
);
unicode = 0054;
userData = {
com.fontlab.hintData = {
hhints = (
{
position = -22;
width = 21;
},
{
position = -22;
width = 21;
},
{
position = 511;
width = 98;
}
);
vhints = (
{
position = 150;
width = 122;
}
);
};
};
},
{
glyphname = U;
lastChange = "2017-08-06 04:48:21 +0000";
layers = (
{
layerId = "9B45E214-161D-4B81-AEB6-0B387D0DDEE2";
paths = (
{
closed = 1;
nodes = (
"122 560 CURVE SMOOTH",
"122 540 OFFCURVE",
"111 524 OFFCURVE",
"94 516 CURVE",
"111 508 OFFCURVE",
"122 491 OFFCURVE",
"122 471 CURVE SMOOTH",
"122 451 OFFCURVE",
"111 435 OFFCURVE",
"94 427 CURVE",
"111 419 OFFCURVE",
"122 402 OFFCURVE",
"122 382 CURVE SMOOTH",
"122 362 OFFCURVE",
"111 346 OFFCURVE",
"94 338 CURVE",
"111 330 OFFCURVE",
"122 313 OFFCURVE",
"122 293 CURVE SMOOTH",
"122 273 OFFCURVE",
"111 257 OFFCURVE",
"94 249 CURVE",
"111 241 OFFCURVE",
"122 224 OFFCURVE",
"122 204 CURVE SMOOTH",
"122 184 OFFCURVE",
"111 168 OFFCURVE",
"94 160 CURVE",
"111 152 OFFCURVE",
"122 136 OFFCURVE",
"122 116 CURVE SMOOTH",
"122 99 OFFCURVE",
"113 83 OFFCURVE",
"99 74 CURVE",
"103 75 OFFCURVE",
"107 76 OFFCURVE",
"111 76 CURVE SMOOTH",
"120 76 OFFCURVE",
"129 73 OFFCURVE",
"136 69 CURVE",
"143 73 OFFCURVE",
"152 76 OFFCURVE",
"161 76 CURVE SMOOTH",
"165 76 OFFCURVE",
"170 75 OFFCURVE",
"174 74 CURVE",
"178 75 OFFCURVE",
"182 76 OFFCURVE",
"186 76 CURVE SMOOTH",
"195 76 OFFCURVE",
"204 73 OFFCURVE",
"211 69 CURVE",
"218 73 OFFCURVE",
"227 76 OFFCURVE",
"236 76 CURVE SMOOTH",
"240 76 OFFCURVE",
"245 75 OFFCURVE",
"249 74 CURVE",
"253 75 OFFCURVE",
"257 76 OFFCURVE",
"261 76 CURVE SMOOTH",
"270 76 OFFCURVE",
"279 73 OFFCURVE",
"286 69 CURVE",
"293 73 OFFCURVE",
"302 76 OFFCURVE",
"311 76 CURVE SMOOTH",
"315 76 OFFCURVE",
"319 75 OFFCURVE",
"323 74 CURVE",
"309 83 OFFCURVE",
"300 99 OFFCURVE",
"300 116 CURVE SMOOTH",
"300 136 OFFCURVE",
"312 152 OFFCURVE",
"329 160 CURVE",
"312 168 OFFCURVE",
"300 184 OFFCURVE",
"300 204 CURVE SMOOTH",
"300 224 OFFCURVE",
"312 241 OFFCURVE",
"329 249 CURVE",
"312 257 OFFCURVE",
"300 273 OFFCURVE",
"300 293 CURVE SMOOTH",
"300 313 OFFCURVE",
"312 330 OFFCURVE",
"329 338 CURVE",
"312 346 OFFCURVE",
"300 362 OFFCURVE",
"300 382 CURVE SMOOTH",
"300 402 OFFCURVE",
"312 419 OFFCURVE",
"329 427 CURVE",
"312 435 OFFCURVE",
"300 451 OFFCURVE",
"300 471 CURVE SMOOTH",
"300 491 OFFCURVE",
"312 508 OFFCURVE",
"329 516 CURVE",
"312 524 OFFCURVE",
"300 540 OFFCURVE",
"300 560 CURVE SMOOTH",
"300 587 OFFCURVE",
"322 609 OFFCURVE",
"349 609 CURVE SMOOTH",
"353 609 OFFCURVE",
"357 608 OFFCURVE",
"361 607 CURVE",
"365 608 OFFCURVE",
"369 609 OFFCURVE",
"373 609 CURVE SMOOTH",
"400 609 OFFCURVE",
"422 587 OFFCURVE",
"422 560 CURVE SMOOTH",
"422 540 OFFCURVE",
"411 524 OFFCURVE",
"394 516 CURVE",
"411 508 OFFCURVE",
"422 491 OFFCURVE",
"422 471 CURVE SMOOTH",
"422 451 OFFCURVE",
"411 435 OFFCURVE",
"394 427 CURVE",
"411 419 OFFCURVE",
"422 402 OFFCURVE",
"422 382 CURVE SMOOTH",
"422 362 OFFCURVE",
"411 346 OFFCURVE",
"394 338 CURVE",
"411 330 OFFCURVE",
"422 313 OFFCURVE",
"422 293 CURVE SMOOTH",
"422 273 OFFCURVE",
"411 257 OFFCURVE",
"394 249 CURVE",
"411 241 OFFCURVE",
"422 224 OFFCURVE",
"422 204 CURVE SMOOTH",
"422 184 OFFCURVE",
"411 168 OFFCURVE",
"394 160 CURVE",
"411 152 OFFCURVE",
"422 136 OFFCURVE",
"422 116 CURVE SMOOTH",
"422 89 OFFCURVE",
"400 67 OFFCURVE",
"373 67 CURVE SMOOTH",
"369 67 OFFCURVE",
"366 67 OFFCURVE",
"362 68 CURVE",
"376 59 OFFCURVE",
"385 44 OFFCURVE",
"385 27 CURVE SMOOTH",
"385 0 OFFCURVE",
"363 -22 OFFCURVE",
"336 -22 CURVE SMOOTH",
"332 -22 OFFCURVE",
"328 -22 OFFCURVE",
"324 -21 CURVE",
"320 -22 OFFCURVE",
"315 -22 OFFCURVE",
"311 -22 CURVE SMOOTH",
"302 -22 OFFCURVE",
"293 -19 OFFCURVE",
"286 -15 CURVE",
"279 -19 OFFCURVE",
"270 -22 OFFCURVE",
"261 -22 CURVE SMOOTH",
"257 -22 OFFCURVE",
"253 -22 OFFCURVE",
"249 -21 CURVE",
"245 -22 OFFCURVE",
"240 -22 OFFCURVE",
"236 -22 CURVE SMOOTH",
"227 -22 OFFCURVE",
"218 -19 OFFCURVE",
"211 -15 CURVE",
"204 -19 OFFCURVE",
"195 -22 OFFCURVE",
"186 -22 CURVE SMOOTH",
"182 -22 OFFCURVE",
"178 -22 OFFCURVE",
"174 -21 CURVE",
"170 -22 OFFCURVE",
"165 -22 OFFCURVE",
"161 -22 CURVE SMOOTH",
"152 -22 OFFCURVE",
"143 -19 OFFCURVE",
"136 -15 CURVE",
"129 -19 OFFCURVE",
"120 -22 OFFCURVE",
"111 -22 CURVE SMOOTH",
"107 -22 OFFCURVE",
"103 -22 OFFCURVE",
"99 -21 CURVE",
"95 -22 OFFCURVE",
"90 -22 OFFCURVE",
"86 -22 CURVE SMOOTH",
"59 -22 OFFCURVE",
"37 0 OFFCURVE",
"37 27 CURVE SMOOTH",
"37 44 OFFCURVE",
"46 59 OFFCURVE",
"60 68 CURVE",
"56 67 OFFCURVE",
"53 67 OFFCURVE",
"49 67 CURVE SMOOTH",
"22 67 OFFCURVE",
"0 89 OFFCURVE",
"0 116 CURVE SMOOTH",
"0 136 OFFCURVE",
"12 152 OFFCURVE",
"29 160 CURVE",
"12 168 OFFCURVE",
"0 184 OFFCURVE",
"0 204 CURVE SMOOTH",
"0 224 OFFCURVE",
"12 241 OFFCURVE",
"29 249 CURVE",
"12 257 OFFCURVE",
"0 273 OFFCURVE",
"0 293 CURVE SMOOTH",
"0 313 OFFCURVE",
"12 330 OFFCURVE",
"29 338 CURVE",
"12 346 OFFCURVE",
"0 362 OFFCURVE",
"0 382 CURVE SMOOTH",
"0 402 OFFCURVE",
"12 419 OFFCURVE",
"29 427 CURVE",
"12 435 OFFCURVE",
"0 451 OFFCURVE",
"0 471 CURVE SMOOTH",
"0 491 OFFCURVE",
"12 508 OFFCURVE",
"29 516 CURVE",
"12 524 OFFCURVE",
"0 540 OFFCURVE",
"0 560 CURVE SMOOTH",
"0 587 OFFCURVE",
"22 609 OFFCURVE",
"49 609 CURVE SMOOTH",
"53 609 OFFCURVE",
"57 608 OFFCURVE",
"61 607 CURVE",
"65 608 OFFCURVE",
"69 609 OFFCURVE",
"73 609 CURVE SMOOTH",
"100 609 OFFCURVE",
"122 587 OFFCURVE"
);
}
);
width = 450;
}
);
unicode = 0055;
userData = {
com.fontlab.hintData = {
hhints = (
{
position = -22;
width = 98;
},
{
position = 589;
width = 20;
}
);
vhints = (
{
position = 0;
width = 122;
},
{
position = 300;
width = 122;
}
);
};
};
},
{
glyphname = V;
lastChange = "2017-08-06 04:48:21 +0000";
layers = (
{
layerId = "9B45E214-161D-4B81-AEB6-0B387D0DDEE2";
paths = (
{
closed = 1;
nodes = (
"122 560 CURVE SMOOTH",
"122 540 OFFCURVE",
"111 524 OFFCURVE",
"94 516 CURVE",
"111 508 OFFCURVE",
"122 491 OFFCURVE",
"122 471 CURVE SMOOTH",
"122 451 OFFCURVE",
"111 435 OFFCURVE",
"94 427 CURVE",
"111 419 OFFCURVE",
"122 402 OFFCURVE",
"122 382 CURVE SMOOTH",
"122 365 OFFCURVE",
"113 350 OFFCURVE",
"99 341 CURVE",
"103 342 OFFCURVE",
"107 342 OFFCURVE",
"111 342 CURVE SMOOTH",
"138 342 OFFCURVE",
"160 320 OFFCURVE",
"160 293 CURVE SMOOTH",
"160 276 OFFCURVE",
"151 261 OFFCURVE",
"137 252 CURVE",
"141 253 OFFCURVE",
"144 253 OFFCURVE",
"148 253 CURVE SMOOTH",
"175 253 OFFCURVE",
"197 231 OFFCURVE",
"197 204 CURVE SMOOTH",
"197 187 OFFCURVE",
"188 172 OFFCURVE",
"174 163 CURVE",
"178 164 OFFCURVE",
"182 164 OFFCURVE",
"186 164 CURVE SMOOTH",
"195 164 OFFCURVE",
"204 161 OFFCURVE",
"211 157 CURVE",
"218 161 OFFCURVE",
"227 164 OFFCURVE",
"236 164 CURVE SMOOTH",
"240 164 OFFCURVE",
"244 164 OFFCURVE",
"248 163 CURVE",
"234 172 OFFCURVE",
"225 187 OFFCURVE",
"225 204 CURVE SMOOTH",
"225 231 OFFCURVE",
"247 253 OFFCURVE",
"274 253 CURVE SMOOTH",
"278 253 OFFCURVE",
"281 253 OFFCURVE",
"285 252 CURVE",
"271 261 OFFCURVE",
"262 276 OFFCURVE",
"262 293 CURVE SMOOTH",
"262 320 OFFCURVE",
"284 342 OFFCURVE",
"311 342 CURVE SMOOTH",
"315 342 OFFCURVE",
"319 342 OFFCURVE",
"323 341 CURVE",
"309 350 OFFCURVE",
"300 365 OFFCURVE",
"300 382 CURVE SMOOTH",
"300 402 OFFCURVE",
"312 419 OFFCURVE",
"329 427 CURVE",
"312 435 OFFCURVE",
"300 451 OFFCURVE",
"300 471 CURVE SMOOTH",
"300 491 OFFCURVE",
"312 508 OFFCURVE",
"329 516 CURVE",
"312 524 OFFCURVE",
"300 540 OFFCURVE",
"300 560 CURVE SMOOTH",
"300 587 OFFCURVE",
"322 609 OFFCURVE",
"349 609 CURVE SMOOTH",
"353 609 OFFCURVE",
"357 608 OFFCURVE",
"361 607 CURVE",
"365 608 OFFCURVE",
"369 609 OFFCURVE",
"373 609 CURVE SMOOTH",
"400 609 OFFCURVE",
"422 587 OFFCURVE",
"422 560 CURVE SMOOTH",
"422 540 OFFCURVE",
"411 524 OFFCURVE",
"394 516 CURVE",
"411 508 OFFCURVE",
"422 491 OFFCURVE",
"422 471 CURVE SMOOTH",
"422 451 OFFCURVE",
"411 435 OFFCURVE",
"394 427 CURVE",
"411 419 OFFCURVE",
"422 402 OFFCURVE",
"422 382 CURVE SMOOTH",
"422 355 OFFCURVE",
"400 333 OFFCURVE",
"373 333 CURVE SMOOTH",
"369 333 OFFCURVE",
"366 334 OFFCURVE",
"362 335 CURVE",
"376 326 OFFCURVE",
"385 310 OFFCURVE",
"385 293 CURVE SMOOTH",
"385 266 OFFCURVE",
"363 244 OFFCURVE",
"336 244 CURVE SMOOTH",
"332 244 OFFCURVE",
"328 245 OFFCURVE",
"324 246 CURVE",
"338 237 OFFCURVE",
"347 221 OFFCURVE",
"347 204 CURVE SMOOTH",
"347 177 OFFCURVE",
"325 156 OFFCURVE",
"298 156 CURVE SMOOTH",
"294 156 OFFCURVE",
"291 156 OFFCURVE",
"287 157 CURVE",
"301 148 OFFCURVE",
"310 133 OFFCURVE",
"310 116 CURVE SMOOTH",
"310 89 OFFCURVE",
"288 67 OFFCURVE",
"261 67 CURVE SMOOTH",
"257 67 OFFCURVE",
"253 67 OFFCURVE",
"249 68 CURVE",
"263 59 OFFCURVE",
"272 44 OFFCURVE",
"272 27 CURVE SMOOTH",
"272 0 OFFCURVE",
"250 -22 OFFCURVE",
"223 -22 CURVE SMOOTH",
"219 -22 OFFCURVE",
"215 -22 OFFCURVE",
"211 -21 CURVE",
"207 -22 OFFCURVE",
"203 -22 OFFCURVE",
"199 -22 CURVE SMOOTH",
"172 -22 OFFCURVE",
"150 0 OFFCURVE",
"150 27 CURVE SMOOTH",
"150 44 OFFCURVE",
"159 59 OFFCURVE",
"173 68 CURVE",
"169 67 OFFCURVE",
"165 67 OFFCURVE",
"161 67 CURVE SMOOTH",
"134 67 OFFCURVE",
"112 89 OFFCURVE",
"112 116 CURVE SMOOTH",
"112 133 OFFCURVE",
"121 148 OFFCURVE",
"135 157 CURVE",
"131 156 OFFCURVE",
"128 156 OFFCURVE",
"124 156 CURVE SMOOTH",
"97 156 OFFCURVE",
"75 177 OFFCURVE",
"75 204 CURVE SMOOTH",
"75 221 OFFCURVE",
"84 237 OFFCURVE",
"98 246 CURVE",
"94 245 OFFCURVE",
"90 244 OFFCURVE",
"86 244 CURVE SMOOTH",
"59 244 OFFCURVE",
"37 266 OFFCURVE",
"37 293 CURVE SMOOTH",
"37 310 OFFCURVE",
"46 326 OFFCURVE",
"60 335 CURVE",
"56 334 OFFCURVE",
"53 333 OFFCURVE",
"49 333 CURVE SMOOTH",
"22 333 OFFCURVE",
"0 355 OFFCURVE",
"0 382 CURVE SMOOTH",
"0 402 OFFCURVE",
"12 419 OFFCURVE",
"29 427 CURVE",
"12 435 OFFCURVE",
"0 451 OFFCURVE",
"0 471 CURVE SMOOTH",
"0 491 OFFCURVE",
"12 508 OFFCURVE",
"29 516 CURVE",
"12 524 OFFCURVE",
"0 540 OFFCURVE",
"0 560 CURVE SMOOTH",
"0 587 OFFCURVE",
"22 609 OFFCURVE",
"49 609 CURVE SMOOTH",
"53 609 OFFCURVE",
"57 608 OFFCURVE",
"61 607 CURVE",
"65 608 OFFCURVE",
"69 609 OFFCURVE",
"73 609 CURVE SMOOTH",
"100 609 OFFCURVE",
"122 587 OFFCURVE"
);
}
);
width = 450;
}
);
unicode = 0056;
userData = {
com.fontlab.hintData = {
hhints = (
{
position = -22;
width = 21;
},
{
position = -22;
width = 21;
},
{
position = 589;
width = 20;
}
);
vhints = (
{
position = 0;
width = 122;
},
{
position = 37;
width = 123;
},
{
position = 75;
width = 122;
},
{
position = 112;
width = 198;
},
{
position = 150;
width = 122;
},
{
position = 225;
width = 122;
},
{
position = 262;
width = 123;
},
{
position = 300;
width = 122;
}
);
};
};
},
{
glyphname = W;
lastChange = "2017-08-06 04:48:21 +0000";
layers = (
{
layerId = "9B45E214-161D-4B81-AEB6-0B387D0DDEE2";
paths = (
{
closed = 1;
nodes = (
"122 560 CURVE SMOOTH",
"122 540 OFFCURVE",
"111 524 OFFCURVE",
"94 516 CURVE",
"111 508 OFFCURVE",
"122 491 OFFCURVE",
"122 471 CURVE SMOOTH",
"122 451 OFFCURVE",
"111 435 OFFCURVE",
"94 427 CURVE",
"111 419 OFFCURVE",
"122 402 OFFCURVE",
"122 382 CURVE SMOOTH",
"122 362 OFFCURVE",
"111 346 OFFCURVE",
"94 338 CURVE",
"111 330 OFFCURVE",
"122 313 OFFCURVE",
"122 293 CURVE SMOOTH",
"122 273 OFFCURVE",
"111 257 OFFCURVE",
"94 249 CURVE",
"104 244 OFFCURVE",
"112 236 OFFCURVE",
"117 226 CURVE",
"125 242 OFFCURVE",
"142 253 OFFCURVE",
"161 253 CURVE SMOOTH",
"165 253 OFFCURVE",
"169 253 OFFCURVE",
"173 252 CURVE",
"159 261 OFFCURVE",
"150 276 OFFCURVE",
"150 293 CURVE SMOOTH",
"150 313 OFFCURVE",
"162 330 OFFCURVE",
"179 338 CURVE",
"162 346 OFFCURVE",
"150 362 OFFCURVE",
"150 382 CURVE SMOOTH",
"150 409 OFFCURVE",
"172 431 OFFCURVE",
"199 431 CURVE SMOOTH",
"203 431 OFFCURVE",
"207 431 OFFCURVE",
"211 430 CURVE",
"215 431 OFFCURVE",
"219 431 OFFCURVE",
"223 431 CURVE SMOOTH",
"250 431 OFFCURVE",
"272 409 OFFCURVE",
"272 382 CURVE SMOOTH",
"272 362 OFFCURVE",
"261 346 OFFCURVE",
"244 338 CURVE",
"261 330 OFFCURVE",
"272 313 OFFCURVE",
"272 293 CURVE SMOOTH",
"272 276 OFFCURVE",
"263 261 OFFCURVE",
"249 252 CURVE",
"253 253 OFFCURVE",
"257 253 OFFCURVE",
"261 253 CURVE SMOOTH",
"280 253 OFFCURVE",
"297 242 OFFCURVE",
"305 226 CURVE",
"310 236 OFFCURVE",
"319 244 OFFCURVE",
"329 249 CURVE",
"312 257 OFFCURVE",
"300 273 OFFCURVE",
"300 293 CURVE SMOOTH",
"300 313 OFFCURVE",
"312 330 OFFCURVE",
"329 338 CURVE",
"312 346 OFFCURVE",
"300 362 OFFCURVE",
"300 382 CURVE SMOOTH",
"300 402 OFFCURVE",
"312 419 OFFCURVE",
"329 427 CURVE",
"312 435 OFFCURVE",
"300 451 OFFCURVE",
"300 471 CURVE SMOOTH",
"300 491 OFFCURVE",
"312 508 OFFCURVE",
"329 516 CURVE",
"312 524 OFFCURVE",
"300 540 OFFCURVE",
"300 560 CURVE SMOOTH",
"300 587 OFFCURVE",
"322 609 OFFCURVE",
"349 609 CURVE SMOOTH",
"353 609 OFFCURVE",
"357 608 OFFCURVE",
"361 607 CURVE",
"365 608 OFFCURVE",
"369 609 OFFCURVE",
"373 609 CURVE SMOOTH",
"400 609 OFFCURVE",
"422 587 OFFCURVE",
"422 560 CURVE SMOOTH",
"422 540 OFFCURVE",
"411 524 OFFCURVE",
"394 516 CURVE",
"411 508 OFFCURVE",
"422 491 OFFCURVE",
"422 471 CURVE SMOOTH",
"422 451 OFFCURVE",
"411 435 OFFCURVE",
"394 427 CURVE",
"411 419 OFFCURVE",
"422 402 OFFCURVE",
"422 382 CURVE SMOOTH",
"422 362 OFFCURVE",
"411 346 OFFCURVE",
"394 338 CURVE",
"411 330 OFFCURVE",
"422 313 OFFCURVE",
"422 293 CURVE SMOOTH",
"422 273 OFFCURVE",
"411 257 OFFCURVE",
"394 249 CURVE",
"411 241 OFFCURVE",
"422 224 OFFCURVE",
"422 204 CURVE SMOOTH",
"422 184 OFFCURVE",
"411 168 OFFCURVE",
"394 160 CURVE",
"411 152 OFFCURVE",
"422 136 OFFCURVE",
"422 116 CURVE SMOOTH",
"422 89 OFFCURVE",
"400 67 OFFCURVE",
"373 67 CURVE SMOOTH",
"369 67 OFFCURVE",
"366 67 OFFCURVE",
"362 68 CURVE",
"376 59 OFFCURVE",
"385 44 OFFCURVE",
"385 27 CURVE SMOOTH",
"385 0 OFFCURVE",
"363 -22 OFFCURVE",
"336 -22 CURVE SMOOTH",
"332 -22 OFFCURVE",
"328 -22 OFFCURVE",
"324 -21 CURVE",
"320 -22 OFFCURVE",
"315 -22 OFFCURVE",
"311 -22 CURVE SMOOTH",
"284 -22 OFFCURVE",
"262 0 OFFCURVE",
"262 27 CURVE SMOOTH",
"262 44 OFFCURVE",
"271 59 OFFCURVE",
"285 68 CURVE",
"281 67 OFFCURVE",
"278 67 OFFCURVE",
"274 67 CURVE SMOOTH",
"247 67 OFFCURVE",
"225 89 OFFCURVE",
"225 116 CURVE SMOOTH",
"225 133 OFFCURVE",
"234 148 OFFCURVE",
"248 157 CURVE",
"244 156 OFFCURVE",
"240 156 OFFCURVE",
"236 156 CURVE SMOOTH",
"227 156 OFFCURVE",
"218 159 OFFCURVE",
"211 163 CURVE",
"204 159 OFFCURVE",
"195 156 OFFCURVE",
"186 156 CURVE SMOOTH",
"182 156 OFFCURVE",
"178 156 OFFCURVE",
"174 157 CURVE",
"188 148 OFFCURVE",
"197 133 OFFCURVE",
"197 116 CURVE SMOOTH",
"197 89 OFFCURVE",
"175 67 OFFCURVE",
"148 67 CURVE SMOOTH",
"144 67 OFFCURVE",
"141 67 OFFCURVE",
"137 68 CURVE",
"151 59 OFFCURVE",
"160 44 OFFCURVE",
"160 27 CURVE SMOOTH",
"160 0 OFFCURVE",
"138 -22 OFFCURVE",
"111 -22 CURVE SMOOTH",
"107 -22 OFFCURVE",
"103 -22 OFFCURVE",
"99 -21 CURVE",
"95 -22 OFFCURVE",
"90 -22 OFFCURVE",
"86 -22 CURVE SMOOTH",
"59 -22 OFFCURVE",
"37 0 OFFCURVE",
"37 27 CURVE SMOOTH",
"37 44 OFFCURVE",
"46 59 OFFCURVE",
"60 68 CURVE",
"56 67 OFFCURVE",
"53 67 OFFCURVE",
"49 67 CURVE SMOOTH",
"22 67 OFFCURVE",
"0 89 OFFCURVE",
"0 116 CURVE SMOOTH",
"0 136 OFFCURVE",
"12 152 OFFCURVE",
"29 160 CURVE",
"12 168 OFFCURVE",
"0 184 OFFCURVE",
"0 204 CURVE SMOOTH",
"0 224 OFFCURVE",
"12 241 OFFCURVE",
"29 249 CURVE",
"12 257 OFFCURVE",
"0 273 OFFCURVE",
"0 293 CURVE SMOOTH",
"0 313 OFFCURVE",
"12 330 OFFCURVE",
"29 338 CURVE",
"12 346 OFFCURVE",
"0 362 OFFCURVE",
"0 382 CURVE SMOOTH",
"0 402 OFFCURVE",
"12 419 OFFCURVE",
"29 427 CURVE",
"12 435 OFFCURVE",
"0 451 OFFCURVE",
"0 471 CURVE SMOOTH",
"0 491 OFFCURVE",
"12 508 OFFCURVE",
"29 516 CURVE",
"12 524 OFFCURVE",
"0 540 OFFCURVE",
"0 560 CURVE SMOOTH",
"0 587 OFFCURVE",
"22 609 OFFCURVE",
"49 609 CURVE SMOOTH",
"53 609 OFFCURVE",
"57 608 OFFCURVE",
"61 607 CURVE",
"65 608 OFFCURVE",
"69 609 OFFCURVE",
"73 609 CURVE SMOOTH",
"100 609 OFFCURVE",
"122 587 OFFCURVE"
);
},
{
closed = 1;
nodes = (
"117 183 CURVE",
"112 173 OFFCURVE",
"104 165 OFFCURVE",
"94 160 CURVE",
"96 159 OFFCURVE",
"97 158 OFFCURVE",
"99 157 CURVE",
"106 161 OFFCURVE",
"115 164 OFFCURVE",
"124 164 CURVE SMOOTH",
"128 164 OFFCURVE",
"131 164 OFFCURVE",
"135 163 CURVE",
"127 168 OFFCURVE",
"121 175 OFFCURVE"
);
},
{
closed = 1;
nodes = (
"305 183 CURVE",
"301 175 OFFCURVE",
"295 168 OFFCURVE",
"287 163 CURVE",
"291 164 OFFCURVE",
"294 164 OFFCURVE",
"298 164 CURVE SMOOTH",
"307 164 OFFCURVE",
"317 161 OFFCURVE",
"324 157 CURVE",
"326 158 OFFCURVE",
"327 159 OFFCURVE",
"329 160 CURVE",
"319 165 OFFCURVE",
"310 173 OFFCURVE"
);
}
);
width = 450;
}
);
unicode = 0057;
userData = {
com.fontlab.hintData = {
hhints = (
{
position = -22;
width = 186;
},
{
position = 67;
width = 186;
},
{
position = 411;
width = 20;
},
{
position = 589;
width = 20;
}
);
vhints = (
{
position = 0;
width = 197;
},
{
position = 0;
width = 122;
},
{
position = 37;
width = 123;
},
{
position = 150;
width = 122;
},
{
position = 225;
width = 197;
},
{
position = 262;
width = 123;
},
{
position = 300;
width = 122;
}
);
};
};
},
{
glyphname = X;
lastChange = "2017-08-06 04:48:21 +0000";
layers = (
{
layerId = "9B45E214-161D-4B81-AEB6-0B387D0DDEE2";
paths = (
{
closed = 1;
nodes = (
"160 560 CURVE SMOOTH",
"160 543 OFFCURVE",
"151 528 OFFCURVE",
"137 519 CURVE",
"141 520 OFFCURVE",
"144 520 OFFCURVE",
"148 520 CURVE SMOOTH",
"175 520 OFFCURVE",
"197 498 OFFCURVE",
"197 471 CURVE SMOOTH",
"197 454 OFFCURVE",
"188 439 OFFCURVE",
"174 430 CURVE",
"178 431 OFFCURVE",
"182 431 OFFCURVE",
"186 431 CURVE SMOOTH",
"195 431 OFFCURVE",
"204 428 OFFCURVE",
"211 424 CURVE",
"218 428 OFFCURVE",
"227 431 OFFCURVE",
"236 431 CURVE SMOOTH",
"240 431 OFFCURVE",
"244 431 OFFCURVE",
"248 430 CURVE",
"234 439 OFFCURVE",
"225 454 OFFCURVE",
"225 471 CURVE SMOOTH",
"225 498 OFFCURVE",
"247 520 OFFCURVE",
"274 520 CURVE SMOOTH",
"278 520 OFFCURVE",
"281 520 OFFCURVE",
"285 519 CURVE",
"271 528 OFFCURVE",
"262 543 OFFCURVE",
"262 560 CURVE SMOOTH",
"262 587 OFFCURVE",
"284 609 OFFCURVE",
"311 609 CURVE SMOOTH",
"315 609 OFFCURVE",
"320 608 OFFCURVE",
"324 607 CURVE",
"328 608 OFFCURVE",
"332 609 OFFCURVE",
"336 609 CURVE SMOOTH",
"363 609 OFFCURVE",
"385 587 OFFCURVE",
"385 560 CURVE SMOOTH",
"385 533 OFFCURVE",
"363 511 OFFCURVE",
"336 511 CURVE SMOOTH",
"332 511 OFFCURVE",
"328 511 OFFCURVE",
"324 512 CURVE",
"338 503 OFFCURVE",
"347 488 OFFCURVE",
"347 471 CURVE SMOOTH",
"347 444 OFFCURVE",
"325 422 OFFCURVE",
"298 422 CURVE SMOOTH",
"294 422 OFFCURVE",
"291 423 OFFCURVE",
"287 424 CURVE",
"301 415 OFFCURVE",
"310 399 OFFCURVE",
"310 382 CURVE SMOOTH",
"310 355 OFFCURVE",
"288 333 OFFCURVE",
"261 333 CURVE SMOOTH",
"257 333 OFFCURVE",
"253 334 OFFCURVE",
"249 335 CURVE",
"263 326 OFFCURVE",
"272 310 OFFCURVE",
"272 293 CURVE SMOOTH",
"272 276 OFFCURVE",
"263 261 OFFCURVE",
"249 252 CURVE",
"253 253 OFFCURVE",
"257 253 OFFCURVE",
"261 253 CURVE SMOOTH",
"288 253 OFFCURVE",
"310 231 OFFCURVE",
"310 204 CURVE SMOOTH",
"310 187 OFFCURVE",
"301 172 OFFCURVE",
"287 163 CURVE",
"291 164 OFFCURVE",
"294 164 OFFCURVE",
"298 164 CURVE SMOOTH",
"325 164 OFFCURVE",
"347 143 OFFCURVE",
"347 116 CURVE SMOOTH",
"347 99 OFFCURVE",
"338 83 OFFCURVE",
"324 74 CURVE",
"328 75 OFFCURVE",
"332 76 OFFCURVE",
"336 76 CURVE SMOOTH",
"363 76 OFFCURVE",
"385 54 OFFCURVE",
"385 27 CURVE SMOOTH",
"385 0 OFFCURVE",
"363 -22 OFFCURVE",
"336 -22 CURVE SMOOTH",
"332 -22 OFFCURVE",
"328 -22 OFFCURVE",
"324 -21 CURVE",
"320 -22 OFFCURVE",
"315 -22 OFFCURVE",
"311 -22 CURVE SMOOTH",
"284 -22 OFFCURVE",
"262 0 OFFCURVE",
"262 27 CURVE SMOOTH",
"262 44 OFFCURVE",
"271 59 OFFCURVE",
"285 68 CURVE",
"281 67 OFFCURVE",
"278 67 OFFCURVE",
"274 67 CURVE SMOOTH",
"247 67 OFFCURVE",
"225 89 OFFCURVE",
"225 116 CURVE SMOOTH",
"225 133 OFFCURVE",
"234 148 OFFCURVE",
"248 157 CURVE",
"244 156 OFFCURVE",
"240 156 OFFCURVE",
"236 156 CURVE SMOOTH",
"227 156 OFFCURVE",
"218 159 OFFCURVE",
"211 163 CURVE",
"204 159 OFFCURVE",
"195 156 OFFCURVE",
"186 156 CURVE SMOOTH",
"182 156 OFFCURVE",
"178 156 OFFCURVE",
"174 157 CURVE",
"188 148 OFFCURVE",
"197 133 OFFCURVE",
"197 116 CURVE SMOOTH",
"197 89 OFFCURVE",
"175 67 OFFCURVE",
"148 67 CURVE SMOOTH",
"144 67 OFFCURVE",
"141 67 OFFCURVE",
"137 68 CURVE",
"151 59 OFFCURVE",
"160 44 OFFCURVE",
"160 27 CURVE SMOOTH",
"160 0 OFFCURVE",
"138 -22 OFFCURVE",
"111 -22 CURVE SMOOTH",
"107 -22 OFFCURVE",
"103 -22 OFFCURVE",
"99 -21 CURVE",
"95 -22 OFFCURVE",
"90 -22 OFFCURVE",
"86 -22 CURVE SMOOTH",
"59 -22 OFFCURVE",
"37 0 OFFCURVE",
"37 27 CURVE SMOOTH",
"37 54 OFFCURVE",
"59 76 OFFCURVE",
"86 76 CURVE SMOOTH",
"90 76 OFFCURVE",
"94 75 OFFCURVE",
"98 74 CURVE",
"84 83 OFFCURVE",
"75 99 OFFCURVE",
"75 116 CURVE SMOOTH",
"75 143 OFFCURVE",
"97 164 OFFCURVE",
"124 164 CURVE SMOOTH",
"128 164 OFFCURVE",
"131 164 OFFCURVE",
"135 163 CURVE",
"121 172 OFFCURVE",
"112 187 OFFCURVE",
"112 204 CURVE SMOOTH",
"112 231 OFFCURVE",
"134 253 OFFCURVE",
"161 253 CURVE SMOOTH",
"165 253 OFFCURVE",
"169 253 OFFCURVE",
"173 252 CURVE",
"159 261 OFFCURVE",
"150 276 OFFCURVE",
"150 293 CURVE SMOOTH",
"150 310 OFFCURVE",
"159 326 OFFCURVE",
"173 335 CURVE",
"169 334 OFFCURVE",
"165 333 OFFCURVE",
"161 333 CURVE SMOOTH",
"134 333 OFFCURVE",
"112 355 OFFCURVE",
"112 382 CURVE SMOOTH",
"112 399 OFFCURVE",
"121 415 OFFCURVE",
"135 424 CURVE",
"131 423 OFFCURVE",
"128 422 OFFCURVE",
"124 422 CURVE SMOOTH",
"97 422 OFFCURVE",
"75 444 OFFCURVE",
"75 471 CURVE SMOOTH",
"75 488 OFFCURVE",
"84 503 OFFCURVE",
"98 512 CURVE",
"94 511 OFFCURVE",
"90 511 OFFCURVE",
"86 511 CURVE SMOOTH",
"59 511 OFFCURVE",
"37 533 OFFCURVE",
"37 560 CURVE SMOOTH",
"37 587 OFFCURVE",
"59 609 OFFCURVE",
"86 609 CURVE SMOOTH",
"90 609 OFFCURVE",
"95 608 OFFCURVE",
"99 607 CURVE",
"103 608 OFFCURVE",
"107 609 OFFCURVE",
"111 609 CURVE SMOOTH",
"138 609 OFFCURVE",
"160 587 OFFCURVE"
);
}
);
width = 450;
}
);
unicode = 0058;
userData = {
com.fontlab.hintData = {
hhints = (
{
position = -22;
width = 186;
},
{
position = -22;
width = 98;
},
{
position = 67;
width = 186;
},
{
position = 411;
width = 20;
},
{
position = 511;
width = 98;
}
);
vhints = (
{
position = 37;
width = 123;
},
{
position = 75;
width = 122;
},
{
position = 112;
width = 198;
},
{
position = 150;
width = 122;
},
{
position = 225;
width = 122;
},
{
position = 262;
width = 123;
}
);
};
};
},
{
glyphname = Y;
lastChange = "2017-08-06 04:48:21 +0000";
layers = (
{
layerId = "9B45E214-161D-4B81-AEB6-0B387D0DDEE2";
paths = (
{
closed = 1;
nodes = (
"122 560 CURVE SMOOTH",
"122 543 OFFCURVE",
"113 528 OFFCURVE",
"99 519 CURVE",
"103 520 OFFCURVE",
"107 520 OFFCURVE",
"111 520 CURVE SMOOTH",
"138 520 OFFCURVE",
"160 498 OFFCURVE",
"160 471 CURVE SMOOTH",
"160 454 OFFCURVE",
"151 439 OFFCURVE",
"137 430 CURVE",
"141 431 OFFCURVE",
"144 431 OFFCURVE",
"148 431 CURVE SMOOTH",
"175 431 OFFCURVE",
"197 409 OFFCURVE",
"197 382 CURVE SMOOTH",
"197 365 OFFCURVE",
"188 350 OFFCURVE",
"174 341 CURVE",
"178 342 OFFCURVE",
"182 342 OFFCURVE",
"186 342 CURVE SMOOTH",
"195 342 OFFCURVE",
"204 339 OFFCURVE",
"211 335 CURVE",
"218 339 OFFCURVE",
"227 342 OFFCURVE",
"236 342 CURVE SMOOTH",
"240 342 OFFCURVE",
"244 342 OFFCURVE",
"248 341 CURVE",
"234 350 OFFCURVE",
"225 365 OFFCURVE",
"225 382 CURVE SMOOTH",
"225 409 OFFCURVE",
"247 431 OFFCURVE",
"274 431 CURVE SMOOTH",
"278 431 OFFCURVE",
"281 431 OFFCURVE",
"285 430 CURVE",
"271 439 OFFCURVE",
"262 454 OFFCURVE",
"262 471 CURVE SMOOTH",
"262 498 OFFCURVE",
"284 520 OFFCURVE",
"311 520 CURVE SMOOTH",
"315 520 OFFCURVE",
"319 520 OFFCURVE",
"323 519 CURVE",
"309 528 OFFCURVE",
"300 543 OFFCURVE",
"300 560 CURVE SMOOTH",
"300 587 OFFCURVE",
"322 609 OFFCURVE",
"349 609 CURVE SMOOTH",
"353 609 OFFCURVE",
"357 608 OFFCURVE",
"361 607 CURVE",
"365 608 OFFCURVE",
"369 609 OFFCURVE",
"373 609 CURVE SMOOTH",
"400 609 OFFCURVE",
"422 587 OFFCURVE",
"422 560 CURVE SMOOTH",
"422 533 OFFCURVE",
"400 511 OFFCURVE",
"373 511 CURVE SMOOTH",
"369 511 OFFCURVE",
"366 511 OFFCURVE",
"362 512 CURVE",
"376 503 OFFCURVE",
"385 488 OFFCURVE",
"385 471 CURVE SMOOTH",
"385 444 OFFCURVE",
"363 422 OFFCURVE",
"336 422 CURVE SMOOTH",
"332 422 OFFCURVE",
"328 423 OFFCURVE",
"324 424 CURVE",
"338 415 OFFCURVE",
"347 399 OFFCURVE",
"347 382 CURVE SMOOTH",
"347 355 OFFCURVE",
"325 333 OFFCURVE",
"298 333 CURVE SMOOTH",
"294 333 OFFCURVE",
"291 334 OFFCURVE",
"287 335 CURVE",
"301 326 OFFCURVE",
"310 310 OFFCURVE",
"310 293 CURVE SMOOTH",
"310 266 OFFCURVE",
"288 244 OFFCURVE",
"261 244 CURVE SMOOTH",
"257 244 OFFCURVE",
"253 245 OFFCURVE",
"249 246 CURVE",
"263 237 OFFCURVE",
"272 221 OFFCURVE",
"272 204 CURVE SMOOTH",
"272 184 OFFCURVE",
"261 168 OFFCURVE",
"244 160 CURVE",
"261 152 OFFCURVE",
"272 136 OFFCURVE",
"272 116 CURVE SMOOTH",
"272 96 OFFCURVE",
"261 79 OFFCURVE",
"244 71 CURVE",
"261 63 OFFCURVE",
"272 47 OFFCURVE",
"272 27 CURVE SMOOTH",
"272 0 OFFCURVE",
"250 -22 OFFCURVE",
"223 -22 CURVE SMOOTH",
"219 -22 OFFCURVE",
"215 -22 OFFCURVE",
"211 -21 CURVE",
"207 -22 OFFCURVE",
"203 -22 OFFCURVE",
"199 -22 CURVE SMOOTH",
"172 -22 OFFCURVE",
"150 0 OFFCURVE",
"150 27 CURVE SMOOTH",
"150 47 OFFCURVE",
"162 63 OFFCURVE",
"179 71 CURVE",
"162 79 OFFCURVE",
"150 96 OFFCURVE",
"150 116 CURVE SMOOTH",
"150 136 OFFCURVE",
"162 152 OFFCURVE",
"179 160 CURVE",
"162 168 OFFCURVE",
"150 184 OFFCURVE",
"150 204 CURVE SMOOTH",
"150 221 OFFCURVE",
"159 237 OFFCURVE",
"173 246 CURVE",
"169 245 OFFCURVE",
"165 244 OFFCURVE",
"161 244 CURVE SMOOTH",
"134 244 OFFCURVE",
"112 266 OFFCURVE",
"112 293 CURVE SMOOTH",
"112 310 OFFCURVE",
"121 326 OFFCURVE",
"135 335 CURVE",
"131 334 OFFCURVE",
"128 333 OFFCURVE",
"124 333 CURVE SMOOTH",
"97 333 OFFCURVE",
"75 355 OFFCURVE",
"75 382 CURVE SMOOTH",
"75 399 OFFCURVE",
"84 415 OFFCURVE",
"98 424 CURVE",
"94 423 OFFCURVE",
"90 422 OFFCURVE",
"86 422 CURVE SMOOTH",
"59 422 OFFCURVE",
"37 444 OFFCURVE",
"37 471 CURVE SMOOTH",
"37 488 OFFCURVE",
"46 503 OFFCURVE",
"60 512 CURVE",
"56 511 OFFCURVE",
"53 511 OFFCURVE",
"49 511 CURVE SMOOTH",
"22 511 OFFCURVE",
"0 533 OFFCURVE",
"0 560 CURVE SMOOTH",
"0 587 OFFCURVE",
"22 609 OFFCURVE",
"49 609 CURVE SMOOTH",
"53 609 OFFCURVE",
"57 608 OFFCURVE",
"61 607 CURVE",
"65 608 OFFCURVE",
"69 609 OFFCURVE",
"73 609 CURVE SMOOTH",
"100 609 OFFCURVE",
"122 587 OFFCURVE"
);
}
);
width = 450;
}
);
unicode = 0059;
userData = {
com.fontlab.hintData = {
hhints = (
{
position = -22;
width = 21;
},
{
position = -22;
width = 21;
},
{
position = 411;
width = 20;
},
{
position = 511;
width = 98;
}
);
vhints = (
{
position = 0;
width = 122;
},
{
position = 37;
width = 123;
},
{
position = 75;
width = 122;
},
{
position = 112;
width = 198;
},
{
position = 150;
width = 122;
},
{
position = 225;
width = 122;
},
{
position = 262;
width = 123;
},
{
position = 300;
width = 122;
}
);
};
};
},
{
glyphname = Z;
lastChange = "2017-08-06 04:48:21 +0000";
layers = (
{
layerId = "9B45E214-161D-4B81-AEB6-0B387D0DDEE2";
paths = (
{
closed = 1;
nodes = (
"385 560 CURVE SMOOTH",
"385 533 OFFCURVE",
"363 511 OFFCURVE",
"336 511 CURVE SMOOTH",
"332 511 OFFCURVE",
"328 511 OFFCURVE",
"324 512 CURVE",
"338 503 OFFCURVE",
"347 488 OFFCURVE",
"347 471 CURVE SMOOTH",
"347 444 OFFCURVE",
"325 422 OFFCURVE",
"298 422 CURVE SMOOTH",
"294 422 OFFCURVE",
"291 423 OFFCURVE",
"287 424 CURVE",
"301 415 OFFCURVE",
"310 399 OFFCURVE",
"310 382 CURVE SMOOTH",
"310 355 OFFCURVE",
"288 333 OFFCURVE",
"261 333 CURVE SMOOTH",
"257 333 OFFCURVE",
"253 334 OFFCURVE",
"249 335 CURVE",
"263 326 OFFCURVE",
"272 310 OFFCURVE",
"272 293 CURVE SMOOTH",
"272 266 OFFCURVE",
"250 244 OFFCURVE",
"223 244 CURVE SMOOTH",
"219 244 OFFCURVE",
"216 245 OFFCURVE",
"212 246 CURVE",
"226 237 OFFCURVE",
"235 221 OFFCURVE",
"235 204 CURVE SMOOTH",
"235 177 OFFCURVE",
"213 156 OFFCURVE",
"186 156 CURVE SMOOTH",
"182 156 OFFCURVE",
"178 156 OFFCURVE",
"174 157 CURVE",
"188 148 OFFCURVE",
"197 133 OFFCURVE",
"197 116 CURVE SMOOTH",
"197 99 OFFCURVE",
"188 83 OFFCURVE",
"174 74 CURVE",
"178 75 OFFCURVE",
"182 76 OFFCURVE",
"186 76 CURVE SMOOTH",
"195 76 OFFCURVE",
"204 73 OFFCURVE",
"211 69 CURVE",
"218 73 OFFCURVE",
"227 76 OFFCURVE",
"236 76 CURVE SMOOTH",
"240 76 OFFCURVE",
"245 75 OFFCURVE",
"249 74 CURVE",
"253 75 OFFCURVE",
"257 76 OFFCURVE",
"261 76 CURVE SMOOTH",
"270 76 OFFCURVE",
"279 73 OFFCURVE",
"286 69 CURVE",
"293 73 OFFCURVE",
"302 76 OFFCURVE",
"311 76 CURVE SMOOTH",
"315 76 OFFCURVE",
"320 75 OFFCURVE",
"324 74 CURVE",
"328 75 OFFCURVE",
"332 76 OFFCURVE",
"336 76 CURVE SMOOTH",
"363 76 OFFCURVE",
"385 54 OFFCURVE",
"385 27 CURVE SMOOTH",
"385 0 OFFCURVE",
"363 -22 OFFCURVE",
"336 -22 CURVE SMOOTH",
"332 -22 OFFCURVE",
"328 -22 OFFCURVE",
"324 -21 CURVE",
"320 -22 OFFCURVE",
"315 -22 OFFCURVE",
"311 -22 CURVE SMOOTH",
"302 -22 OFFCURVE",
"293 -19 OFFCURVE",
"286 -15 CURVE",
"279 -19 OFFCURVE",
"270 -22 OFFCURVE",
"261 -22 CURVE SMOOTH",
"257 -22 OFFCURVE",
"253 -22 OFFCURVE",
"249 -21 CURVE",
"245 -22 OFFCURVE",
"240 -22 OFFCURVE",
"236 -22 CURVE SMOOTH",
"227 -22 OFFCURVE",
"218 -19 OFFCURVE",
"211 -15 CURVE",
"204 -19 OFFCURVE",
"195 -22 OFFCURVE",
"186 -22 CURVE SMOOTH",
"182 -22 OFFCURVE",
"178 -22 OFFCURVE",
"174 -21 CURVE",
"170 -22 OFFCURVE",
"165 -22 OFFCURVE",
"161 -22 CURVE SMOOTH",
"152 -22 OFFCURVE",
"143 -19 OFFCURVE",
"136 -15 CURVE",
"129 -19 OFFCURVE",
"120 -22 OFFCURVE",
"111 -22 CURVE SMOOTH",
"107 -22 OFFCURVE",
"103 -22 OFFCURVE",
"99 -21 CURVE",
"95 -22 OFFCURVE",
"90 -22 OFFCURVE",
"86 -22 CURVE SMOOTH",
"59 -22 OFFCURVE",
"37 0 OFFCURVE",
"37 27 CURVE SMOOTH",
"37 54 OFFCURVE",
"59 76 OFFCURVE",
"86 76 CURVE SMOOTH",
"90 76 OFFCURVE",
"94 75 OFFCURVE",
"98 74 CURVE",
"84 83 OFFCURVE",
"75 99 OFFCURVE",
"75 116 CURVE SMOOTH",
"75 143 OFFCURVE",
"97 164 OFFCURVE",
"124 164 CURVE SMOOTH",
"128 164 OFFCURVE",
"131 164 OFFCURVE",
"135 163 CURVE",
"121 172 OFFCURVE",
"112 187 OFFCURVE",
"112 204 CURVE SMOOTH",
"112 231 OFFCURVE",
"134 253 OFFCURVE",
"161 253 CURVE SMOOTH",
"165 253 OFFCURVE",
"169 253 OFFCURVE",
"173 252 CURVE",
"159 261 OFFCURVE",
"150 276 OFFCURVE",
"150 293 CURVE SMOOTH",
"150 320 OFFCURVE",
"172 342 OFFCURVE",
"199 342 CURVE SMOOTH",
"203 342 OFFCURVE",
"206 342 OFFCURVE",
"210 341 CURVE",
"196 350 OFFCURVE",
"188 365 OFFCURVE",
"188 382 CURVE SMOOTH",
"188 409 OFFCURVE",
"209 431 OFFCURVE",
"236 431 CURVE SMOOTH",
"240 431 OFFCURVE",
"244 431 OFFCURVE",
"248 430 CURVE",
"234 439 OFFCURVE",
"225 454 OFFCURVE",
"225 471 CURVE SMOOTH",
"225 488 OFFCURVE",
"234 503 OFFCURVE",
"248 512 CURVE",
"244 511 OFFCURVE",
"240 511 OFFCURVE",
"236 511 CURVE SMOOTH",
"227 511 OFFCURVE",
"218 514 OFFCURVE",
"211 518 CURVE",
"204 514 OFFCURVE",
"195 511 OFFCURVE",
"186 511 CURVE SMOOTH",
"182 511 OFFCURVE",
"178 512 OFFCURVE",
"174 513 CURVE",
"170 512 OFFCURVE",
"165 511 OFFCURVE",
"161 511 CURVE SMOOTH",
"152 511 OFFCURVE",
"143 514 OFFCURVE",
"136 518 CURVE",
"129 514 OFFCURVE",
"120 511 OFFCURVE",
"111 511 CURVE SMOOTH",
"107 511 OFFCURVE",
"103 512 OFFCURVE",
"99 513 CURVE",
"95 512 OFFCURVE",
"90 511 OFFCURVE",
"86 511 CURVE SMOOTH",
"59 511 OFFCURVE",
"37 533 OFFCURVE",
"37 560 CURVE SMOOTH",
"37 587 OFFCURVE",
"59 609 OFFCURVE",
"86 609 CURVE SMOOTH",
"90 609 OFFCURVE",
"95 608 OFFCURVE",
"99 607 CURVE",
"103 608 OFFCURVE",
"107 609 OFFCURVE",
"111 609 CURVE SMOOTH",
"120 609 OFFCURVE",
"129 606 OFFCURVE",
"136 602 CURVE",
"143 606 OFFCURVE",
"152 609 OFFCURVE",
"161 609 CURVE SMOOTH",
"165 609 OFFCURVE",
"170 608 OFFCURVE",
"174 607 CURVE",
"178 608 OFFCURVE",
"182 609 OFFCURVE",
"186 609 CURVE SMOOTH",
"195 609 OFFCURVE",
"204 606 OFFCURVE",
"211 602 CURVE",
"218 606 OFFCURVE",
"227 609 OFFCURVE",
"236 609 CURVE SMOOTH",
"240 609 OFFCURVE",
"245 608 OFFCURVE",
"249 607 CURVE",
"253 608 OFFCURVE",
"257 609 OFFCURVE",
"261 609 CURVE SMOOTH",
"270 609 OFFCURVE",
"279 606 OFFCURVE",
"286 602 CURVE",
"293 606 OFFCURVE",
"302 609 OFFCURVE",
"311 609 CURVE SMOOTH",
"315 609 OFFCURVE",
"320 608 OFFCURVE",
"324 607 CURVE",
"328 608 OFFCURVE",
"332 609 OFFCURVE",
"336 609 CURVE SMOOTH",
"363 609 OFFCURVE",
"385 587 OFFCURVE"
);
}
);
width = 450;
}
);
unicode = 005A;
userData = {
com.fontlab.hintData = {
hhints = (
{
position = -22;
width = 98;
},
{
position = 411;
width = 20;
},
{
position = 511;
width = 98;
}
);
vhints = (
{
position = 75;
width = 122;
},
{
position = 112;
width = 123;
},
{
position = 150;
width = 122;
},
{
position = 188;
width = 122;
},
{
position = 225;
width = 122;
}
);
};
};
},
{
glyphname = a;
lastChange = "2017-08-06 04:48:21 +0000";
layers = (
{
layerId = "9B45E214-161D-4B81-AEB6-0B387D0DDEE2";
paths = (
{
closed = 1;
nodes = (
"347 382 CURVE SMOOTH",
"347 365 OFFCURVE",
"338 350 OFFCURVE",
"324 341 CURVE",
"328 342 OFFCURVE",
"332 342 OFFCURVE",
"336 342 CURVE SMOOTH",
"363 342 OFFCURVE",
"385 320 OFFCURVE",
"385 293 CURVE SMOOTH",
"385 273 OFFCURVE",
"373 257 OFFCURVE",
"356 249 CURVE",
"373 241 OFFCURVE",
"385 224 OFFCURVE",
"385 204 CURVE SMOOTH",
"385 184 OFFCURVE",
"373 168 OFFCURVE",
"356 160 CURVE",
"373 152 OFFCURVE",
"385 136 OFFCURVE",
"385 116 CURVE SMOOTH",
"385 99 OFFCURVE",
"376 83 OFFCURVE",
"362 74 CURVE",
"366 75 OFFCURVE",
"369 76 OFFCURVE",
"373 76 CURVE SMOOTH",
"400 76 OFFCURVE",
"422 54 OFFCURVE",
"422 27 CURVE SMOOTH",
"422 0 OFFCURVE",
"400 -22 OFFCURVE",
"373 -22 CURVE SMOOTH",
"369 -22 OFFCURVE",
"365 -22 OFFCURVE",
"361 -21 CURVE",
"357 -22 OFFCURVE",
"353 -22 OFFCURVE",
"349 -22 CURVE SMOOTH",
"330 -22 OFFCURVE",
"313 -11 OFFCURVE",
"305 5 CURVE",
"297 -11 OFFCURVE",
"280 -22 OFFCURVE",
"261 -22 CURVE SMOOTH",
"257 -22 OFFCURVE",
"253 -22 OFFCURVE",
"249 -21 CURVE",
"245 -22 OFFCURVE",
"240 -22 OFFCURVE",
"236 -22 CURVE SMOOTH",
"227 -22 OFFCURVE",
"218 -19 OFFCURVE",
"211 -15 CURVE",
"204 -19 OFFCURVE",
"195 -22 OFFCURVE",
"186 -22 CURVE SMOOTH",
"182 -22 OFFCURVE",
"178 -22 OFFCURVE",
"174 -21 CURVE",
"170 -22 OFFCURVE",
"165 -22 OFFCURVE",
"161 -22 CURVE SMOOTH",
"152 -22 OFFCURVE",
"143 -19 OFFCURVE",
"136 -15 CURVE",
"129 -19 OFFCURVE",
"120 -22 OFFCURVE",
"111 -22 CURVE SMOOTH",
"107 -22 OFFCURVE",
"103 -22 OFFCURVE",
"99 -21 CURVE",
"95 -22 OFFCURVE",
"90 -22 OFFCURVE",
"86 -22 CURVE SMOOTH",
"59 -22 OFFCURVE",
"37 0 OFFCURVE",
"37 27 CURVE SMOOTH",
"37 44 OFFCURVE",
"46 59 OFFCURVE",
"60 68 CURVE",
"56 67 OFFCURVE",
"53 67 OFFCURVE",
"49 67 CURVE SMOOTH",
"22 67 OFFCURVE",
"0 89 OFFCURVE",
"0 116 CURVE SMOOTH",
"0 143 OFFCURVE",
"22 164 OFFCURVE",
"49 164 CURVE SMOOTH",
"53 164 OFFCURVE",
"56 164 OFFCURVE",
"60 163 CURVE",
"46 172 OFFCURVE",
"37 187 OFFCURVE",
"37 204 CURVE SMOOTH",
"37 231 OFFCURVE",
"59 253 OFFCURVE",
"86 253 CURVE SMOOTH",
"90 253 OFFCURVE",
"95 253 OFFCURVE",
"99 252 CURVE",
"103 253 OFFCURVE",
"107 253 OFFCURVE",
"111 253 CURVE SMOOTH",
"120 253 OFFCURVE",
"129 250 OFFCURVE",
"136 246 CURVE",
"143 250 OFFCURVE",
"152 253 OFFCURVE",
"161 253 CURVE SMOOTH",
"165 253 OFFCURVE",
"170 253 OFFCURVE",
"174 252 CURVE",
"178 253 OFFCURVE",
"182 253 OFFCURVE",
"186 253 CURVE SMOOTH",
"195 253 OFFCURVE",
"204 250 OFFCURVE",
"211 246 CURVE",
"218 250 OFFCURVE",
"227 253 OFFCURVE",
"236 253 CURVE SMOOTH",
"240 253 OFFCURVE",
"245 253 OFFCURVE",
"249 252 CURVE",
"253 253 OFFCURVE",
"257 253 OFFCURVE",
"261 253 CURVE SMOOTH",
"270 253 OFFCURVE",
"279 250 OFFCURVE",
"286 246 CURVE",
"288 247 OFFCURVE",
"289 248 OFFCURVE",
"291 249 CURVE",
"274 257 OFFCURVE",
"262 273 OFFCURVE",
"262 293 CURVE SMOOTH",
"262 310 OFFCURVE",
"271 326 OFFCURVE",
"285 335 CURVE",
"281 334 OFFCURVE",
"278 333 OFFCURVE",
"274 333 CURVE SMOOTH",
"265 333 OFFCURVE",
"256 336 OFFCURVE",
"249 340 CURVE",
"242 336 OFFCURVE",
"232 333 OFFCURVE",
"223 333 CURVE SMOOTH",
"219 333 OFFCURVE",
"215 334 OFFCURVE",
"211 335 CURVE",
"207 334 OFFCURVE",
"203 333 OFFCURVE",
"199 333 CURVE SMOOTH",
"190 333 OFFCURVE",
"181 336 OFFCURVE",
"174 340 CURVE",
"167 336 OFFCURVE",
"157 333 OFFCURVE",
"148 333 CURVE SMOOTH",
"144 333 OFFCURVE",
"140 334 OFFCURVE",
"136 335 CURVE",
"132 334 OFFCURVE",
"128 333 OFFCURVE",
"124 333 CURVE SMOOTH",
"97 333 OFFCURVE",
"75 355 OFFCURVE",
"75 382 CURVE SMOOTH",
"75 409 OFFCURVE",
"97 431 OFFCURVE",
"124 431 CURVE SMOOTH",
"128 431 OFFCURVE",
"132 431 OFFCURVE",
"136 430 CURVE",
"140 431 OFFCURVE",
"144 431 OFFCURVE",
"148 431 CURVE SMOOTH",
"157 431 OFFCURVE",
"167 428 OFFCURVE",
"174 424 CURVE",
"181 428 OFFCURVE",
"190 431 OFFCURVE",
"199 431 CURVE SMOOTH",
"203 431 OFFCURVE",
"207 431 OFFCURVE",
"211 430 CURVE",
"215 431 OFFCURVE",
"219 431 OFFCURVE",
"223 431 CURVE SMOOTH",
"232 431 OFFCURVE",
"242 428 OFFCURVE",
"249 424 CURVE",
"256 428 OFFCURVE",
"265 431 OFFCURVE",
"274 431 CURVE SMOOTH",
"278 431 OFFCURVE",
"282 431 OFFCURVE",
"286 430 CURVE",
"290 431 OFFCURVE",
"294 431 OFFCURVE",
"298 431 CURVE SMOOTH",
"325 431 OFFCURVE",
"347 409 OFFCURVE"
);
},
{
closed = 1;
nodes = (
"136 163 CURVE",
"129 159 OFFCURVE",
"120 156 OFFCURVE",
"111 156 CURVE SMOOTH",
"107 156 OFFCURVE",
"103 156 OFFCURVE",
"99 157 CURVE",
"113 148 OFFCURVE",
"122 133 OFFCURVE",
"122 116 CURVE SMOOTH",
"122 99 OFFCURVE",
"113 83 OFFCURVE",
"99 74 CURVE",
"103 75 OFFCURVE",
"107 76 OFFCURVE",
"111 76 CURVE SMOOTH",
"120 76 OFFCURVE",
"129 73 OFFCURVE",
"136 69 CURVE",
"143 73 OFFCURVE",
"152 76 OFFCURVE",
"161 76 CURVE SMOOTH",
"165 76 OFFCURVE",
"170 75 OFFCURVE",
"174 74 CURVE",
"178 75 OFFCURVE",
"182 76 OFFCURVE",
"186 76 CURVE SMOOTH",
"195 76 OFFCURVE",
"204 73 OFFCURVE",
"211 69 CURVE",
"218 73 OFFCURVE",
"227 76 OFFCURVE",
"236 76 CURVE SMOOTH",
"240 76 OFFCURVE",
"245 75 OFFCURVE",
"249 74 CURVE",
"253 75 OFFCURVE",
"257 76 OFFCURVE",
"261 76 CURVE SMOOTH",
"280 76 OFFCURVE",
"297 64 OFFCURVE",
"305 48 CURVE",
"309 56 OFFCURVE",
"315 63 OFFCURVE",
"323 68 CURVE",
"319 67 OFFCURVE",
"315 67 OFFCURVE",
"311 67 CURVE SMOOTH",
"284 67 OFFCURVE",
"262 89 OFFCURVE",
"262 116 CURVE SMOOTH",
"262 136 OFFCURVE",
"274 152 OFFCURVE",
"291 160 CURVE",
"289 161 OFFCURVE",
"288 162 OFFCURVE",
"286 163 CURVE",
"279 159 OFFCURVE",
"270 156 OFFCURVE",
"261 156 CURVE SMOOTH",
"257 156 OFFCURVE",
"253 156 OFFCURVE",
"249 157 CURVE",
"245 156 OFFCURVE",
"240 156 OFFCURVE",
"236 156 CURVE SMOOTH",
"227 156 OFFCURVE",
"218 159 OFFCURVE",
"211 163 CURVE",
"204 159 OFFCURVE",
"195 156 OFFCURVE",
"186 156 CURVE SMOOTH",
"182 156 OFFCURVE",
"178 156 OFFCURVE",
"174 157 CURVE",
"170 156 OFFCURVE",
"165 156 OFFCURVE",
"161 156 CURVE SMOOTH",
"152 156 OFFCURVE",
"143 159 OFFCURVE"
);
}
);
width = 450;
}
);
unicode = 0061;
userData = {
com.fontlab.hintData = {
hhints = (
{
position = -22;
width = 98;
},
{
position = 67;
width = 97;
},
{
position = 156;
width = 97;
},
{
position = 333;
width = 98;
}
);
vhints = (
{
position = 0;
width = 122;
},
{
position = 75;
width = 272;
},
{
position = 262;
width = 123;
}
);
};
};
},
{
glyphname = b;
lastChange = "2017-08-06 04:48:21 +0000";
layers = (
{
layerId = "9B45E214-161D-4B81-AEB6-0B387D0DDEE2";
paths = (
{
closed = 1;
nodes = (
"122 560 CURVE SMOOTH",
"122 540 OFFCURVE",
"111 524 OFFCURVE",
"94 516 CURVE",
"111 508 OFFCURVE",
"122 491 OFFCURVE",
"122 471 CURVE SMOOTH",
"122 451 OFFCURVE",
"111 435 OFFCURVE",
"94 427 CURVE",
"96 426 OFFCURVE",
"97 425 OFFCURVE",
"99 424 CURVE",
"106 428 OFFCURVE",
"115 431 OFFCURVE",
"124 431 CURVE SMOOTH",
"128 431 OFFCURVE",
"132 431 OFFCURVE",
"136 430 CURVE",
"140 431 OFFCURVE",
"144 431 OFFCURVE",
"148 431 CURVE SMOOTH",
"157 431 OFFCURVE",
"167 428 OFFCURVE",
"174 424 CURVE",
"181 428 OFFCURVE",
"190 431 OFFCURVE",
"199 431 CURVE SMOOTH",
"203 431 OFFCURVE",
"207 431 OFFCURVE",
"211 430 CURVE",
"215 431 OFFCURVE",
"219 431 OFFCURVE",
"223 431 CURVE SMOOTH",
"232 431 OFFCURVE",
"242 428 OFFCURVE",
"249 424 CURVE",
"256 428 OFFCURVE",
"265 431 OFFCURVE",
"274 431 CURVE SMOOTH",
"278 431 OFFCURVE",
"282 431 OFFCURVE",
"286 430 CURVE",
"290 431 OFFCURVE",
"294 431 OFFCURVE",
"298 431 CURVE SMOOTH",
"325 431 OFFCURVE",
"347 409 OFFCURVE",
"347 382 CURVE SMOOTH",
"347 365 OFFCURVE",
"338 350 OFFCURVE",
"324 341 CURVE",
"328 342 OFFCURVE",
"332 342 OFFCURVE",
"336 342 CURVE SMOOTH",
"363 342 OFFCURVE",
"385 320 OFFCURVE",
"385 293 CURVE SMOOTH",
"385 273 OFFCURVE",
"373 257 OFFCURVE",
"356 249 CURVE",
"373 241 OFFCURVE",
"385 224 OFFCURVE",
"385 204 CURVE SMOOTH",
"385 184 OFFCURVE",
"373 168 OFFCURVE",
"356 160 CURVE",
"373 152 OFFCURVE",
"385 136 OFFCURVE",
"385 116 CURVE SMOOTH",
"385 89 OFFCURVE",
"363 67 OFFCURVE",
"336 67 CURVE SMOOTH",
"332 67 OFFCURVE",
"328 67 OFFCURVE",
"324 68 CURVE",
"338 59 OFFCURVE",
"347 44 OFFCURVE",
"347 27 CURVE SMOOTH",
"347 0 OFFCURVE",
"325 -22 OFFCURVE",
"298 -22 CURVE SMOOTH",
"294 -22 OFFCURVE",
"290 -22 OFFCURVE",
"286 -21 CURVE",
"282 -22 OFFCURVE",
"278 -22 OFFCURVE",
"274 -22 CURVE SMOOTH",
"265 -22 OFFCURVE",
"256 -19 OFFCURVE",
"249 -15 CURVE",
"242 -19 OFFCURVE",
"232 -22 OFFCURVE",
"223 -22 CURVE SMOOTH",
"219 -22 OFFCURVE",
"215 -22 OFFCURVE",
"211 -21 CURVE",
"207 -22 OFFCURVE",
"203 -22 OFFCURVE",
"199 -22 CURVE SMOOTH",
"190 -22 OFFCURVE",
"181 -19 OFFCURVE",
"174 -15 CURVE",
"167 -19 OFFCURVE",
"157 -22 OFFCURVE",
"148 -22 CURVE SMOOTH",
"144 -22 OFFCURVE",
"140 -22 OFFCURVE",
"136 -21 CURVE",
"132 -22 OFFCURVE",
"128 -22 OFFCURVE",
"124 -22 CURVE SMOOTH",
"115 -22 OFFCURVE",
"106 -19 OFFCURVE",
"99 -15 CURVE",
"92 -19 OFFCURVE",
"82 -22 OFFCURVE",
"73 -22 CURVE SMOOTH",
"69 -22 OFFCURVE",
"65 -22 OFFCURVE",
"61 -21 CURVE",
"57 -22 OFFCURVE",
"53 -22 OFFCURVE",
"49 -22 CURVE SMOOTH",
"22 -22 OFFCURVE",
"0 0 OFFCURVE",
"0 27 CURVE SMOOTH",
"0 47 OFFCURVE",
"12 63 OFFCURVE",
"29 71 CURVE",
"12 79 OFFCURVE",
"0 96 OFFCURVE",
"0 116 CURVE SMOOTH",
"0 136 OFFCURVE",
"12 152 OFFCURVE",
"29 160 CURVE",
"12 168 OFFCURVE",
"0 184 OFFCURVE",
"0 204 CURVE SMOOTH",
"0 224 OFFCURVE",
"12 241 OFFCURVE",
"29 249 CURVE",
"12 257 OFFCURVE",
"0 273 OFFCURVE",
"0 293 CURVE SMOOTH",
"0 313 OFFCURVE",
"12 330 OFFCURVE",
"29 338 CURVE",
"12 346 OFFCURVE",
"0 362 OFFCURVE",
"0 382 CURVE SMOOTH",
"0 402 OFFCURVE",
"12 419 OFFCURVE",
"29 427 CURVE",
"12 435 OFFCURVE",
"0 451 OFFCURVE",
"0 471 CURVE SMOOTH",
"0 491 OFFCURVE",
"12 508 OFFCURVE",
"29 516 CURVE",
"12 524 OFFCURVE",
"0 540 OFFCURVE",
"0 560 CURVE SMOOTH",
"0 587 OFFCURVE",
"22 609 OFFCURVE",
"49 609 CURVE SMOOTH",
"53 609 OFFCURVE",
"57 608 OFFCURVE",
"61 607 CURVE",
"65 608 OFFCURVE",
"69 609 OFFCURVE",
"73 609 CURVE SMOOTH",
"100 609 OFFCURVE",
"122 587 OFFCURVE"
);
},
{
closed = 1;
nodes = (
"99 340 CURVE",
"97 339 OFFCURVE",
"96 339 OFFCURVE",
"94 338 CURVE",
"111 330 OFFCURVE",
"122 313 OFFCURVE",
"122 293 CURVE SMOOTH",
"122 273 OFFCURVE",
"111 257 OFFCURVE",
"94 249 CURVE",
"111 241 OFFCURVE",
"122 224 OFFCURVE",
"122 204 CURVE SMOOTH",
"122 184 OFFCURVE",
"111 168 OFFCURVE",
"94 160 CURVE",
"111 152 OFFCURVE",
"122 136 OFFCURVE",
"122 116 CURVE SMOOTH",
"122 96 OFFCURVE",
"111 79 OFFCURVE",
"94 71 CURVE",
"96 70 OFFCURVE",
"97 70 OFFCURVE",
"99 69 CURVE",
"106 73 OFFCURVE",
"115 76 OFFCURVE",
"124 76 CURVE SMOOTH",
"128 76 OFFCURVE",
"132 75 OFFCURVE",
"136 74 CURVE",
"140 75 OFFCURVE",
"144 76 OFFCURVE",
"148 76 CURVE SMOOTH",
"157 76 OFFCURVE",
"167 73 OFFCURVE",
"174 69 CURVE",
"181 73 OFFCURVE",
"190 76 OFFCURVE",
"199 76 CURVE SMOOTH",
"203 76 OFFCURVE",
"207 75 OFFCURVE",
"211 74 CURVE",
"215 75 OFFCURVE",
"219 76 OFFCURVE",
"223 76 CURVE SMOOTH",
"232 76 OFFCURVE",
"242 73 OFFCURVE",
"249 69 CURVE",
"256 73 OFFCURVE",
"265 76 OFFCURVE",
"274 76 CURVE SMOOTH",
"278 76 OFFCURVE",
"281 75 OFFCURVE",
"285 74 CURVE",
"271 83 OFFCURVE",
"262 99 OFFCURVE",
"262 116 CURVE SMOOTH",
"262 136 OFFCURVE",
"274 152 OFFCURVE",
"291 160 CURVE",
"274 168 OFFCURVE",
"262 184 OFFCURVE",
"262 204 CURVE SMOOTH",
"262 224 OFFCURVE",
"274 241 OFFCURVE",
"291 249 CURVE",
"274 257 OFFCURVE",
"262 273 OFFCURVE",
"262 293 CURVE SMOOTH",
"262 310 OFFCURVE",
"271 326 OFFCURVE",
"285 335 CURVE",
"281 334 OFFCURVE",
"278 333 OFFCURVE",
"274 333 CURVE SMOOTH",
"265 333 OFFCURVE",
"256 336 OFFCURVE",
"249 340 CURVE",
"242 336 OFFCURVE",
"232 333 OFFCURVE",
"223 333 CURVE SMOOTH",
"219 333 OFFCURVE",
"215 334 OFFCURVE",
"211 335 CURVE",
"207 334 OFFCURVE",
"203 333 OFFCURVE",
"199 333 CURVE SMOOTH",
"190 333 OFFCURVE",
"181 336 OFFCURVE",
"174 340 CURVE",
"167 336 OFFCURVE",
"157 333 OFFCURVE",
"148 333 CURVE SMOOTH",
"144 333 OFFCURVE",
"140 334 OFFCURVE",
"136 335 CURVE",
"132 334 OFFCURVE",
"128 333 OFFCURVE",
"124 333 CURVE SMOOTH",
"115 333 OFFCURVE",
"106 336 OFFCURVE"
);
}
);
width = 450;
}
);
unicode = 0062;
userData = {
com.fontlab.hintData = {
hhints = (
{
position = -22;
width = 98;
},
{
position = 333;
width = 98;
},
{
position = 589;
width = 20;
}
);
vhints = (
{
position = 0;
width = 122;
},
{
position = 262;
width = 123;
}
);
};
};
},
{
glyphname = c;
lastChange = "2017-08-06 04:48:21 +0000";
layers = (
{
layerId = "9B45E214-161D-4B81-AEB6-0B387D0DDEE2";
paths = (
{
closed = 1;
nodes = (
"385 382 CURVE SMOOTH",
"385 355 OFFCURVE",
"363 333 OFFCURVE",
"336 333 CURVE SMOOTH",
"332 333 OFFCURVE",
"328 334 OFFCURVE",
"324 335 CURVE",
"320 334 OFFCURVE",
"315 333 OFFCURVE",
"311 333 CURVE SMOOTH",
"302 333 OFFCURVE",
"293 336 OFFCURVE",
"286 340 CURVE",
"279 336 OFFCURVE",
"270 333 OFFCURVE",
"261 333 CURVE SMOOTH",
"257 333 OFFCURVE",
"253 334 OFFCURVE",
"249 335 CURVE",
"245 334 OFFCURVE",
"240 333 OFFCURVE",
"236 333 CURVE SMOOTH",
"227 333 OFFCURVE",
"218 336 OFFCURVE",
"211 340 CURVE",
"204 336 OFFCURVE",
"195 333 OFFCURVE",
"186 333 CURVE SMOOTH",
"182 333 OFFCURVE",
"178 334 OFFCURVE",
"174 335 CURVE",
"170 334 OFFCURVE",
"165 333 OFFCURVE",
"161 333 CURVE SMOOTH",
"152 333 OFFCURVE",
"143 336 OFFCURVE",
"136 340 CURVE",
"129 336 OFFCURVE",
"120 333 OFFCURVE",
"111 333 CURVE SMOOTH",
"107 333 OFFCURVE",
"103 334 OFFCURVE",
"99 335 CURVE",
"113 326 OFFCURVE",
"122 310 OFFCURVE",
"122 293 CURVE SMOOTH",
"122 273 OFFCURVE",
"111 257 OFFCURVE",
"94 249 CURVE",
"111 241 OFFCURVE",
"122 224 OFFCURVE",
"122 204 CURVE SMOOTH",
"122 184 OFFCURVE",
"111 168 OFFCURVE",
"94 160 CURVE",
"111 152 OFFCURVE",
"122 136 OFFCURVE",
"122 116 CURVE SMOOTH",
"122 99 OFFCURVE",
"113 83 OFFCURVE",
"99 74 CURVE",
"103 75 OFFCURVE",
"107 76 OFFCURVE",
"111 76 CURVE SMOOTH",
"120 76 OFFCURVE",
"129 73 OFFCURVE",
"136 69 CURVE",
"143 73 OFFCURVE",
"152 76 OFFCURVE",
"161 76 CURVE SMOOTH",
"165 76 OFFCURVE",
"170 75 OFFCURVE",
"174 74 CURVE",
"178 75 OFFCURVE",
"182 76 OFFCURVE",
"186 76 CURVE SMOOTH",
"195 76 OFFCURVE",
"204 73 OFFCURVE",
"211 69 CURVE",
"218 73 OFFCURVE",
"227 76 OFFCURVE",
"236 76 CURVE SMOOTH",
"240 76 OFFCURVE",
"245 75 OFFCURVE",
"249 74 CURVE",
"253 75 OFFCURVE",
"257 76 OFFCURVE",
"261 76 CURVE SMOOTH",
"270 76 OFFCURVE",
"279 73 OFFCURVE",
"286 69 CURVE",
"293 73 OFFCURVE",
"302 76 OFFCURVE",
"311 76 CURVE SMOOTH",
"315 76 OFFCURVE",
"320 75 OFFCURVE",
"324 74 CURVE",
"328 75 OFFCURVE",
"332 76 OFFCURVE",
"336 76 CURVE SMOOTH",
"363 76 OFFCURVE",
"385 54 OFFCURVE",
"385 27 CURVE SMOOTH",
"385 0 OFFCURVE",
"363 -22 OFFCURVE",
"336 -22 CURVE SMOOTH",
"332 -22 OFFCURVE",
"328 -22 OFFCURVE",
"324 -21 CURVE",
"320 -22 OFFCURVE",
"315 -22 OFFCURVE",
"311 -22 CURVE SMOOTH",
"302 -22 OFFCURVE",
"293 -19 OFFCURVE",
"286 -15 CURVE",
"279 -19 OFFCURVE",
"270 -22 OFFCURVE",
"261 -22 CURVE SMOOTH",
"257 -22 OFFCURVE",
"253 -22 OFFCURVE",
"249 -21 CURVE",
"245 -22 OFFCURVE",
"240 -22 OFFCURVE",
"236 -22 CURVE SMOOTH",
"227 -22 OFFCURVE",
"218 -19 OFFCURVE",
"211 -15 CURVE",
"204 -19 OFFCURVE",
"195 -22 OFFCURVE",
"186 -22 CURVE SMOOTH",
"182 -22 OFFCURVE",
"178 -22 OFFCURVE",
"174 -21 CURVE",
"170 -22 OFFCURVE",
"165 -22 OFFCURVE",
"161 -22 CURVE SMOOTH",
"152 -22 OFFCURVE",
"143 -19 OFFCURVE",
"136 -15 CURVE",
"129 -19 OFFCURVE",
"120 -22 OFFCURVE",
"111 -22 CURVE SMOOTH",
"107 -22 OFFCURVE",
"103 -22 OFFCURVE",
"99 -21 CURVE",
"95 -22 OFFCURVE",
"90 -22 OFFCURVE",
"86 -22 CURVE SMOOTH",
"59 -22 OFFCURVE",
"37 0 OFFCURVE",
"37 27 CURVE SMOOTH",
"37 44 OFFCURVE",
"46 59 OFFCURVE",
"60 68 CURVE",
"56 67 OFFCURVE",
"53 67 OFFCURVE",
"49 67 CURVE SMOOTH",
"22 67 OFFCURVE",
"0 89 OFFCURVE",
"0 116 CURVE SMOOTH",
"0 136 OFFCURVE",
"12 152 OFFCURVE",
"29 160 CURVE",
"12 168 OFFCURVE",
"0 184 OFFCURVE",
"0 204 CURVE SMOOTH",
"0 224 OFFCURVE",
"12 241 OFFCURVE",
"29 249 CURVE",
"12 257 OFFCURVE",
"0 273 OFFCURVE",
"0 293 CURVE SMOOTH",
"0 320 OFFCURVE",
"22 342 OFFCURVE",
"49 342 CURVE SMOOTH",
"53 342 OFFCURVE",
"56 342 OFFCURVE",
"60 341 CURVE",
"46 350 OFFCURVE",
"37 365 OFFCURVE",
"37 382 CURVE SMOOTH",
"37 409 OFFCURVE",
"59 431 OFFCURVE",
"86 431 CURVE SMOOTH",
"90 431 OFFCURVE",
"95 431 OFFCURVE",
"99 430 CURVE",
"103 431 OFFCURVE",
"107 431 OFFCURVE",
"111 431 CURVE SMOOTH",
"120 431 OFFCURVE",
"129 428 OFFCURVE",
"136 424 CURVE",
"143 428 OFFCURVE",
"152 431 OFFCURVE",
"161 431 CURVE SMOOTH",
"165 431 OFFCURVE",
"170 431 OFFCURVE",
"174 430 CURVE",
"178 431 OFFCURVE",
"182 431 OFFCURVE",
"186 431 CURVE SMOOTH",
"195 431 OFFCURVE",
"204 428 OFFCURVE",
"211 424 CURVE",
"218 428 OFFCURVE",
"227 431 OFFCURVE",
"236 431 CURVE SMOOTH",
"240 431 OFFCURVE",
"245 431 OFFCURVE",
"249 430 CURVE",
"253 431 OFFCURVE",
"257 431 OFFCURVE",
"261 431 CURVE SMOOTH",
"270 431 OFFCURVE",
"279 428 OFFCURVE",
"286 424 CURVE",
"293 428 OFFCURVE",
"302 431 OFFCURVE",
"311 431 CURVE SMOOTH",
"315 431 OFFCURVE",
"320 431 OFFCURVE",
"324 430 CURVE",
"328 431 OFFCURVE",
"332 431 OFFCURVE",
"336 431 CURVE SMOOTH",
"363 431 OFFCURVE",
"385 409 OFFCURVE"
);
}
);
width = 450;
}
);
unicode = 0063;
userData = {
com.fontlab.hintData = {
hhints = (
{
position = -22;
width = 98;
},
{
position = 333;
width = 98;
}
);
vhints = (
{
position = 0;
width = 122;
}
);
};
};
},
{
glyphname = d;
lastChange = "2017-08-06 04:48:21 +0000";
layers = (
{
layerId = "9B45E214-161D-4B81-AEB6-0B387D0DDEE2";
paths = (
{
closed = 1;
nodes = (
"385 560 CURVE SMOOTH",
"385 540 OFFCURVE",
"373 524 OFFCURVE",
"356 516 CURVE",
"373 508 OFFCURVE",
"385 491 OFFCURVE",
"385 471 CURVE SMOOTH",
"385 451 OFFCURVE",
"373 435 OFFCURVE",
"356 427 CURVE",
"373 419 OFFCURVE",
"385 402 OFFCURVE",
"385 382 CURVE SMOOTH",
"385 362 OFFCURVE",
"373 346 OFFCURVE",
"356 338 CURVE",
"373 330 OFFCURVE",
"385 313 OFFCURVE",
"385 293 CURVE SMOOTH",
"385 273 OFFCURVE",
"373 257 OFFCURVE",
"356 249 CURVE",
"373 241 OFFCURVE",
"385 224 OFFCURVE",
"385 204 CURVE SMOOTH",
"385 184 OFFCURVE",
"373 168 OFFCURVE",
"356 160 CURVE",
"373 152 OFFCURVE",
"385 136 OFFCURVE",
"385 116 CURVE SMOOTH",
"385 96 OFFCURVE",
"373 79 OFFCURVE",
"356 71 CURVE",
"373 63 OFFCURVE",
"385 47 OFFCURVE",
"385 27 CURVE SMOOTH",
"385 0 OFFCURVE",
"363 -22 OFFCURVE",
"336 -22 CURVE SMOOTH",
"332 -22 OFFCURVE",
"328 -22 OFFCURVE",
"324 -21 CURVE",
"320 -22 OFFCURVE",
"315 -22 OFFCURVE",
"311 -22 CURVE SMOOTH",
"302 -22 OFFCURVE",
"293 -19 OFFCURVE",
"286 -15 CURVE",
"279 -19 OFFCURVE",
"270 -22 OFFCURVE",
"261 -22 CURVE SMOOTH",
"257 -22 OFFCURVE",
"253 -22 OFFCURVE",
"249 -21 CURVE",
"245 -22 OFFCURVE",
"240 -22 OFFCURVE",
"236 -22 CURVE SMOOTH",
"227 -22 OFFCURVE",
"218 -19 OFFCURVE",
"211 -15 CURVE",
"204 -19 OFFCURVE",
"195 -22 OFFCURVE",
"186 -22 CURVE SMOOTH",
"182 -22 OFFCURVE",
"178 -22 OFFCURVE",
"174 -21 CURVE",
"170 -22 OFFCURVE",
"165 -22 OFFCURVE",
"161 -22 CURVE SMOOTH",
"152 -22 OFFCURVE",
"143 -19 OFFCURVE",
"136 -15 CURVE",
"129 -19 OFFCURVE",
"120 -22 OFFCURVE",
"111 -22 CURVE SMOOTH",
"107 -22 OFFCURVE",
"103 -22 OFFCURVE",
"99 -21 CURVE",
"95 -22 OFFCURVE",
"90 -22 OFFCURVE",
"86 -22 CURVE SMOOTH",
"59 -22 OFFCURVE",
"37 0 OFFCURVE",
"37 27 CURVE SMOOTH",
"37 44 OFFCURVE",
"46 59 OFFCURVE",
"60 68 CURVE",
"56 67 OFFCURVE",
"53 67 OFFCURVE",
"49 67 CURVE SMOOTH",
"22 67 OFFCURVE",
"0 89 OFFCURVE",
"0 116 CURVE SMOOTH",
"0 136 OFFCURVE",
"12 152 OFFCURVE",
"29 160 CURVE",
"12 168 OFFCURVE",
"0 184 OFFCURVE",
"0 204 CURVE SMOOTH",
"0 224 OFFCURVE",
"12 241 OFFCURVE",
"29 249 CURVE",
"12 257 OFFCURVE",
"0 273 OFFCURVE",
"0 293 CURVE SMOOTH",
"0 320 OFFCURVE",
"22 342 OFFCURVE",
"49 342 CURVE SMOOTH",
"53 342 OFFCURVE",
"56 342 OFFCURVE",
"60 341 CURVE",
"46 350 OFFCURVE",
"37 365 OFFCURVE",
"37 382 CURVE SMOOTH",
"37 409 OFFCURVE",
"59 431 OFFCURVE",
"86 431 CURVE SMOOTH",
"90 431 OFFCURVE",
"95 431 OFFCURVE",
"99 430 CURVE",
"103 431 OFFCURVE",
"107 431 OFFCURVE",
"111 431 CURVE SMOOTH",
"120 431 OFFCURVE",
"129 428 OFFCURVE",
"136 424 CURVE",
"143 428 OFFCURVE",
"152 431 OFFCURVE",
"161 431 CURVE SMOOTH",
"165 431 OFFCURVE",
"170 431 OFFCURVE",
"174 430 CURVE",
"178 431 OFFCURVE",
"182 431 OFFCURVE",
"186 431 CURVE SMOOTH",
"195 431 OFFCURVE",
"204 428 OFFCURVE",
"211 424 CURVE",
"218 428 OFFCURVE",
"227 431 OFFCURVE",
"236 431 CURVE SMOOTH",
"240 431 OFFCURVE",
"245 431 OFFCURVE",
"249 430 CURVE",
"253 431 OFFCURVE",
"257 431 OFFCURVE",
"261 431 CURVE SMOOTH",
"270 431 OFFCURVE",
"279 428 OFFCURVE",
"286 424 CURVE",
"288 425 OFFCURVE",
"289 426 OFFCURVE",
"291 427 CURVE",
"274 435 OFFCURVE",
"262 451 OFFCURVE",
"262 471 CURVE SMOOTH",
"262 491 OFFCURVE",
"274 508 OFFCURVE",
"291 516 CURVE",
"274 524 OFFCURVE",
"262 540 OFFCURVE",
"262 560 CURVE SMOOTH",
"262 587 OFFCURVE",
"284 609 OFFCURVE",
"311 609 CURVE SMOOTH",
"315 609 OFFCURVE",
"320 608 OFFCURVE",
"324 607 CURVE",
"328 608 OFFCURVE",
"332 609 OFFCURVE",
"336 609 CURVE SMOOTH",
"363 609 OFFCURVE",
"385 587 OFFCURVE"
);
},
{
closed = 1;
nodes = (
"136 340 CURVE",
"129 336 OFFCURVE",
"120 333 OFFCURVE",
"111 333 CURVE SMOOTH",
"107 333 OFFCURVE",
"103 334 OFFCURVE",
"99 335 CURVE",
"113 326 OFFCURVE",
"122 310 OFFCURVE",
"122 293 CURVE SMOOTH",
"122 273 OFFCURVE",
"111 257 OFFCURVE",
"94 249 CURVE",
"111 241 OFFCURVE",
"122 224 OFFCURVE",
"122 204 CURVE SMOOTH",
"122 184 OFFCURVE",
"111 168 OFFCURVE",
"94 160 CURVE",
"111 152 OFFCURVE",
"122 136 OFFCURVE",
"122 116 CURVE SMOOTH",
"122 99 OFFCURVE",
"113 83 OFFCURVE",
"99 74 CURVE",
"103 75 OFFCURVE",
"107 76 OFFCURVE",
"111 76 CURVE SMOOTH",
"120 76 OFFCURVE",
"129 73 OFFCURVE",
"136 69 CURVE",
"143 73 OFFCURVE",
"152 76 OFFCURVE",
"161 76 CURVE SMOOTH",
"165 76 OFFCURVE",
"170 75 OFFCURVE",
"174 74 CURVE",
"178 75 OFFCURVE",
"182 76 OFFCURVE",
"186 76 CURVE SMOOTH",
"195 76 OFFCURVE",
"204 73 OFFCURVE",
"211 69 CURVE",
"218 73 OFFCURVE",
"227 76 OFFCURVE",
"236 76 CURVE SMOOTH",
"240 76 OFFCURVE",
"245 75 OFFCURVE",
"249 74 CURVE",
"253 75 OFFCURVE",
"257 76 OFFCURVE",
"261 76 CURVE SMOOTH",
"270 76 OFFCURVE",
"279 73 OFFCURVE",
"286 69 CURVE",
"288 70 OFFCURVE",
"289 70 OFFCURVE",
"291 71 CURVE",
"274 79 OFFCURVE",
"262 96 OFFCURVE",
"262 116 CURVE SMOOTH",
"262 136 OFFCURVE",
"274 152 OFFCURVE",
"291 160 CURVE",
"274 168 OFFCURVE",
"262 184 OFFCURVE",
"262 204 CURVE SMOOTH",
"262 224 OFFCURVE",
"274 241 OFFCURVE",
"291 249 CURVE",
"274 257 OFFCURVE",
"262 273 OFFCURVE",
"262 293 CURVE SMOOTH",
"262 313 OFFCURVE",
"274 330 OFFCURVE",
"291 338 CURVE",
"289 339 OFFCURVE",
"288 339 OFFCURVE",
"286 340 CURVE",
"279 336 OFFCURVE",
"270 333 OFFCURVE",
"261 333 CURVE SMOOTH",
"257 333 OFFCURVE",
"253 334 OFFCURVE",
"249 335 CURVE",
"245 334 OFFCURVE",
"240 333 OFFCURVE",
"236 333 CURVE SMOOTH",
"227 333 OFFCURVE",
"218 336 OFFCURVE",
"211 340 CURVE",
"204 336 OFFCURVE",
"195 333 OFFCURVE",
"186 333 CURVE SMOOTH",
"182 333 OFFCURVE",
"178 334 OFFCURVE",
"174 335 CURVE",
"170 334 OFFCURVE",
"165 333 OFFCURVE",
"161 333 CURVE SMOOTH",
"152 333 OFFCURVE",
"143 336 OFFCURVE"
);
}
);
width = 450;
}
);
unicode = 0064;
userData = {
com.fontlab.hintData = {
hhints = (
{
position = -22;
width = 98;
},
{
position = 333;
width = 98;
},
{
position = 589;
width = 20;
}
);
vhints = (
{
position = 0;
width = 122;
},
{
position = 262;
width = 123;
}
);
};
};
},
{
glyphname = e;
lastChange = "2017-08-06 04:48:21 +0000";
layers = (
{
layerId = "9B45E214-161D-4B81-AEB6-0B387D0DDEE2";
paths = (
{
closed = 1;
nodes = (
"385 382 CURVE SMOOTH",
"385 365 OFFCURVE",
"376 350 OFFCURVE",
"362 341 CURVE",
"366 342 OFFCURVE",
"369 342 OFFCURVE",
"373 342 CURVE SMOOTH",
"400 342 OFFCURVE",
"422 320 OFFCURVE",
"422 293 CURVE SMOOTH",
"422 273 OFFCURVE",
"411 257 OFFCURVE",
"394 249 CURVE",
"411 241 OFFCURVE",
"422 224 OFFCURVE",
"422 204 CURVE SMOOTH",
"422 177 OFFCURVE",
"400 156 OFFCURVE",
"373 156 CURVE SMOOTH",
"369 156 OFFCURVE",
"365 156 OFFCURVE",
"361 157 CURVE",
"357 156 OFFCURVE",
"353 156 OFFCURVE",
"349 156 CURVE SMOOTH",
"340 156 OFFCURVE",
"331 159 OFFCURVE",
"324 163 CURVE",
"317 159 OFFCURVE",
"307 156 OFFCURVE",
"298 156 CURVE SMOOTH",
"294 156 OFFCURVE",
"290 156 OFFCURVE",
"286 157 CURVE",
"282 156 OFFCURVE",
"278 156 OFFCURVE",
"274 156 CURVE SMOOTH",
"265 156 OFFCURVE",
"256 159 OFFCURVE",
"249 163 CURVE",
"242 159 OFFCURVE",
"232 156 OFFCURVE",
"223 156 CURVE SMOOTH",
"219 156 OFFCURVE",
"215 156 OFFCURVE",
"211 157 CURVE",
"207 156 OFFCURVE",
"203 156 OFFCURVE",
"199 156 CURVE SMOOTH",
"190 156 OFFCURVE",
"181 159 OFFCURVE",
"174 163 CURVE",
"167 159 OFFCURVE",
"157 156 OFFCURVE",
"148 156 CURVE SMOOTH",
"144 156 OFFCURVE",
"140 156 OFFCURVE",
"136 157 CURVE",
"132 156 OFFCURVE",
"128 156 OFFCURVE",
"124 156 CURVE SMOOTH",
"115 156 OFFCURVE",
"106 159 OFFCURVE",
"99 163 CURVE",
"97 162 OFFCURVE",
"96 161 OFFCURVE",
"94 160 CURVE",
"111 152 OFFCURVE",
"122 136 OFFCURVE",
"122 116 CURVE SMOOTH",
"122 99 OFFCURVE",
"113 83 OFFCURVE",
"99 74 CURVE",
"103 75 OFFCURVE",
"107 76 OFFCURVE",
"111 76 CURVE SMOOTH",
"120 76 OFFCURVE",
"129 73 OFFCURVE",
"136 69 CURVE",
"143 73 OFFCURVE",
"152 76 OFFCURVE",
"161 76 CURVE SMOOTH",
"165 76 OFFCURVE",
"170 75 OFFCURVE",
"174 74 CURVE",
"178 75 OFFCURVE",
"182 76 OFFCURVE",
"186 76 CURVE SMOOTH",
"195 76 OFFCURVE",
"204 73 OFFCURVE",
"211 69 CURVE",
"218 73 OFFCURVE",
"227 76 OFFCURVE",
"236 76 CURVE SMOOTH",
"240 76 OFFCURVE",
"245 75 OFFCURVE",
"249 74 CURVE",
"253 75 OFFCURVE",
"257 76 OFFCURVE",
"261 76 CURVE SMOOTH",
"270 76 OFFCURVE",
"279 73 OFFCURVE",
"286 69 CURVE",
"293 73 OFFCURVE",
"302 76 OFFCURVE",
"311 76 CURVE SMOOTH",
"315 76 OFFCURVE",
"320 75 OFFCURVE",
"324 74 CURVE",
"328 75 OFFCURVE",
"332 76 OFFCURVE",
"336 76 CURVE SMOOTH",
"363 76 OFFCURVE",
"385 54 OFFCURVE",
"385 27 CURVE SMOOTH",
"385 0 OFFCURVE",
"363 -22 OFFCURVE",
"336 -22 CURVE SMOOTH",
"332 -22 OFFCURVE",
"328 -22 OFFCURVE",
"324 -21 CURVE",
"320 -22 OFFCURVE",
"315 -22 OFFCURVE",
"311 -22 CURVE SMOOTH",
"302 -22 OFFCURVE",
"293 -19 OFFCURVE",
"286 -15 CURVE",
"279 -19 OFFCURVE",
"270 -22 OFFCURVE",
"261 -22 CURVE SMOOTH",
"257 -22 OFFCURVE",
"253 -22 OFFCURVE",
"249 -21 CURVE",
"245 -22 OFFCURVE",
"240 -22 OFFCURVE",
"236 -22 CURVE SMOOTH",
"227 -22 OFFCURVE",
"218 -19 OFFCURVE",
"211 -15 CURVE",
"204 -19 OFFCURVE",
"195 -22 OFFCURVE",
"186 -22 CURVE SMOOTH",
"182 -22 OFFCURVE",
"178 -22 OFFCURVE",
"174 -21 CURVE",
"170 -22 OFFCURVE",
"165 -22 OFFCURVE",
"161 -22 CURVE SMOOTH",
"152 -22 OFFCURVE",
"143 -19 OFFCURVE",
"136 -15 CURVE",
"129 -19 OFFCURVE",
"120 -22 OFFCURVE",
"111 -22 CURVE SMOOTH",
"107 -22 OFFCURVE",
"103 -22 OFFCURVE",
"99 -21 CURVE",
"95 -22 OFFCURVE",
"90 -22 OFFCURVE",
"86 -22 CURVE SMOOTH",
"59 -22 OFFCURVE",
"37 0 OFFCURVE",
"37 27 CURVE SMOOTH",
"37 44 OFFCURVE",
"46 59 OFFCURVE",
"60 68 CURVE",
"56 67 OFFCURVE",
"53 67 OFFCURVE",
"49 67 CURVE SMOOTH",
"22 67 OFFCURVE",
"0 89 OFFCURVE",
"0 116 CURVE SMOOTH",
"0 136 OFFCURVE",
"12 152 OFFCURVE",
"29 160 CURVE",
"12 168 OFFCURVE",
"0 184 OFFCURVE",
"0 204 CURVE SMOOTH",
"0 224 OFFCURVE",
"12 241 OFFCURVE",
"29 249 CURVE",
"12 257 OFFCURVE",
"0 273 OFFCURVE",
"0 293 CURVE SMOOTH",
"0 320 OFFCURVE",
"22 342 OFFCURVE",
"49 342 CURVE SMOOTH",
"53 342 OFFCURVE",
"56 342 OFFCURVE",
"60 341 CURVE",
"46 350 OFFCURVE",
"37 365 OFFCURVE",
"37 382 CURVE SMOOTH",
"37 409 OFFCURVE",
"59 431 OFFCURVE",
"86 431 CURVE SMOOTH",
"90 431 OFFCURVE",
"95 431 OFFCURVE",
"99 430 CURVE",
"103 431 OFFCURVE",
"107 431 OFFCURVE",
"111 431 CURVE SMOOTH",
"120 431 OFFCURVE",
"129 428 OFFCURVE",
"136 424 CURVE",
"143 428 OFFCURVE",
"152 431 OFFCURVE",
"161 431 CURVE SMOOTH",
"165 431 OFFCURVE",
"170 431 OFFCURVE",
"174 430 CURVE",
"178 431 OFFCURVE",
"182 431 OFFCURVE",
"186 431 CURVE SMOOTH",
"195 431 OFFCURVE",
"204 428 OFFCURVE",
"211 424 CURVE",
"218 428 OFFCURVE",
"227 431 OFFCURVE",
"236 431 CURVE SMOOTH",
"240 431 OFFCURVE",
"245 431 OFFCURVE",
"249 430 CURVE",
"253 431 OFFCURVE",
"257 431 OFFCURVE",
"261 431 CURVE SMOOTH",
"270 431 OFFCURVE",
"279 428 OFFCURVE",
"286 424 CURVE",
"293 428 OFFCURVE",
"302 431 OFFCURVE",
"311 431 CURVE SMOOTH",
"315 431 OFFCURVE",
"320 431 OFFCURVE",
"324 430 CURVE",
"328 431 OFFCURVE",
"332 431 OFFCURVE",
"336 431 CURVE SMOOTH",
"363 431 OFFCURVE",
"385 409 OFFCURVE"
);
},
{
closed = 1;
nodes = (
"136 340 CURVE",
"129 336 OFFCURVE",
"120 333 OFFCURVE",
"111 333 CURVE SMOOTH",
"107 333 OFFCURVE",
"103 334 OFFCURVE",
"99 335 CURVE",
"113 326 OFFCURVE",
"122 310 OFFCURVE",
"122 293 CURVE SMOOTH",
"122 273 OFFCURVE",
"111 257 OFFCURVE",
"94 249 CURVE",
"96 248 OFFCURVE",
"97 247 OFFCURVE",
"99 246 CURVE",
"106 250 OFFCURVE",
"115 253 OFFCURVE",
"124 253 CURVE SMOOTH",
"128 253 OFFCURVE",
"132 253 OFFCURVE",
"136 252 CURVE",
"140 253 OFFCURVE",
"144 253 OFFCURVE",
"148 253 CURVE SMOOTH",
"157 253 OFFCURVE",
"167 250 OFFCURVE",
"174 246 CURVE",
"181 250 OFFCURVE",
"190 253 OFFCURVE",
"199 253 CURVE SMOOTH",
"203 253 OFFCURVE",
"207 253 OFFCURVE",
"211 252 CURVE",
"215 253 OFFCURVE",
"219 253 OFFCURVE",
"223 253 CURVE SMOOTH",
"232 253 OFFCURVE",
"242 250 OFFCURVE",
"249 246 CURVE",
"256 250 OFFCURVE",
"265 253 OFFCURVE",
"274 253 CURVE SMOOTH",
"278 253 OFFCURVE",
"282 253 OFFCURVE",
"286 252 CURVE",
"290 253 OFFCURVE",
"294 253 OFFCURVE",
"298 253 CURVE SMOOTH",
"307 253 OFFCURVE",
"317 250 OFFCURVE",
"324 246 CURVE",
"326 247 OFFCURVE",
"327 248 OFFCURVE",
"329 249 CURVE",
"312 257 OFFCURVE",
"300 273 OFFCURVE",
"300 293 CURVE SMOOTH",
"300 310 OFFCURVE",
"309 326 OFFCURVE",
"323 335 CURVE",
"319 334 OFFCURVE",
"315 333 OFFCURVE",
"311 333 CURVE SMOOTH",
"302 333 OFFCURVE",
"293 336 OFFCURVE",
"286 340 CURVE",
"279 336 OFFCURVE",
"270 333 OFFCURVE",
"261 333 CURVE SMOOTH",
"257 333 OFFCURVE",
"253 334 OFFCURVE",
"249 335 CURVE",
"245 334 OFFCURVE",
"240 333 OFFCURVE",
"236 333 CURVE SMOOTH",
"227 333 OFFCURVE",
"218 336 OFFCURVE",
"211 340 CURVE",
"204 336 OFFCURVE",
"195 333 OFFCURVE",
"186 333 CURVE SMOOTH",
"182 333 OFFCURVE",
"178 334 OFFCURVE",
"174 335 CURVE",
"170 334 OFFCURVE",
"165 333 OFFCURVE",
"161 333 CURVE SMOOTH",
"152 333 OFFCURVE",
"143 336 OFFCURVE"
);
}
);
width = 450;
}
);
unicode = 0065;
userData = {
com.fontlab.hintData = {
hhints = (
{
position = -22;
width = 98;
},
{
position = 156;
width = 97;
},
{
position = 333;
width = 98;
}
);
vhints = (
{
position = 0;
width = 122;
},
{
position = 300;
width = 122;
}
);
};
};
},
{
glyphname = f;
lastChange = "2017-08-06 04:48:21 +0000";
layers = (
{
layerId = "9B45E214-161D-4B81-AEB6-0B387D0DDEE2";
paths = (
{
closed = 1;
nodes = (
"347 560 CURVE SMOOTH",
"347 533 OFFCURVE",
"325 511 OFFCURVE",
"298 511 CURVE SMOOTH",
"294 511 OFFCURVE",
"290 512 OFFCURVE",
"286 513 CURVE",
"282 512 OFFCURVE",
"278 511 OFFCURVE",
"274 511 CURVE SMOOTH",
"265 511 OFFCURVE",
"256 514 OFFCURVE",
"249 518 CURVE",
"242 514 OFFCURVE",
"232 511 OFFCURVE",
"223 511 CURVE SMOOTH",
"219 511 OFFCURVE",
"216 511 OFFCURVE",
"212 512 CURVE",
"226 503 OFFCURVE",
"235 488 OFFCURVE",
"235 471 CURVE SMOOTH",
"235 451 OFFCURVE",
"223 435 OFFCURVE",
"206 427 CURVE",
"223 419 OFFCURVE",
"235 402 OFFCURVE",
"235 382 CURVE SMOOTH",
"235 365 OFFCURVE",
"226 350 OFFCURVE",
"212 341 CURVE",
"216 342 OFFCURVE",
"219 342 OFFCURVE",
"223 342 CURVE SMOOTH",
"232 342 OFFCURVE",
"242 339 OFFCURVE",
"249 335 CURVE",
"256 339 OFFCURVE",
"265 342 OFFCURVE",
"274 342 CURVE SMOOTH",
"278 342 OFFCURVE",
"282 342 OFFCURVE",
"286 341 CURVE",
"290 342 OFFCURVE",
"294 342 OFFCURVE",
"298 342 CURVE SMOOTH",
"325 342 OFFCURVE",
"347 320 OFFCURVE",
"347 293 CURVE SMOOTH",
"347 266 OFFCURVE",
"325 244 OFFCURVE",
"298 244 CURVE SMOOTH",
"294 244 OFFCURVE",
"290 245 OFFCURVE",
"286 246 CURVE",
"282 245 OFFCURVE",
"278 244 OFFCURVE",
"274 244 CURVE SMOOTH",
"265 244 OFFCURVE",
"256 247 OFFCURVE",
"249 251 CURVE",
"242 247 OFFCURVE",
"232 244 OFFCURVE",
"223 244 CURVE SMOOTH",
"219 244 OFFCURVE",
"216 245 OFFCURVE",
"212 246 CURVE",
"226 237 OFFCURVE",
"235 221 OFFCURVE",
"235 204 CURVE SMOOTH",
"235 184 OFFCURVE",
"223 168 OFFCURVE",
"206 160 CURVE",
"223 152 OFFCURVE",
"235 136 OFFCURVE",
"235 116 CURVE SMOOTH",
"235 96 OFFCURVE",
"223 79 OFFCURVE",
"206 71 CURVE",
"223 63 OFFCURVE",
"235 47 OFFCURVE",
"235 27 CURVE SMOOTH",
"235 0 OFFCURVE",
"213 -22 OFFCURVE",
"186 -22 CURVE SMOOTH",
"182 -22 OFFCURVE",
"178 -22 OFFCURVE",
"174 -21 CURVE",
"170 -22 OFFCURVE",
"165 -22 OFFCURVE",
"161 -22 CURVE SMOOTH",
"134 -22 OFFCURVE",
"112 0 OFFCURVE",
"112 27 CURVE SMOOTH",
"112 47 OFFCURVE",
"124 63 OFFCURVE",
"141 71 CURVE",
"124 79 OFFCURVE",
"112 96 OFFCURVE",
"112 116 CURVE SMOOTH",
"112 136 OFFCURVE",
"124 152 OFFCURVE",
"141 160 CURVE",
"124 168 OFFCURVE",
"112 184 OFFCURVE",
"112 204 CURVE SMOOTH",
"112 221 OFFCURVE",
"121 237 OFFCURVE",
"135 246 CURVE",
"131 245 OFFCURVE",
"128 244 OFFCURVE",
"124 244 CURVE SMOOTH",
"115 244 OFFCURVE",
"106 247 OFFCURVE",
"99 251 CURVE",
"92 247 OFFCURVE",
"82 244 OFFCURVE",
"73 244 CURVE SMOOTH",
"69 244 OFFCURVE",
"65 245 OFFCURVE",
"61 246 CURVE",
"57 245 OFFCURVE",
"53 244 OFFCURVE",
"49 244 CURVE SMOOTH",
"22 244 OFFCURVE",
"0 266 OFFCURVE",
"0 293 CURVE SMOOTH",
"0 320 OFFCURVE",
"22 342 OFFCURVE",
"49 342 CURVE SMOOTH",
"53 342 OFFCURVE",
"57 342 OFFCURVE",
"61 341 CURVE",
"65 342 OFFCURVE",
"69 342 OFFCURVE",
"73 342 CURVE SMOOTH",
"82 342 OFFCURVE",
"92 339 OFFCURVE",
"99 335 CURVE",
"106 339 OFFCURVE",
"115 342 OFFCURVE",
"124 342 CURVE SMOOTH",
"128 342 OFFCURVE",
"131 342 OFFCURVE",
"135 341 CURVE",
"121 350 OFFCURVE",
"112 365 OFFCURVE",
"112 382 CURVE SMOOTH",
"112 402 OFFCURVE",
"124 419 OFFCURVE",
"141 427 CURVE",
"124 435 OFFCURVE",
"112 451 OFFCURVE",
"112 471 CURVE SMOOTH",
"112 498 OFFCURVE",
"134 520 OFFCURVE",
"161 520 CURVE SMOOTH",
"165 520 OFFCURVE",
"169 520 OFFCURVE",
"173 519 CURVE",
"159 528 OFFCURVE",
"150 543 OFFCURVE",
"150 560 CURVE SMOOTH",
"150 587 OFFCURVE",
"172 609 OFFCURVE",
"199 609 CURVE SMOOTH",
"203 609 OFFCURVE",
"207 608 OFFCURVE",
"211 607 CURVE",
"215 608 OFFCURVE",
"219 609 OFFCURVE",
"223 609 CURVE SMOOTH",
"232 609 OFFCURVE",
"242 606 OFFCURVE",
"249 602 CURVE",
"256 606 OFFCURVE",
"265 609 OFFCURVE",
"274 609 CURVE SMOOTH",
"278 609 OFFCURVE",
"282 608 OFFCURVE",
"286 607 CURVE",
"290 608 OFFCURVE",
"294 609 OFFCURVE",
"298 609 CURVE SMOOTH",
"325 609 OFFCURVE",
"347 587 OFFCURVE"
);
}
);
width = 450;
}
);
unicode = 0066;
userData = {
com.fontlab.hintData = {
hhints = (
{
position = -22;
width = 21;
},
{
position = -22;
width = 21;
},
{
position = 244;
width = 98;
},
{
position = 511;
width = 98;
}
);
vhints = (
{
position = 112;
width = 123;
},
{
position = 150;
width = 197;
}
);
};
};
},
{
glyphname = g;
lastChange = "2017-08-06 04:48:21 +0000";
layers = (
{
layerId = "9B45E214-161D-4B81-AEB6-0B387D0DDEE2";
paths = (
{
closed = 1;
nodes = (
"385 382 CURVE SMOOTH",
"385 362 OFFCURVE",
"373 346 OFFCURVE",
"356 338 CURVE",
"373 330 OFFCURVE",
"385 313 OFFCURVE",
"385 293 CURVE SMOOTH",
"385 273 OFFCURVE",
"373 257 OFFCURVE",
"356 249 CURVE",
"373 241 OFFCURVE",
"385 224 OFFCURVE",
"385 204 CURVE SMOOTH",
"385 184 OFFCURVE",
"373 168 OFFCURVE",
"356 160 CURVE",
"373 152 OFFCURVE",
"385 136 OFFCURVE",
"385 116 CURVE SMOOTH",
"385 96 OFFCURVE",
"373 79 OFFCURVE",
"356 71 CURVE",
"373 63 OFFCURVE",
"385 47 OFFCURVE",
"385 27 CURVE SMOOTH",
"385 7 OFFCURVE",
"373 -10 OFFCURVE",
"356 -18 CURVE",
"373 -26 OFFCURVE",
"385 -42 OFFCURVE",
"385 -62 CURVE SMOOTH",
"385 -89 OFFCURVE",
"363 -111 OFFCURVE",
"336 -111 CURVE SMOOTH",
"332 -111 OFFCURVE",
"328 -111 OFFCURVE",
"324 -110 CURVE",
"338 -119 OFFCURVE",
"347 -134 OFFCURVE",
"347 -151 CURVE SMOOTH",
"347 -178 OFFCURVE",
"325 -200 OFFCURVE",
"298 -200 CURVE SMOOTH",
"294 -200 OFFCURVE",
"290 -199 OFFCURVE",
"286 -198 CURVE",
"282 -199 OFFCURVE",
"278 -200 OFFCURVE",
"274 -200 CURVE SMOOTH",
"265 -200 OFFCURVE",
"256 -197 OFFCURVE",
"249 -193 CURVE",
"242 -197 OFFCURVE",
"232 -200 OFFCURVE",
"223 -200 CURVE SMOOTH",
"219 -200 OFFCURVE",
"215 -199 OFFCURVE",
"211 -198 CURVE",
"207 -199 OFFCURVE",
"203 -200 OFFCURVE",
"199 -200 CURVE SMOOTH",
"190 -200 OFFCURVE",
"181 -197 OFFCURVE",
"174 -193 CURVE",
"167 -197 OFFCURVE",
"157 -200 OFFCURVE",
"148 -200 CURVE SMOOTH",
"144 -200 OFFCURVE",
"140 -199 OFFCURVE",
"136 -198 CURVE",
"132 -199 OFFCURVE",
"128 -200 OFFCURVE",
"124 -200 CURVE SMOOTH",
"97 -200 OFFCURVE",
"75 -178 OFFCURVE",
"75 -151 CURVE SMOOTH",
"75 -124 OFFCURVE",
"97 -102 OFFCURVE",
"124 -102 CURVE SMOOTH",
"128 -102 OFFCURVE",
"132 -103 OFFCURVE",
"136 -104 CURVE",
"140 -103 OFFCURVE",
"144 -102 OFFCURVE",
"148 -102 CURVE SMOOTH",
"157 -102 OFFCURVE",
"167 -105 OFFCURVE",
"174 -109 CURVE",
"181 -105 OFFCURVE",
"190 -102 OFFCURVE",
"199 -102 CURVE SMOOTH",
"203 -102 OFFCURVE",
"207 -103 OFFCURVE",
"211 -104 CURVE",
"215 -103 OFFCURVE",
"219 -102 OFFCURVE",
"223 -102 CURVE SMOOTH",
"232 -102 OFFCURVE",
"242 -105 OFFCURVE",
"249 -109 CURVE",
"256 -105 OFFCURVE",
"265 -102 OFFCURVE",
"274 -102 CURVE SMOOTH",
"278 -102 OFFCURVE",
"281 -103 OFFCURVE",
"285 -104 CURVE",
"271 -95 OFFCURVE",
"262 -79 OFFCURVE",
"262 -62 CURVE SMOOTH",
"262 -42 OFFCURVE",
"274 -26 OFFCURVE",
"291 -18 CURVE",
"289 -17 OFFCURVE",
"288 -16 OFFCURVE",
"286 -15 CURVE",
"279 -19 OFFCURVE",
"270 -22 OFFCURVE",
"261 -22 CURVE SMOOTH",
"257 -22 OFFCURVE",
"253 -22 OFFCURVE",
"249 -21 CURVE",
"245 -22 OFFCURVE",
"240 -22 OFFCURVE",
"236 -22 CURVE SMOOTH",
"227 -22 OFFCURVE",
"218 -19 OFFCURVE",
"211 -15 CURVE",
"204 -19 OFFCURVE",
"195 -22 OFFCURVE",
"186 -22 CURVE SMOOTH",
"182 -22 OFFCURVE",
"178 -22 OFFCURVE",
"174 -21 CURVE",
"170 -22 OFFCURVE",
"165 -22 OFFCURVE",
"161 -22 CURVE SMOOTH",
"152 -22 OFFCURVE",
"143 -19 OFFCURVE",
"136 -15 CURVE",
"129 -19 OFFCURVE",
"120 -22 OFFCURVE",
"111 -22 CURVE SMOOTH",
"107 -22 OFFCURVE",
"103 -22 OFFCURVE",
"99 -21 CURVE",
"95 -22 OFFCURVE",
"90 -22 OFFCURVE",
"86 -22 CURVE SMOOTH",
"59 -22 OFFCURVE",
"37 0 OFFCURVE",
"37 27 CURVE SMOOTH",
"37 44 OFFCURVE",
"46 59 OFFCURVE",
"60 68 CURVE",
"56 67 OFFCURVE",
"53 67 OFFCURVE",
"49 67 CURVE SMOOTH",
"22 67 OFFCURVE",
"0 89 OFFCURVE",
"0 116 CURVE SMOOTH",
"0 136 OFFCURVE",
"12 152 OFFCURVE",
"29 160 CURVE",
"12 168 OFFCURVE",
"0 184 OFFCURVE",
"0 204 CURVE SMOOTH",
"0 224 OFFCURVE",
"12 241 OFFCURVE",
"29 249 CURVE",
"12 257 OFFCURVE",
"0 273 OFFCURVE",
"0 293 CURVE SMOOTH",
"0 320 OFFCURVE",
"22 342 OFFCURVE",
"49 342 CURVE SMOOTH",
"53 342 OFFCURVE",
"56 342 OFFCURVE",
"60 341 CURVE",
"46 350 OFFCURVE",
"37 365 OFFCURVE",
"37 382 CURVE SMOOTH",
"37 409 OFFCURVE",
"59 431 OFFCURVE",
"86 431 CURVE SMOOTH",
"90 431 OFFCURVE",
"95 431 OFFCURVE",
"99 430 CURVE",
"103 431 OFFCURVE",
"107 431 OFFCURVE",
"111 431 CURVE SMOOTH",
"120 431 OFFCURVE",
"129 428 OFFCURVE",
"136 424 CURVE",
"143 428 OFFCURVE",
"152 431 OFFCURVE",
"161 431 CURVE SMOOTH",
"165 431 OFFCURVE",
"170 431 OFFCURVE",
"174 430 CURVE",
"178 431 OFFCURVE",
"182 431 OFFCURVE",
"186 431 CURVE SMOOTH",
"195 431 OFFCURVE",
"204 428 OFFCURVE",
"211 424 CURVE",
"218 428 OFFCURVE",
"227 431 OFFCURVE",
"236 431 CURVE SMOOTH",
"240 431 OFFCURVE",
"245 431 OFFCURVE",
"249 430 CURVE",
"253 431 OFFCURVE",
"257 431 OFFCURVE",
"261 431 CURVE SMOOTH",
"270 431 OFFCURVE",
"279 428 OFFCURVE",
"286 424 CURVE",
"293 428 OFFCURVE",
"302 431 OFFCURVE",
"311 431 CURVE SMOOTH",
"315 431 OFFCURVE",
"320 431 OFFCURVE",
"324 430 CURVE",
"328 431 OFFCURVE",
"332 431 OFFCURVE",
"336 431 CURVE SMOOTH",
"363 431 OFFCURVE",
"385 409 OFFCURVE"
);
},
{
closed = 1;
nodes = (
"136 340 CURVE",
"129 336 OFFCURVE",
"120 333 OFFCURVE",
"111 333 CURVE SMOOTH",
"107 333 OFFCURVE",
"103 334 OFFCURVE",
"99 335 CURVE",
"113 326 OFFCURVE",
"122 310 OFFCURVE",
"122 293 CURVE SMOOTH",
"122 273 OFFCURVE",
"111 257 OFFCURVE",
"94 249 CURVE",
"111 241 OFFCURVE",
"122 224 OFFCURVE",
"122 204 CURVE SMOOTH",
"122 184 OFFCURVE",
"111 168 OFFCURVE",
"94 160 CURVE",
"111 152 OFFCURVE",
"122 136 OFFCURVE",
"122 116 CURVE SMOOTH",
"122 99 OFFCURVE",
"113 83 OFFCURVE",
"99 74 CURVE",
"103 75 OFFCURVE",
"107 76 OFFCURVE",
"111 76 CURVE SMOOTH",
"120 76 OFFCURVE",
"129 73 OFFCURVE",
"136 69 CURVE",
"143 73 OFFCURVE",
"152 76 OFFCURVE",
"161 76 CURVE SMOOTH",
"165 76 OFFCURVE",
"170 75 OFFCURVE",
"174 74 CURVE",
"178 75 OFFCURVE",
"182 76 OFFCURVE",
"186 76 CURVE SMOOTH",
"195 76 OFFCURVE",
"204 73 OFFCURVE",
"211 69 CURVE",
"218 73 OFFCURVE",
"227 76 OFFCURVE",
"236 76 CURVE SMOOTH",
"240 76 OFFCURVE",
"245 75 OFFCURVE",
"249 74 CURVE",
"253 75 OFFCURVE",
"257 76 OFFCURVE",
"261 76 CURVE SMOOTH",
"270 76 OFFCURVE",
"279 73 OFFCURVE",
"286 69 CURVE",
"288 70 OFFCURVE",
"289 70 OFFCURVE",
"291 71 CURVE",
"274 79 OFFCURVE",
"262 96 OFFCURVE",
"262 116 CURVE SMOOTH",
"262 136 OFFCURVE",
"274 152 OFFCURVE",
"291 160 CURVE",
"274 168 OFFCURVE",
"262 184 OFFCURVE",
"262 204 CURVE SMOOTH",
"262 224 OFFCURVE",
"274 241 OFFCURVE",
"291 249 CURVE",
"274 257 OFFCURVE",
"262 273 OFFCURVE",
"262 293 CURVE SMOOTH",
"262 313 OFFCURVE",
"274 330 OFFCURVE",
"291 338 CURVE",
"289 339 OFFCURVE",
"288 339 OFFCURVE",
"286 340 CURVE",
"279 336 OFFCURVE",
"270 333 OFFCURVE",
"261 333 CURVE SMOOTH",
"257 333 OFFCURVE",
"253 334 OFFCURVE",
"249 335 CURVE",
"245 334 OFFCURVE",
"240 333 OFFCURVE",
"236 333 CURVE SMOOTH",
"227 333 OFFCURVE",
"218 336 OFFCURVE",
"211 340 CURVE",
"204 336 OFFCURVE",
"195 333 OFFCURVE",
"186 333 CURVE SMOOTH",
"182 333 OFFCURVE",
"178 334 OFFCURVE",
"174 335 CURVE",
"170 334 OFFCURVE",
"165 333 OFFCURVE",
"161 333 CURVE SMOOTH",
"152 333 OFFCURVE",
"143 336 OFFCURVE"
);
}
);
width = 450;
}
);
unicode = 0067;
userData = {
com.fontlab.hintData = {
hhints = (
{
position = -200;
width = 98;
},
{
position = -22;
width = 98;
},
{
position = 333;
width = 98;
}
);
vhints = (
{
position = 0;
width = 122;
},
{
position = 75;
width = 272;
},
{
position = 262;
width = 123;
}
);
};
};
},
